{
.appVersion = "3343";
.formatVersion = 3;
axes = (
{
default = 400;
name = Weight;
tag = wght;
}
);
classes = (
{
code = "zero one two three four five six seven eight nine";
name = Numbers;
},
{
code = "jha-gurmukhi a-gurmukhi aa-gurmukhi i-gurmukhi ii-gurmukhi u-gurmukhi uu-gurmukhi ee-gurmukhi ai-gurmukhi oo-gurmukhi au-gurmukhi ka-gurmukhi kha-gurmukhi ga-gurmukhi gha-gurmukhi nga-gurmukhi ca-gurmukhi cha-gurmukhi ja-gurmukhi nya-gurmukhi tta-gurmukhi ttha-gurmukhi dda-gurmukhi ddha-gurmukhi nna-gurmukhi ta-gurmukhi tha-gurmukhi da-gurmukhi dha-gurmukhi na-gurmukhi pa-gurmukhi pha-gurmukhi ba-gurmukhi bha-gurmukhi ma-gurmukhi ya-gurmukhi ra-gurmukhi la-gurmukhi lla-gurmukhi va-gurmukhi sha-gurmukhi sa-gurmukhi ha-gurmukhi aaMatra-gurmukhi iMatra-gurmukhi iiMatra-gurmukhi khha-gurmukhi ghha-gurmukhi za-gurmukhi rra-gurmukhi fa-gurmukhi iri-gurmukhi ura-gurmukhi danda-deva dbldanda-deva ma-gurmukhi.post tha-gurmukhi.post iiMatra_bindi-gurmukhi rra_haBelow-gurmukhi VS12_ya-gurmukhi.rlig VS1_ya-gurmukhi.rlig VS2_ya-gurmukhi.rlig VS25_ka-gurmukhi.rlig VS45_sa-gurmukhi.rlig VS4_sa-gurmukhi.rlig VS5_ka-gurmukhi.rlig VS5_dha-gurmukhi.rlig VS6_ja-gurmukhi.rlig VS6_sa-gurmukhi.rlig VS7_ja-gurmukhi.rlig VS8_ja-gurmukhi.rlig VS8_sa-gurmukhi.rlig VS9_ja-gurmukhi.rlig
";
name = Basic_gm;
},
{
code = "addak-gurmukhi.alt addakBindi-gurmukhi.alt";
name = AboveBaseMarkAlt;
},
{
code = "";
name = AboveBaseMatraAlt;
notes = "eeMatra_bindi-gurmukhi.alt aiMatra_bindi-gurmukhi.alt auMatra_bindi-gurmukhi.alt ooMatra_bindi-gurmukhi.alt
";
},
{
code = "a-gurmukhi aa-gurmukhi ai-gurmukhi au-gurmukhi ";
name = _vowelA_Left;
},
{
code = "iri-gurmukhi ee-gurmukhi ii-gurmukhi ";
name = _vowelEe_Left;
},
{
code = "ura-gurmukhi u-gurmukhi uu-gurmukhi oo-gurmukhi ";
name = _VowelU_Left_Right;
},
{
code = "ka-gurmukhi
";
name = _Ka_Left_Right;
},
{
code = "kha-gurmukhi gha-gurmukhi tha-gurmukhi dha-gurmukhi pa-gurmukhi ya-gurmukhi khha-gurmukhi ";
name = _Kha_Left;
},
{

glyphs = (
{
glyphname = "aaMatra-gurmukhi";
lastChange = "2025-04-25 15:19:41 +0000";
layers = (
{
anchors = (
{
name = abovevowel;
pos = (-198,597);
},
{
name = belowvowel;
pos = (-300,0);
},
{
name = gem;
pos = (128,660);
}
);
layerId = master02;
shapes = (
{
closed = 1;
nodes = (
(194,224,l),
(194,494,l),
(275,494,l),
(275,597,l),
(-20,597,l),
(-20,494,l),
(61,494,l),
(61,224,l)
);
}
);
vertWidth = 1130;
width = 255;
},
{
anchors = (
{
name = abovevowel;
pos = (-145,577);
},
{
name = belowvowel;
pos = (-280,0);
},
{
name = gem;
pos = (115,660);
}
);
layerId = master03;
shapes = (
{
closed = 1;
nodes = (
(139,237,l),
(139,539,l),
(251,539,l),
(251,577,l),
(-20,577,l),
(-20,539,l),
(92,539,l),
(92,237,l)
);
}
);
vertWidth = 814;
width = 231;
}
);
unicode = 2622;
},
{
glyphname = "iMatra-gurmukhi";
lastChange = "2025-02-09 03:53:24 +0000";
layers = (
{
guides = (
{
angle = 155.6301;
pos = (734,597);
showMeasurement = 1;
},
{
pos = (263,738);
},
{
angle = 247.8781;
pos = (548,892);
showMeasurement = 1;
}
);
layerId = master02;
shapes = (
{
closed = 1;
nodes = (
(198,0,l),
(198,494,l),
(283,494,l),
(283,597,l),
(198,597,l),
(198,636,ls),
(198,713,o),
(277,731,o),
(315,731,cs),
(387,731,o),
(431,707,o),
(469,683,c),
(520,773,l),
(474,806,o),
(403,837,o),
(315,837,cs),
(205,837,o),
(65,772,o),
(65,627,cs),
(65,597,l),
(-20,597,l),
(-20,494,l),
(65,494,l),
(65,0,l)
);
}
);
vertWidth = 1130;
width = 263;
},
{
guides = (
{
pos = (371,705);
},
{
angle = 50.8109;
pos = (340,539);
showMeasurement = 1;
},
{
angle = 152.1048;
pos = (678,576);
showMeasurement = 1;
}
);
layerId = master03;
shapes = (
{
closed = 1;
nodes = (
(145,0,l),
(145,539,l),
(263,539,l),
(263,577,l),
(145,577,l),
(145,614,ls),
(145,698,o),
(201,755,o),
(317,755,cs),
(381,755,o),
(435,735,o),
(482,703,c),
(509,732,l),
(456,769,o),
(390,795,o),
(317,795,cs),
(173,795,o),
(98,723,o),
(98,617,cs),
(98,577,l),
(-20,577,l),
(-20,539,l),
(98,539,l),
(98,0,l)
);
}
);
vertWidth = 814;
width = 243;
}
);
unicode = 2623;
},
{
glyphname = "iMatra-gurmukhi.001";
lastChange = "2025-02-11 05:47:10 +0000";
layers = (
{
guides = (
{
pos = (539,760);
}
);
layerId = master02;
shapes = (
{
closed = 1;
nodes = (
(198,0,l),
(198,494,l),
(283,494,l),
(283,597,l),
(198,597,l),
(198,651,ls),
(198,706,o),
(225,736,o),
(283,736,cs),
(350,736,o),
(391,714,o),
(424,688,c),
(453,791,l),
(442,806,o),
(376,844,o),
(283,844,cs),
(149,844,o),
(65,761,o),
(65,642,cs),
(65,597,l),
(-20,597,l),
(-20,494,l),
(65,494,l),
(65,0,l)
);
}
);
vertWidth = 1130;
width = 263;
},
{
guides = (
{
pos = (512,715);
}
);
layerId = master03;
shapes = (
{
closed = 1;
nodes = (
(145,0,l),
(145,539,l),
(263,539,l),
(263,577,l),
(145,577,l),
(145,630,ls),
(145,686,o),
(164,760,o),
(263,760,cs),
(318,760,o),
(369,727,o),
(440,676,c),
(469,701,l),
(390,761,o),
(329,800,o),
(261,800,cs),
(135,800,o),
(98,705,o),
(98,633,cs),
(98,577,l),
(-20,577,l),
(-20,539,l),
(98,539,l),
(98,0,l)
);
}
);
vertWidth = 814;
width = 243;
}
);
},
{
glyphname = "iMatra-gurmukhi.002";
lastChange = "2025-02-09 03:22:24 +0000";
layers = (
{
layerId = master02;
shapes = (
{
closed = 1;
nodes = (
(198,0,l),
(198,494,l),
(283,494,l),
(283,597,l),
(198,597,l),
(198,660,ls),
(198,717,o),
(223,736,o),
(263,736,cs),
(303,736,o),
(328,717,o),
(328,662,c),
(459,662,l),
(459,790,o),
(362,844,o),
(263,844,cs),
(144,844,o),
(65,786,o),
(65,653,cs),
(65,597,l),
(-20,597,l),
(-20,494,l),
(65,494,l),
(65,0,l)
);
}
);
vertWidth = 1130;
width = 263;
},
{
guides = (
{
pos = (406,720);
}
);
layerId = master03;
shapes = (
{
closed = 1;
nodes = (
(145,0,l),
(145,539,l),
(263,539,l),
(263,577,l),
(145,577,l),
(145,652,ls),
(145,732,o),
(184,759,o),
(237,759,cs),
(285,759,o),
(311,738,o),
(324,711,c),
(368,720,l),
(351,763,o),
(314,800,o),
(237,800,cs),
(167,800,o),
(98,760,o),
(98,655,cs),
(98,577,l),
(-20,577,l),
(-20,539,l),
(98,539,l),
(98,0,l)
);
}
);
vertWidth = 814;
width = 243;
}
);
},
{
glyphname = "iiMatra-gurmukhi";
lastChange = "2025-02-11 05:52:34 +0000";
layers = (
{
anchors = (
{
name = gem;
pos = (331,597);
},
{
name = nasal;
pos = (301,732);
}
);
layerId = master02;
shapes = (
{
closed = 1;
nodes = (
(198,0,l),
(198,494,l),
(283,494,l),
(283,597,l),
(198,597,l),
(198,689,ls),
(198,810,o),
(102,868,o),
(0,868,cs),
(-116,868,o),
(-199,805,o),
(-199,689,cs),
(-199,672,l),
(-66,672,l),
(-66,689,ls),
(-66,734,o),
(-40,760,o),
(0,760,cs),
(38,760,o),
(64,734,o),
(64,689,cs),
(64,597,l),
(-20,597,l),
(-20,494,l),
(65,494,l),
(65,0,l)
);
}
);
vertWidth = 1130;
width = 263;
},
{
anchors = (
{
name = gem;
pos = (192,679);
},
{
name = nasal;
pos = (225,728);
}
);
layerId = master03;
shapes = (
{
closed = 1;
nodes = (
(145,0,l),
(145,539,l),
(263,539,l),
(263,577,l),
(145,577,l),
(145,679,ls),
(145,779,o),
(76,828,o),
(-1,828,cs),
(-81,828,o),
(-147,779,o),
(-147,684,cs),
(-147,680,l),
(-100,680,l),
(-100,684,ls),
(-100,760,o),
(-53,787,o),
(-1,787,cs),
(51,787,o),
(98,754,o),
(98,679,cs),
(98,577,l),
(-20,577,l),
(-20,539,l),
(98,539,l),
(98,0,l)
);
}
);
vertWidth = 814;
width = 243;
}
);
unicode = 2624;
},
{
glyphname = "iiMatra-gurmukhi.001";
lastChange = "2025-04-25 14:41:58 +0000";
layers = (
{
anchors = (
{
name = belowvowel;
pos = (-307,0);
},
{
name = gem;
pos = (321,597);
},
{
name = nasal;
pos = (358,824);
}
);
layerId = master02;
shapes = (
{
closed = 1;
nodes = (
(188,0,l),
(188,494,l),
(273,494,l),
(273,597,l),
(188,597,l),
(188,630,ls),
(188,768,o),
(66,837,o),
(-62,837,cs),
(-169,837,o),
(-249,795,o),
(-301,743,c),
(-191,683,l),
(-163,709,o),
(-122,731,o),
(-64,731,cs),
(12,731,o),
(54,692,o),
(54,630,cs),
(54,597,l),
(-30,597,l),
(-30,494,l),
(55,494,l),
(55,0,l)
);
}
);
vertWidth = 1130;
width = 253;
},
{
anchors = (
{
name = belowvowel;
pos = (-282,0);
},
{
name = gem;
pos = (183,679);
},
{
name = nasal;
pos = (212,728);
}
);
layerId = master03;
shapes = (
{
closed = 1;
nodes = (
(136,0,l),
(136,539,l),
(254,539,l),
(254,577,l),
(136,577,l),
(136,603,ls),
(136,739,o),
(21,795,o),
(-83,795,cs),
(-168,795,o),
(-220,757,o),
(-252,713,c),
(-205,704,l),
(-180,733,o),
(-142,755,o),
(-83,755,cs),
(-6,755,o),
(89,714,o),
(89,603,cs),
(89,577,l),
(-29,577,l),
(-29,539,l),
(89,539,l),
(89,0,l)
);
}
);
vertWidth = 814;
width = 234;
}
);
},
{
glyphname = "iiMatra-gurmukhi.001.alt";
lastChange = "2025-04-24 13:15:41 +0000";
layers = (
{
layerId = master02;
shapes = (
{
closed = 1;
nodes = (
(198,0,l),
(198,494,l),
(283,494,l),
(283,597,l),
(198,597,l),
(198,689,ls),
(198,810,o),
(102,868,o),
(0,868,cs),
(-116,868,o),
(-167,824,o),
(-190,791,c),
(-93,725,l),
(-82,734,o),
(-40,760,o),
(0,760,cs),
(38,760,o),
(64,734,o),
(64,689,cs),
(64,597,l),
(-20,597,l),
(-20,494,l),
(65,494,l),
(65,0,l)
);
}
);
vertWidth = 1130;
width = 263;
},
{
layerId = master03;
shapes = (
{
closed = 1;
nodes = (
(145,0,l),
(145,539,l),
(263,539,l),
(263,577,l),
(145,577,l),
(145,679,ls),
(145,779,o),
(76,828,o),
(-35,828,cs),
(-149,828,o),
(-180,769,o),
(-181,764,c),
(-148,741,l),
(-140,751,o),
(-121,787,o),
(-35,787,cs),
(51,787,o),
(98,754,o),
(98,679,cs),
(98,577,l),
(-20,577,l),
(-20,539,l),
(98,539,l),
(98,0,l)
);
}
);
vertWidth = 814;
width = 243;
}
);
},
{
glyphname = "iiMatra_tippi-gurmukhi";
lastChange = "2025-01-08 18:23:52 +0000";
layers = (
{
layerId = master02;
shapes = (
{
pos = (-173,24);
ref = "tippi-gurmukhi";
},
{
closed = 1;
nodes = (
(198,0,l),
(198,494,l),
(283,494,l),
(283,597,l),
(198,597,l),
(198,689,ls),
(198,810,o),
(71,889,o),
(-42,889,cs),
(-155,889,o),
(-244,829,o),
(-244,753,c),
(-151,710,l),
(-148,734,o),
(-134,790,o),
(-42,790,cs),
(50,790,o),
(64,734,o),
(64,689,cs),
(64,597,l),
(-20,597,l),
(-20,494,l),
(65,494,l),
(65,0,l)
);
}
);
width = 263;
},
{
layerId = master03;
shapes = (
{
pos = (-161,-13);
ref = "tippi-gurmukhi";
},
{
closed = 1;
nodes = (
(145,0,l),
(145,539,l),
(263,539,l),
(263,577,l),
(145,577,l),
(145,679,ls),
(145,779,o),
(34,828,o),
(-43,828,cs),
(-123,828,o),
(-231,779,o),
(-216,695,c),
(-185,682,l),
(-184,760,o),
(-95,787,o),
(-43,787,cs),
(9,787,o),
(98,754,o),
(98,679,cs),
(98,577,l),
(-20,577,l),
(-20,539,l),
(98,539,l),
(98,0,l)
);
}
);
width = 243;
}
);
},
{
glyphname = "a-gurmukhi";
lastChange = "2025-02-11 02:44:43 +0000";
layers = (
{
anchors = (
{
name = abovevowel;
pos = (609,597);
},
{
name = belowvowel;
pos = (407,0);
},
{
name = gem;
pos = (845,660);
},
{
name = joint;
pos = (609,0);
},
{
name = nasal;
pos = (676,732);
},
{
name = nukta;
pos = (162,16);
}
);
layerId = master02;
shapes = (
{
closed = 1;
nodes = (
(742,0,l),
(742,494,l),
(827,494,l),
(827,597,l),
(609,597,l),
(609,448,l),
(575,426,o),
(530,393,o),
(490,360,c),
(486,413,o),
(480,469,o),
(473,521,c),
(372,562,l),
(326,529,o),
(273,487,o),
(226,443,c),
(216,491,o),
(200,548,o),
(183,597,c),
(-20,597,l),
(-20,494,l),
(82,494,l),
(93,457,o),
(103,401,o),
(106,367,c),
(21,189,l),
(34,157,o),
(60,132,o),
(103,132,cs),
(164,132,o),
(215,169,o),
(229,300,c),
(267,339,o),
(317,381,o),
(357,414,c),
(359,371,o),
(360,337,o),
(360,285,c),
(276,107,l),
(287,76,o),
(318,49,o),
(358,49,cs),
(421,49,o),
(469,81,o),
(483,214,c),
(526,251,o),
(573,287,o),
(609,313,c),
(609,0,l)
);
}
);
vertWidth = 1130;
width = 807;
},
{
anchors = (
{
name = abovevowel;
pos = (556,577);
},
{
name = belowvowel;
pos = (358,0);
},
{
name = gem;
pos = (720,660);
},
{
name = joint;
pos = (556,0);
},
{
name = nasal;
pos = (579,728);
},
{
name = nukta;
pos = (157,30);
}
);
layerId = master03;
shapes = (
{
closed = 1;
nodes = (
(603,0,l),
(603,539,l),
(721,539,l),
(721,577,l),
(556,577,l),
(556,384,l),
(505,346,o),
(443,299,o),
(398,262,c),
(398,318,o),
(386,443,o),
(374,516,c),
(335,529,l),
(288,493,o),
(208,416,o),
(157,361,c),
(154,418,o),
(140,523,o),
(123,577,c),
(-20,577,l),
(-20,539,l),
(87,539,l),
(98,499,o),
(114,382,o),
(114,339,c),
(50,189,l),
(55,172,o),
(69,162,o),
(86,162,cs),
(124,162,o),
(147,216,o),
(157,303,c),
(206,354,o),
(285,428,o),
(336,473,c),
(341,443,o),
(352,354,o),
(352,249,c),
(287,99,l),
(293,83,o),
(305,72,o),
(323,72,cs),
(358,72,o),
(382,120,o),
(393,202,c),
(439,242,o),
(502,289,o),
(556,331,c),
(556,0,l)
);
}
);
vertWidth = 814;
width = 701;
}
);
unicode = 2565;
},
{
glyphname = "oo-gurmukhi";
lastChange = "2025-02-10 18:27:26 +0000";
layers = (
{
anchors = (
{
name = abovevowel;
pos = (315,591);
},
{
name = belowvowel;
pos = (331,0);
},
{
name = gem;
pos = (745,680);
},
{
name = joint;
pos = (276,0);
},
{
name = nasal;
pos = (681,732);
},
{
name = nukta;
pos = (80,-21);
}
);
layerId = master02;
shapes = (
{
closed = 1;
nodes = (
(469,-11,o),
(566,54,o),
(566,165,cs),
(566,248,o),
(522,290,o),
(485,305,c),
(546,338,o),
(600,409,o),
(605,494,c),
(679,494,l),
(679,597,l),
(203,597,l),
(226,690,o),
(281,723,o),
(345,723,cs),
(430,723,o),
(522,706,o),
(522,706,c),
(535,802,l),
(535,802,o),
(451,827,o),
(345,827,cs),
(200,827,o),
(111,765,o),
(69,597,c),
(-30,597,l),
(-30,494,l),
(50,494,l),
(48,464,o),
(46,430,o),
(46,399,cs),
(46,86,o),
(184,-11,o),
(340,-11,cs)
);
},
{
closed = 1;
nodes = (
(254,92,o),
(200,155,o),
(187,263,c),
(340,263,ls),
(397,263,o),
(432,225,o),
(432,175,cs),
(432,123,o),
(393,92,o),
(338,92,cs)
);
},
{
closed = 1;
nodes = (
(176,433,o),
(178,467,o),
(181,494,c),
(469,494,l),
(459,410,o),
(410,361,o),
(321,361,cs),
(177,361,l)
);
}
);
vertWidth = 1130;
width = 619;
},
{
anchors = (
{
name = abovevowel;
pos = (319,577);
},
{
name = belowvowel;
pos = (318,0);
},
{
name = gem;
pos = (659,680);
},
{
name = joint;
pos = (296,0);
},
{
name = nasal;
pos = (602,728);
},
{
name = nukta;
pos = (60,-18);
}
);
layerId = master03;
shapes = (
{
closed = 1;
nodes = (
(422,0,o),
(497,58,o),
(497,156,cs),
(497,231,o),
(456,284,o),
(398,306,c),
(469,330,o),
(540,408,o),
(543,539,c),
(633,539,l),
(633,577,l),
(147,577,l),
(178,683,o),
(240,742,o),
(348,742,cs),
(456,742,o),
(481,723,o),
(481,723,c),
(495,758,l),
(495,758,o),
(471,783,o),
(347,783,cs),
(223,783,o),
(135,719,o),
(96,577,c),
(-30,577,l),
(-30,539,l),
(88,539,l),
(80,492,o),
(76,428,o),
(76,364,cs),
(76,76,o),
(196,0,o),
(319,0,cs)
);
},
{
closed = 1;
nodes = (
(209,41,o),
(136,129,o),
(127,293,c),
(313,293,ls),
(397,293,o),
(450,236,o),
(450,158,cs),
(450,83,o),
(395,41,o),
(322,41,cs)
);
},
{
closed = 1;
nodes = (
(125,419,o),
(130,486,o),
(139,539,c),
(495,539,l),
(491,423,o),
(425,333,o),
(320,333,cs),
(126,333,l)
);
}
);
vertWidth = 814;
width = 583;
}
);
unicode = 2579;
},
{
glyphname = "ka-gurmukhi";
lastChange = "2025-02-11 00:54:19 +0000";
layers = (
{
anchors = (
{
name = abovevowel;
pos = (434,597);
},
{
name = belowvowel;
pos = (296,16);
},
{
name = joint;
pos = (439,4);
},
{
name = nasal;
pos = (501,732);
},
{
name = nukta;
pos = (233,-8);
}
);
layerId = master02;
shapes = (
{
closed = 1;
nodes = (
(572,0,l),
(566,89,o),
(533,176,o),
(496,233,c),
(542,306,o),
(564,392,o),
(567,494,c),
(630,494,l),
(630,597,l),
(-30,597,l),
(-30,494,l),
(434,494,l),
(432,431,o),
(424,384,o),
(410,345,c),
(370,387,o),
(308,423,o),
(233,423,cs),
(107,423,o),
(26,355,o),
(26,252,cs),
(26,148,o),
(107,80,o),
(231,80,cs),
(304,80,o),
(368,106,o),
(409,146,c),
(425,103,o),
(431,48,o),
(439,0,c)
);
},
{
closed = 1;
nodes = (
(195,184,o),
(159,209,o),
(159,252,cs),
(159,289,o),
(183,319,o),
(239,319,cs),
(286,319,o),
(333,293,o),
(369,251,c),
(341,213,o),
(294,184,o),
(241,184,cs)
);
}
);
vertWidth = 1130;
width = 610;
},
{
anchors = (
{
name = abovevowel;
pos = (449,577);
},
{
name = belowvowel;
pos = (283,16);
},
{
name = joint;
pos = (453,0);
},
{
name = nasal;
pos = (473,728);
},
{
name = nukta;
pos = (213,-16);
}
);
layerId = master03;
shapes = (
{
closed = 1;
nodes = (
(500,0,l),
(490,52,o),
(459,134,o),
(419,213,c),
(465,289,o),
(494,441,o),
(496,539,c),
(587,539,l),
(587,577,l),
(-30,577,l),
(-30,539,l),
(449,539,l),
(447,437,o),
(419,311,o),
(396,260,c),
(355,322,o),
(294,386,o),
(203,386,cs),
(106,386,o),
(40,311,o),
(40,226,cs),
(40,133,o),
(117,67,o),
(208,67,cs),
(293,67,o),
(352,123,o),
(391,174,c),
(417,113,o),
(441,48,o),
(453,0,c)
);
},
{
closed = 1;
nodes = (
(141,107,o),
(89,158,o),
(89,226,cs),
(89,287,o),
(134,346,o),
(209,346,cs),
(266,346,o),
(334,295,o),
(373,219,c),
(340,162,o),
(280,107,o),
(213,107,cs)
);
}
);
vertWidth = 814;
width = 567;
}
);
unicode = 2581;
},
{
glyphname = "kha-gurmukhi";
lastChange = "2025-02-11 00:58:34 +0000";
layers = (
{
anchors = (
{
name = abovevowel;
pos = (417,597);
},
{
name = belowvowel;
pos = (294,16);
},
{
name = joint;
pos = (417,0);
},
{
name = nasal;
pos = (483,732);
},
{
name = nukta;
pos = (109,32);
}
);
layerId = master02;
shapes = (
{
closed = 1;
nodes = (
(550,0,l),
(550,494,l),
(635,494,l),
(635,597,l),
(417,597,l),
(417,422,l),
(223,422,l),
(218,503,o),
(181,571,o),
(164,597,c),
(-30,597,l),
(-30,494,l),
(78,494,l),
(86,473,o),
(91,447,o),
(91,410,cs),
(91,350,o),
(74,287,o),
(38,229,c),
(94,130,o),
(192,87,o),
(303,87,cs),
(352,87,o),
(389,96,o),
(417,109,c),
(417,0,l)
);
},
{
closed = 1;
nodes = (
(255,192,o),
(202,209,o),
(180,239,c),
(196,267,o),
(208,297,o),
(215,329,c),
(417,329,l),
(417,221,l),
(390,204,o),
(355,192,o),
(309,192,cs)
);
}
);
vertWidth = 1130;
width = 615;
},
{
anchors = (
{
name = abovevowel;
pos = (427,577);
},
{
name = belowvowel;
pos = (264,16);
},
{
name = joint;
pos = (427,0);
},
{
name = nasal;
pos = (450,728);
},
{
name = nukta;
pos = (129,40);
}
);
layerId = master03;
shapes = (
{
closed = 1;
nodes = (
(474,0,l),
(474,539,l),
(592,539,l),
(592,577,l),
(427,577,l),
(427,381,l),
(163,381,l),
(167,479,o),
(156,527,o),
(129,577,c),
(-30,577,l),
(-30,539,l),
(98,539,l),
(112,508,o),
(119,474,o),
(119,433,cs),
(119,358,o),
(88,291,o),
(53,238,c),
(88,166,o),
(169,117,o),
(265,117,cs),
(342,117,o),
(394,141,o),
(427,173,c),
(427,0,l)
);
},
{
closed = 1;
nodes = (
(201,157,o),
(131,193,o),
(107,239,c),
(126,269,o),
(144,303,o),
(155,343,c),
(427,343,l),
(427,233,l),
(403,193,o),
(347,157,o),
(268,157,cs)
);
}
);
vertWidth = 814;
width = 572;
}
);
unicode = 2582;
},
{
glyphname = "ga-gurmukhi";
lastChange = "2025-05-02 15:40:44 +0000";
layers = (
{
anchors = (
{
name = abovemn;
pos = (413,749);
},
{
name = abovevowel;
pos = (594,597);
},
{
name = belowmn;
pos = (413,-172);
},
{
name = belowvowel;
pos = (421,0);
},
{
name = joint;
pos = (594,0);
},
{
name = nasal;
pos = (660,732);
},
{
name = nukta;
pos = (43,-36);
}
);
layerId = master02;
shapes = (
{
closed = 1;
nodes = (
(394,-12,o),
(474,48,o),
(474,150,cs),
(474,494,l),
(594,494,l),
(594,0,l),
(727,0,l),
(727,494,l),
(812,494,l),
(812,597,l),
(-20,597,l),
(-20,494,l),
(341,494,l),
(341,385,l),
(217,385,ls),
(112,385,o),
(28,344,o),
(28,219,cs),
(28,79,o),
(140,-12,o),
(276,-12,cs)
);
},
{
closed = 1;
nodes = (
(223,92,o),
(161,139,o),
(161,217,cs),
(161,259,o),
(184,281,o),
(228,281,cs),
(341,281,l),
(341,154,ls),
(341,113,o),
(316,92,o),
(276,92,cs)
);
}
);
vertWidth = 1130;
width = 792;
},
{
anchors = (
{
name = abovemn;
pos = (385,749);
},
{
name = abovevowel;
pos = (563,577);
},
{
name = belowmn;
pos = (385,-172);
},
{
name = belowvowel;
pos = (385,0);
},
{
name = joint;
pos = (563,0);
},
{
name = nasal;
pos = (586,728);
},
{
name = nukta;
pos = (38,-12);
}
);
layerId = master03;
shapes = (
{
closed = 1;
nodes = (
(337,0,o),
(385,40,o),
(385,113,cs),
(385,539,l),
(563,539,l),
(563,0,l),
(610,0,l),
(610,539,l),
(728,539,l),
(728,577,l),
(-20,577,l),
(-20,539,l),
(338,539,l),
(338,364,l),
(182,364,ls),
(94,364,o),
(43,310,o),
(43,227,cs),
(43,94,o),
(146,0,o),
(257,0,cs)
);
},
{
closed = 1;
nodes = (
(177,41,o),
(92,116,o),
(92,225,cs),
(92,290,o),
(128,324,o),
(193,324,cs),
(338,324,l),
(338,115,ls),
(338,62,o),
(306,41,o),
(257,41,cs)
);
}
);
vertWidth = 814;
width = 708;
}
);
unicode = 2583;
},
{
glyphname = "gha-gurmukhi";
lastChange = "2025-02-11 00:01:40 +0000";
layers = (
{
anchors = (
{
name = abovevowel;
pos = (584,597);
},
{
name = belowvowel;
pos = (401,16);
},
{
name = joint;
pos = (584,0);
},
{
name = nasal;
pos = (650,732);
},
{
name = nukta;
pos = (128,16);
}
);
layerId = master02;
shapes = (
{
closed = 1;
nodes = (
(717,0,l),
(717,494,l),
(802,494,l),
(802,597,l),
(584,597,l),
(584,221,l),
(577,211,o),
(558,197,o),
(526,197,cs),
(493,197,o),
(462,217,o),
(459,246,c),
(459,494,l),
(332,494,l),
(332,243,l),
(328,209,o),
(291,192,o),
(253,192,cs),
(216,192,o),
(190,214,o),
(179,239,c),
(207,281,o),
(223,344,o),
(223,400,cs),
(223,478,o),
(195,553,o),
(173,597,c),
(-30,597,l),
(-30,494,l),
(78,494,l),
(87,467,o),
(90,443,o),
(90,409,cs),
(90,345,o),
(73,287,o),
(37,229,c),
(71,147,o),
(138,88,o),
(245,88,cs),
(317,88,o),
(371,112,o),
(401,153,c),
(430,110,o),
(475,93,o),
(522,93,cs),
(550,93,o),
(570,100,o),
(584,109,c),
(584,0,l)
);
}
);
vertWidth = 1130;
width = 782;
},
{
anchors = (
{
name = abovevowel;
pos = (563,577);
},
{
name = belowvowel;
pos = (352,16);
},
{
name = joint;
pos = (563,0);
},
{
name = nasal;
pos = (586,728);
},
{
name = nukta;
pos = (95,16);
}
);
layerId = master03;
shapes = (
{
closed = 1;
nodes = (
(610,0,l),
(610,539,l),
(728,539,l),
(728,577,l),
(563,577,l),
(563,208,l),
(548,181,o),
(515,165,o),
(476,165,cs),
(426,165,o),
(379,197,o),
(373,234,c),
(373,539,l),
(329,539,l),
(329,234,l),
(324,193,o),
(278,165,o),
(227,165,cs),
(170,165,o),
(127,199,o),
(112,233,c),
(143,293,o),
(165,348,o),
(165,433,cs),
(165,490,o),
(144,545,o),
(126,577,c),
(-30,577,l),
(-30,539,l),
(95,539,l),
(105,515,o),
(117,479,o),
(117,436,cs),
(117,367,o),
(100,304,o),
(59,233,c),
(85,167,o),
(146,124,o),
(226,124,cs),
(284,124,o),
(331,151,o),
(352,188,c),
(374,151,o),
(421,124,o),
(473,124,cs),
(510,124,o),
(541,135,o),
(563,155,c),
(563,0,l)
);
}
);
vertWidth = 814;
width = 708;
}
);
unicode = 2584;
},
{
glyphname = "nga-gurmukhi";
lastChange = "2025-02-11 00:33:44 +0000";
layers = (
{
anchors = (
{
name = abovevowel;
pos = (64,597);
},
{
name = belowvowel;
pos = (285,0);
},
{
name = joint;
pos = (356,13);
},
{
name = nasal;
pos = (130,732);
},
{
name = nukta;
pos = (39,-39);
}
);
layerId = master02;
shapes = (
{
closed = 1;
nodes = (
(488,15,l),
(442,67,l),
(490,100,o),
(542,168,o),
(542,244,cs),
(542,358,o),
(472,422,o),
(330,422,cs),
(195,422,l),
(195,494,l),
(595,494,l),
(595,597,l),
(-30,597,l),
(-30,494,l),
(64,494,l),
(64,318,l),
(326,318,ls),
(375,318,o),
(408,295,o),
(408,242,cs),
(408,213,o),
(393,183,o),
(370,160,c),
(333,209,o),
(272,264,o),
(184,264,cs),
(91,264,o),
(39,209,o),
(39,144,cs),
(39,67,o),
(105,5,o),
(226,5,cs),
(273,5,o),
(313,12,o),
(346,24,c),
(398,-55,l)
);
},
{
closed = 1;
nodes = (
(187,105,o),
(161,120,o),
(161,144,cs),
(161,162,o),
(173,174,o),
(196,174,cs),
(226,174,o),
(256,152,o),
(285,116,c),
(265,108,o),
(245,105,o),
(226,105,cs)
);
}
);
vertWidth = 1130;
width = 575;
},
{
anchors = (
{
name = abovevowel;
pos = (82,577);
},
{
name = belowvowel;
pos = (273,0);
},
{
name = joint;
pos = (382,4);
},
{
name = nasal;
pos = (105,728);
},
{
name = nukta;
pos = (60,-4);
}
);
layerId = master03;
shapes = (
{
closed = 1;
nodes = (
(432,6,l),
(383,73,l),
(432,106,o),
(485,165,o),
(485,254,cs),
(485,343,o),
(429,410,o),
(310,410,cs),
(129,410,l),
(129,539,l),
(559,539,l),
(559,577,l),
(-30,577,l),
(-30,539,l),
(82,539,l),
(82,370,l),
(309,370,ls),
(391,370,o),
(436,328,o),
(436,255,cs),
(436,192,o),
(402,140,o),
(362,111,c),
(309,192,o),
(251,247,o),
(168,247,cs),
(105,247,o),
(59,208,o),
(59,152,cs),
(59,79,o),
(125,29,o),
(230,29,cs),
(282,29,o),
(318,41,o),
(350,55,c),
(392,-20,l)
);
},
{
closed = 1;
nodes = (
(151,69,o),
(107,105,o),
(107,150,cs),
(107,183,o),
(131,207,o),
(170,207,cs),
(236,207,o),
(288,153,o),
(328,89,c),
(304,78,o),
(275,69,o),
(234,69,cs)
);
}
);
vertWidth = 814;
width = 539;
}
);
unicode = 2585;
},
{
glyphname = "ca-gurmukhi";
lastChange = "2025-02-11 00:34:06 +0000";
layers = (
{
anchors = (
{
name = abovevowel;
pos = (434,597);
},
{
name = belowvowel;
pos = (342,0);
},
{
name = joint;
pos = (304,0);
},
{
name = nasal;
pos = (500,732);
},
{
name = nukta;
pos = (98,0);
}
);
layerId = master02;
shapes = (
{
closed = 1;
nodes = (
(500,-12,o),
(566,58,o),
(566,186,cs),
(566,494,l),
(654,494,l),
(654,597,l),
(-20,597,l),
(-20,494,l),
(434,494,l),
(434,362,l),
(218,362,l),
(218,425,l),
(204,437,o),
(180,445,o),
(151,445,cs),
(76,445,o),
(18,395,o),
(18,333,cs),
(18,282,o),
(52,260,o),
(87,253,c),
(98,70,o),
(223,-12,o),
(367,-12,cs)
);
},
{
closed = 1;
nodes = (
(286,92,o),
(221,155,o),
(218,259,c),
(434,259,l),
(434,186,ls),
(434,131,o),
(431,92,o),
(366,92,cs)
);
}
);
vertWidth = 1130;
width = 634;
},
{
anchors = (
{
name = abovevowel;
pos = (449,577);
},
{
name = belowvowel;
pos = (311,0);
},
{
name = joint;
pos = (314,0);
},
{
name = nasal;
pos = (472,728);
},
{
name = nukta;
pos = (96,3);
}
);
layerId = master03;
shapes = (
{
closed = 1;
nodes = (
(443,-5,o),
(496,48,o),
(496,170,c),
(496,539,l),
(619,539,l),
(619,577,l),
(-20,577,l),
(-20,539,l),
(449,539,l),
(449,336,l),
(138,336,l),
(138,403,l),
(129,407,o),
(119,410,o),
(105,410,cs),
(67,410,o),
(30,378,o),
(30,342,cs),
(30,309,o),
(54,295,o),
(89,295,c),
(95,92,o),
(195,-5,o),
(338,-5,cs)
);
},
{
closed = 1;
nodes = (
(230,36,o),
(144,116,o),
(138,296,c),
(449,296,l),
(449,174,ls),
(449,79,o),
(419,36,o),
(340,36,cs)
);
}
);
vertWidth = 814;
width = 599;
}
);
unicode = 2586;
},
{
glyphname = "cha-gurmukhi";
lastChange = "2025-02-11 00:34:22 +0000";
layers = (
{
anchors = (
{
name = abovevowel;
pos = (400,597);
},
{
name = belowvowel;
pos = (310,0);
},
{
name = joint;
pos = (261,0);
},
{
name = nasal;
pos = (466,732);
},
{
name = nukta;
pos = (42,0);
}
);
layerId = master02;
shapes = (
{
closed = 1;
nodes = (
(42,-60,o),
(573,-68,o),
(573,140,cs),
(573,219,o),
(521,274,o),
(402,274,cs),
(212,274,l),
(180,276,o),
(173,295,o),
(173,309,cs),
(173,328,o),
(187,339,o),
(208,339,cs),
(531,339,l),
(531,494,l),
(623,494,l),
(623,597,l),
(-20,597,l),
(-20,494,l),
(400,494,l),
(400,438,l),
(184,438,ls),
(96,438,o),
(40,391,o),
(40,319,cs),
(40,275,o),
(65,244,o),
(93,229,c),
(61,211,o),
(42,175,o),
(42,136,cs)
);
},
{
closed = 1;
nodes = (
(215,78,o),
(167,87,o),
(167,142,cs),
(167,168,o),
(191,178,o),
(217,178,cs),
(255,178,o),
(281,142,o),
(281,72,c)
);
},
{
closed = 1;
nodes = (
(363,136,o),
(353,183,o),
(325,189,c),
(388,189,ls),
(427,189,o),
(449,165,o),
(449,138,cs),
(449,99,o),
(420,79,o),
(363,73,c)
);
}
);
vertWidth = 1130;
width = 603;
},
{
anchors = (
{
name = abovevowel;
pos = (436,577);
},
{
name = belowvowel;
pos = (292,0);
},
{
name = joint;
pos = (290,0);
},
{
name = nasal;
pos = (459,728);
},
{
name = nukta;
pos = (58,0);
}
);
layerId = master03;
shapes = (
{
closed = 1;
nodes = (
(58,-41,o),
(515,-50,o),
(515,118,cs),
(515,194,o),
(456,239,o),
(368,239,cs),
(184,239,l),
(133,242,o),
(110,271,o),
(110,308,cs),
(110,345,o),
(134,372,o),
(192,372,cs),
(483,372,l),
(483,539,l),
(593,539,l),
(593,577,l),
(-20,577,l),
(-20,539,l),
(436,539,l),
(436,412,l),
(191,412,ls),
(115,412,o),
(61,378,o),
(61,309,cs),
(61,262,o),
(90,231,o),
(126,219,c),
(89,207,o),
(58,171,o),
(58,123,cs)
);
},
{
closed = 1;
nodes = (
(225,34,o),
(106,57,o),
(106,126,cs),
(106,175,o),
(146,199,o),
(179,199,cs),
(285,199,o),
(308,34,o),
(269,34,c)
);
},
{
closed = 1;
nodes = (
(356,34,o),
(324,200,o),
(268,200,c),
(369,202,ls),
(433,203,o),
(467,162,o),
(467,121,cs),
(467,63,o),
(406,43,o),
(314,34,c)
);
}
);
vertWidth = 814;
width = 573;
}
);
unicode = 2587;
},
{
glyphname = "ja-gurmukhi";
lastChange = "2025-02-11 00:46:07 +0000";
layers = (
{
anchors = (
{
name = abovevowel;
pos = (428,597);
},
{
name = belowvowel;
pos = (330,0);
},
{
name = joint;
pos = (428,0);
},
{
name = nasal;
pos = (494,732);
},
{
name = nukta;
pos = (331,116);
}
);
layerId = master02;
shapes = (
{
closed = 1;
nodes = (
(231,0,l),
(231,232,l),
(428,232,l),
(428,0,l),
(561,0,l),
(561,494,l),
(646,494,l),
(646,597,l),
(-20,597,l),
(-20,494,l),
(428,494,l),
(428,336,l),
(231,336,l),
(231,399,l),
(218,410,o),
(194,419,o),
(161,419,cs),
(92,419,o),
(29,374,o),
(29,305,cs),
(29,254,o),
(68,232,o),
(98,227,c),
(98,0,l)
);
}
);
vertWidth = 1130;
width = 626;
},
{
anchors = (
{
name = abovevowel;
pos = (440,577);
},
{
name = belowvowel;
pos = (299,0);
},
{
name = joint;
pos = (440,0);
},
{
name = nasal;
pos = (463,728);
},
{
name = nukta;
pos = (299,144);
}
);
layerId = master03;
shapes = (
{
closed = 1;
nodes = (
(158,0,l),
(158,288,l),
(440,288,l),
(440,0,l),
(487,0,l),
(487,539,l),
(605,539,l),
(605,577,l),
(-20,577,l),
(-20,539,l),
(440,539,l),
(440,328,l),
(158,328,l),
(158,394,l),
(149,398,o),
(139,401,o),
(125,401,cs),
(87,401,o),
(50,369,o),
(50,333,cs),
(50,299,o),
(76,286,o),
(111,286,c),
(111,0,l)
);
}
);
vertWidth = 814;
width = 585;
}
);
unicode = 2588;
},
{
glyphname = "jha-gurmukhi";
lastChange = "2025-02-11 00:34:46 +0000";
layers = (
{
anchors = (
{
name = abovevowel;
pos = (392,597);
},
{
name = belowvowel;
pos = (290,-60);
},
{
name = joint;
pos = (231,-83);
},
{
name = nasal;
pos = (458,732);
},
{
name = nukta;
pos = (536,0);
}
);
layerId = master02;
shapes = (
{
closed = 1;
nodes = (
(359,-86,l),
(304,9,l),
(442,16,o),
(536,80,o),
(536,194,cs),
(536,262,o),
(497,322,o),
(431,348,c),
(475,378,o),
(515,428,o),
(528,494,c),
(603,494,l),
(603,597,l),
(-40,597,l),
(-40,494,l),
(52,494,l),
(65,440,o),
(95,399,o),
(122,376,c),
(96,372,o),
(70,366,o),
(47,360,c),
(73,263,l),
(122,276,o),
(197,293,o),
(267,293,cs),
(356,293,o),
(403,256,o),
(403,198,cs),
(403,149,o),
(359,110,o),
(271,109,c),
(271,109,o),
(250,109,o),
(236,110,c),
(169,197,l),
(158,199,o),
(154,199,o),
(140,199,cs),
(100,199,o),
(59,170,o),
(59,118,cs),
(59,61,o),
(116,14,o),
(192,7,c),
(251,-128,l)
);
},
{
closed = 1;
nodes = (
(244,391,o),
(196,427,o),
(181,494,c),
(392,494,l),
(376,427,o),
(334,391,o),
(290,391,cs)
);
}
);
vertWidth = 1130;
width = 573;
},
{
anchors = (
{
name = abovevowel;
pos = (432,577);
},
{
name = belowvowel;
pos = (272,-40);
},
{
name = joint;
pos = (231,-55);
},
{
name = nasal;
pos = (455,728);
},
{
name = nukta;
pos = (470,0);
}
);
layerId = master03;
shapes = (
{
closed = 1;
nodes = (
(280,-55,l),
(219,43,l),
(332,33,o),
(470,75,o),
(470,204,cs),
(470,284,o),
(414,336,o),
(350,355,c),
(399,376,o),
(465,436,o),
(481,539,c),
(570,539,l),
(570,577,l),
(-40,577,l),
(-40,539,l),
(59,539,l),
(75,452,o),
(124,395,o),
(167,369,c),
(139,366,o),
(91,357,o),
(64,351,c),
(74,311,l),
(107,320,o),
(169,334,o),
(229,334,cs),
(353,334,o),
(421,280,o),
(421,206,cs),
(421,123,o),
(340,83,o),
(245,83,cs),
(239,83,o),
(216,83,o),
(199,87,c),
(138,185,l),
(127,187,o),
(123,187,o),
(119,187,cs),
(94,187,o),
(70,170,o),
(70,141,cs),
(70,93,o),
(121,58,o),
(171,48,c),
(239,-75,l)
);
},
{
closed = 1;
nodes = (
(193,377,o),
(132,439,o),
(108,539,c),
(432,539,l),
(409,439,o),
(350,377,o),
(262,374,c)
);
}
);
vertWidth = 814;
width = 540;
}
);
unicode = 2589;
},
{
glyphname = "nya-gurmukhi";
lastChange = "2025-02-11 00:35:13 +0000";
layers = (
{
anchors = (
{
name = abovevowel;
pos = (386,597);
},
{
name = belowvowel;
pos = (318,0);
},
{
name = joint;
pos = (306,0);
},
{
name = nasal;
pos = (452,732);
},
{
name = nukta;
pos = (92,0);
}
);
layerId = master02;
shapes = (
{
closed = 1;
nodes = (
(432,-12,o),
(491,-2,o),
(527,19,c),
(491,111,l),
(463,100,o),
(421,92,o),
(376,92,cs),
(317,92,o),
(287,112,o),
(287,144,cs),
(287,150,o),
(287,155,o),
(289,159,c),
(499,159,l),
(499,256,l),
(201,256,ls),
(173,256,o),
(160,268,o),
(160,290,cs),
(160,309,o),
(173,324,o),
(201,324,cs),
(517,324,l),
(517,494,l),
(597,494,l),
(597,597,l),
(-30,597,l),
(-30,494,l),
(54,494,l),
(58,455,o),
(74,425,o),
(101,404,c),
(56,385,o),
(29,347,o),
(29,294,cs),
(29,216,o),
(81,169,o),
(161,165,c),
(157,155,o),
(155,143,o),
(155,131,cs),
(155,48,o),
(223,-12,o),
(376,-12,cs)
);
},
{
closed = 1;
nodes = (
(210,421,o),
(192,455,o),
(187,494,c),
(386,494,l),
(386,421,l),
(242,421,ls)
);
}
);
vertWidth = 1130;
width = 577;
},
{
anchors = (
{
name = abovevowel;
pos = (435,577);
},
{
name = belowvowel;
pos = (307,0);
},
{
name = joint;
pos = (318,0);
},
{
name = nasal;
pos = (458,728);
},
{
name = nukta;
pos = (107,0);
}
);
layerId = master03;
shapes = (
{
closed = 1;
nodes = (
(411,0,o),
(464,21,o),
(488,38,c),
(469,71,l),
(444,57,o),
(403,40,o),
(344,40,cs),
(267,40,o),
(211,68,o),
(211,133,cs),
(211,157,o),
(221,176,o),
(231,187,c),
(474,187,l),
(474,227,l),
(184,227,ls),
(131,227,o),
(100,251,o),
(100,298,cs),
(100,338,o),
(130,366,o),
(181,366,cs),
(482,366,l),
(482,539,l),
(590,539,l),
(590,577,l),
(-30,577,l),
(-30,539,l),
(71,539,l),
(77,476,o),
(106,425,o),
(144,401,c),
(107,395,o),
(51,361,o),
(51,298,cs),
(51,225,o),
(101,188,o),
(179,187,c),
(170,174,o),
(162,155,o),
(162,129,cs),
(162,50,o),
(228,0,o),
(342,0,cs)
);
},
{
closed = 1;
nodes = (
(168,409,o),
(126,470,o),
(119,539,c),
(435,539,l),
(435,406,l),
(221,406,l)
);
}
);
vertWidth = 814;
width = 570;
}
);
unicode = 2590;
},
{
glyphname = "tta-gurmukhi";
lastChange = "2025-02-11 00:35:50 +0000";
layers = (
{
anchors = (
{
name = abovevowel;
pos = (347,597);
},
{
name = belowvowel;
pos = (317,0);
},
{
name = joint;
pos = (278,0);
},
{
name = nasal;
pos = (413,732);
},
{
name = nukta;
pos = (83,16);
}
);
layerId = master02;
shapes = (
{
closed = 1;
nodes = (
(434,-6,o),
(498,22,o),
(532,47,c),
(481,135,l),
(458,121,o),
(408,100,o),
(348,100,cs),
(275,100,o),
(194,134,o),
(159,202,c),
(193,263,o),
(260,297,o),
(351,297,cs),
(478,297,l),
(478,494,l),
(569,494,l),
(569,597,l),
(-20,597,l),
(-20,494,l),
(347,494,l),
(347,403,l),
(202,403,o),
(78,350,o),
(17,202,c),
(71,67,o),
(200,-6,o),
(344,-6,cs)
);
}
);
vertWidth = 1130;
width = 549;
},
{
anchors = (
{
name = abovevowel;
pos = (405,577);
},
{
name = belowvowel;
pos = (304,0);
},
{
name = joint;
pos = (301,0);
},
{
name = nasal;
pos = (428,728);
},
{
name = nukta;
pos = (65,16);
}
);
layerId = master03;
shapes = (
{
closed = 1;
nodes = (
(415,0,o),
(466,35,o),
(492,61,c),
(467,92,l),
(430,59,o),
(385,41,o),
(324,41,cs),
(225,41,o),
(138,102,o),
(89,200,c),
(148,306,o),
(228,353,o),
(366,353,cs),
(452,353,l),
(452,539,l),
(563,539,l),
(563,577,l),
(-20,577,l),
(-20,539,l),
(405,539,l),
(405,394,l),
(198,394,o),
(102,330,o),
(38,200,c),
(90,74,o),
(203,0,o),
(325,0,cs)
);
}
);
vertWidth = 814;
width = 543;
}
);
unicode = 2591;
},
{
glyphname = "ttha-gurmukhi";
lastChange = "2025-02-11 00:36:24 +0000";
layers = (
{
anchors = (
{
name = abovevowel;
pos = (245,597);
},
{
name = belowvowel;
pos = (309,-17);
},
{
name = joint;
pos = (243,0);
},
{
name = nasal;
pos = (311,732);
},
{
name = nukta;
pos = (33,0);
}
);
layerId = master02;
shapes = (
{
closed = 1;
nodes = (
(457,-17,o),
(584,49,o),
(584,186,cs),
(584,309,o),
(480,379,o),
(376,413,c),
(376,494,l),
(635,494,l),
(635,597,l),
(-20,597,l),
(-20,494,l),
(245,494,l),
(245,413,l),
(124,373,o),
(33,308,o),
(33,188,cs),
(33,55,o),
(150,-17,o),
(305,-17,cs)
);
},
{
closed = 1;
nodes = (
(230,88,o),
(166,122,o),
(166,189,cs),
(166,256,o),
(228,297,o),
(309,314,c),
(382,298,o),
(451,253,o),
(451,189,cs),
(451,123,o),
(395,88,o),
(309,88,cs)
);
}
);
vertWidth = 1130;
width = 615;
},
{
anchors = (
{
name = abovevowel;
pos = (259,577);
},
{
name = belowvowel;
pos = (283,0);
},
{
name = joint;
pos = (259,0);
},
{
name = nasal;
pos = (282,728);
},
{
name = nukta;
pos = (41,0);
}
);
layerId = master03;
shapes = (
{
closed = 1;
nodes = (
(396,-2,o),
(523,55,o),
(523,187,cs),
(523,310,o),
(421,382,o),
(305,412,c),
(305,539,l),
(586,539,l),
(586,577,l),
(-20,577,l),
(-20,539,l),
(259,539,l),
(259,412,l),
(149,386,o),
(41,320,o),
(41,188,cs),
(41,63,o),
(153,-2,o),
(280,-2,cs)
);
},
{
closed = 1;
nodes = (
(176,39,o),
(90,91,o),
(90,188,cs),
(90,298,o),
(194,361,o),
(282,374,c),
(369,355,o),
(474,298,o),
(474,188,cs),
(474,91,o),
(381,39,o),
(284,39,cs)
);
}
);
vertWidth = 814;
width = 566;
}
);
unicode = 2592;
},
{
glyphname = "dda-gurmukhi";
lastChange = "2025-02-10 23:17:28 +0000";
layers = (
{
anchors = (
{
name = abovevowel;
pos = (388,596);
},
{
name = belowvowel;
pos = (277,0);
},
{
name = joint;
pos = (326,39);
},
{
name = nasal;
pos = (454,732);
},
{
name = nukta;
pos = (569,33);
}
);
layerId = master02;
shapes = (
{
closed = 1;
nodes = (
(406,-17,o),
(535,54,o),
(535,191,cs),
(535,259,o),
(499,312,o),
(445,345,c),
(485,380,o),
(516,432,o),
(526,494,c),
(599,494,l),
(599,597,l),
(-20,597,l),
(-20,494,l),
(388,494,l),
(379,455,o),
(357,414,o),
(332,400,c),
(86,400,l),
(78,388,o),
(70,371,o),
(70,354,cs),
(70,313,o),
(99,286,o),
(198,286,cs),
(258,286,o),
(299,291,o),
(332,297,c),
(366,284,o),
(402,249,o),
(402,198,cs),
(402,173,o),
(394,152,o),
(381,135,c),
(338,192,o),
(265,246,o),
(163,246,cs),
(79,246,o),
(26,200,o),
(26,130,cs),
(26,41,o),
(129,-17,o),
(267,-17,cs)
);
},
{
closed = 1;
nodes = (
(198,83,o),
(158,101,o),
(158,124,cs),
(158,142,o),
(172,151,o),
(193,151,cs),
(230,151,o),
(264,133,o),
(299,88,c),
(284,84,o),
(268,83,o),
(252,83,cs)
);
}
);
vertWidth = 1130;
width = 569;
},
{
anchors = (
{
name = abovevowel;
pos = (419,577);
},
{
name = belowvowel;
pos = (255,-2);
},
{
name = joint;
pos = (335,30);
},
{
name = nasal;
pos = (442,728);
},
{
name = nukta;
pos = (496,18);
}
);
layerId = master03;
shapes = (
{
closed = 1;
nodes = (
(366,-2,o),
(475,62,o),
(475,181,cs),
(475,253,o),
(436,310,o),
(378,341,c),
(424,380,o),
(464,454,o),
(467,539,c),
(566,539,l),
(566,577,l),
(-20,577,l),
(-20,539,l),
(419,539,l),
(416,464,o),
(375,393,o),
(342,364,c),
(94,364,l),
(91,360,o),
(88,353,o),
(88,346,cs),
(88,321,o),
(113,308,o),
(179,308,cs),
(245,308,o),
(293,313,o),
(331,322,c),
(387,299,o),
(426,249,o),
(426,185,cs),
(426,136,o),
(402,98,o),
(365,75,c),
(325,136,o),
(259,221,o),
(145,221,cs),
(73,221,o),
(35,176,o),
(35,125,cs),
(35,49,o),
(113,-2,o),
(241,-2,cs)
);
},
{
closed = 1;
nodes = (
(145,39,o),
(84,76,o),
(84,125,cs),
(84,154,o),
(106,181,o),
(147,181,cs),
(239,181,o),
(293,107,o),
(329,53,c),
(304,44,o),
(271,39,o),
(244,39,cs)
);
}
);
vertWidth = 814;
width = 536;
}
);
unicode = 2593;
},
{
glyphname = "ddha-gurmukhi";
lastChange = "2025-02-11 00:20:41 +0000";
layers = (
{
anchors = (
{
name = abovevowel;
pos = (426,596);
},
{
name = belowvowel;
pos = (364,0);
},
{
name = joint;
pos = (184,57);
},
{
name = nasal;
pos = (492,732);
},
{
name = nukta;
pos = (102,0);
}
);
layerId = master02;
shapes = (
{
closed = 1;
nodes = (
(511,-17,o),
(583,39,o),
(583,117,cs),
(583,183,o),
(542,239,o),
(432,239,cs),
(362,239,o),
(292,205,o),
(246,155,c),
(220,183,o),
(201,227,o),
(197,285,c),
(554,285,l),
(554,494,l),
(639,494,l),
(639,597,l),
(-20,597,l),
(-20,494,l),
(426,494,l),
(426,389,l),
(196,389,l),
(196,440,l),
(184,449,o),
(164,455,o),
(134,455,cs),
(66,455,o),
(12,408,o),
(12,350,cs),
(12,306,o),
(36,283,o),
(75,279,c),
(93,68,o),
(251,-17,o),
(396,-17,cs)
);
},
{
closed = 1;
nodes = (
(364,82,o),
(343,89,o),
(324,98,c),
(357,131,o),
(388,144,o),
(420,144,cs),
(446,144,o),
(458,131,o),
(458,117,cs),
(458,98,o),
(440,82,o),
(397,82,cs)
);
}
);
vertWidth = 1130;
width = 619;
},
{
anchors = (
{
name = abovevowel;
pos = (456,577);
},
{
name = belowvowel;
pos = (349,-2);
},
{
name = joint;
pos = (198,60);
},
{
name = nasal;
pos = (479,728);
},
{
name = nukta;
pos = (111,0);
}
);
layerId = master03;
shapes = (
{
closed = 1;
nodes = (
(470,-2,o),
(536,41,o),
(536,114,cs),
(536,174,o),
(488,216,o),
(418,216,cs),
(332,216,o),
(267,164,o),
(219,98,c),
(171,142,o),
(137,227,o),
(132,317,c),
(503,317,l),
(503,539,l),
(615,539,l),
(615,577,l),
(-20,577,l),
(-20,539,l),
(456,539,l),
(456,357,l),
(130,357,l),
(130,429,l),
(125,432,o),
(112,436,o),
(98,436,cs),
(60,436,o),
(26,404,o),
(26,365,cs),
(26,340,o),
(45,319,o),
(84,317,c),
(104,78,o),
(243,-2,o),
(376,-2,cs)
);
},
{
closed = 1;
nodes = (
(331,38,o),
(286,49,o),
(254,69,c),
(299,130,o),
(346,176,o),
(415,176,cs),
(459,176,o),
(489,151,o),
(489,113,cs),
(489,68,o),
(445,38,o),
(377,38,cs)
);
}
);
vertWidth = 814;
width = 595;
}
);
unicode = 2594;
},
{
glyphname = "nna-gurmukhi";
lastChange = "2025-03-14 03:21:16 +0000";
layers = (
{
anchors = (
{
name = abovevowel;
pos = (222,597);
},
{
name = belowvowel;
pos = (344,0);
},
{
name = joint;
pos = (258,0);
},
{
name = nasal;
pos = (286,732);
},
{
name = nukta;
pos = (61,0);
}
);
layerId = master02;
shapes = (
{
closed = 1;
nodes = (
(449,-12,o),
(521,17,o),
(562,46,c),
(516,136,l),
(472,111,o),
(411,92,o),
(350,92,cs),
(242,92,o),
(172,141,o),
(148,183,c),
(159,209,o),
(189,236,o),
(222,236,cs),
(267,236,o),
(278,216,o),
(299,184,c),
(398,184,l),
(438,311,l),
(475,301,o),
(517,293,o),
(527,294,c),
(538,398,l),
(468,407,o),
(354,446,o),
(361,495,c),
(607,494,l),
(607,597,l),
(-20,597,l),
(-20,494,l),
(215,494,l),
(215,434,o),
(266,390,o),
(331,360,c),
(314,311,l),
(299,321,o),
(262,340,o),
(215,340,cs),
(142,340,o),
(54,299,o),
(11,180,c),
(64,62,o),
(187,-12,o),
(348,-12,cs)
);
}
);
vertWidth = 1130;
width = 587;
},
{
anchors = (
{
name = abovevowel;
pos = (260,577);
},
{
name = belowvowel;
pos = (312,0);
},
{
name = joint;
pos = (283,0);
},
{
name = nasal;
pos = (283,728);
},
{
name = nukta;
pos = (74,0);
}
);
layerId = master03;
shapes = (
{
closed = 1;
nodes = (
(404,-3,o),
(478,30,o),
(517,68,c),
(490,99,l),
(443,60,o),
(382,38,o),
(312,38,cs),
(192,38,o),
(113,106,o),
(82,162,c),
(106,212,o),
(153,269,o),
(218,269,cs),
(278,269,o),
(321,231,o),
(337,194,c),
(380,194,l),
(413,351,l),
(440,340,o),
(483,328,o),
(490,334,c),
(497,374,l),
(392,386,o),
(315,468,o),
(318,539,c),
(589,539,l),
(589,577,l),
(-20,577,l),
(-20,539,l),
(262,539,l),
(262,459,o),
(324,397,o),
(375,368,c),
(350,244,l),
(326,279,o),
(281,310,o),
(219,310,cs),
(134,310,o),
(74,256,o),
(31,162,c),
(78,62,o),
(181,-3,o),
(312,-3,cs)
);
}
);
vertWidth = 814;
width = 569;
}
);
unicode = 2595;
},
{
glyphname = "ta-gurmukhi";
lastChange = "2025-02-10 23:14:13 +0000";
layers = (
{
anchors = (
{
name = abovevowel;
pos = (363,596);
},
{
name = belowvowel;
pos = (240,0);
},
{
name = joint;
pos = (178,0);
},
{
name = nasal;
pos = (429,732);
},
{
name = nukta;
pos = (535,43);
}
);
layerId = master02;
shapes = (
{
closed = 1;
nodes = (
(394,-9,o),
(497,65,o),
(497,186,cs),
(497,240,o),
(470,291,o),
(431,322,c),
(468,367,o),
(491,423,o),
(495,494,c),
(565,494,l),
(565,597,l),
(-20,597,l),
(-20,494,l),
(363,494,l),
(361,450,o),
(348,406,o),
(326,372,c),
(77,372,l),
(66,357,o),
(58,337,o),
(58,317,cs),
(58,275,o),
(84,242,o),
(203,242,cs),
(240,242,o),
(289,250,o),
(328,263,c),
(352,246,o),
(364,221,o),
(364,194,cs),
(364,139,o),
(314,95,o),
(223,95,cs),
(150,95,o),
(91,115,o),
(48,135,c),
(8,38,l),
(68,7,o),
(145,-9,o),
(227,-9,cs)
);
}
);
vertWidth = 1130;
width = 535;
},
{
anchors = (
{
name = abovevowel;
pos = (398,577);
},
{
name = belowvowel;
pos = (233,0);
},
{
name = joint;
pos = (220,0);
},
{
name = nasal;
pos = (421,728);
},
{
name = nukta;
pos = (472,17);
}
);
layerId = master03;
shapes = (
{
closed = 1;
nodes = (
(367,-3,o),
(447,69,o),
(447,172,cs),
(447,246,o),
(408,293,o),
(365,323,c),
(407,365,o),
(441,450,o),
(446,539,c),
(542,539,l),
(542,577,l),
(-20,577,l),
(-20,539,l),
(398,539,l),
(396,477,o),
(374,399,o),
(331,344,c),
(86,344,l),
(83,339,o),
(81,332,o),
(81,325,cs),
(81,303,o),
(91,285,o),
(176,285,cs),
(254,285,o),
(284,290,o),
(330,301,c),
(365,277,o),
(398,230,o),
(398,175,cs),
(398,89,o),
(330,37,o),
(227,37,cs),
(145,37,o),
(85,71,o),
(54,97,c),
(27,65,l),
(57,34,o),
(129,-3,o),
(225,-3,cs)
);
}
);
vertWidth = 814;
width = 512;
}
);
unicode = 2596;
},
{
glyphname = "tha-gurmukhi";
lastChange = "2025-02-11 00:00:25 +0000";
layers = (
{
anchors = (
{
name = abovevowel;
pos = (419,596);
},
{
name = belowvowel;
pos = (307,16);
},
{
name = joint;
pos = (419,0);
},
{
name = nasal;
pos = (485,732);
},
{
name = nukta;
pos = (134,16);
}
);
layerId = master02;
shapes = (
{
closed = 1;
nodes = (
(552,0,l),
(552,494,l),
(637,494,l),
(637,597,l),
(-30,597,l),
(-30,494,l),
(77,494,l),
(85,473,o),
(90,447,o),
(90,410,cs),
(90,350,o),
(73,283,o),
(37,225,c),
(93,123,o),
(198,82,o),
(307,82,cs),
(354,82,o),
(390,90,o),
(419,102,c),
(419,0,l)
);
},
{
closed = 1;
nodes = (
(258,187,o),
(199,205,o),
(179,235,c),
(191,256,o),
(201,279,o),
(208,304,c),
(419,304,l),
(419,211,l),
(389,195,o),
(354,187,o),
(313,187,cs)
);
},
{
closed = 1;
nodes = (
(223,434,o),
(217,466,o),
(209,494,c),
(419,494,l),
(419,397,l),
(223,397,l)
);
}
);
vertWidth = 1130;
width = 617;
},
{
anchors = (
{
name = abovevowel;
pos = (431,577);
},
{
name = belowvowel;
pos = (287,16);
},
{
name = joint;
pos = (431,0);
},
{
name = nasal;
pos = (454,728);
},
{
name = nukta;
pos = (119,16);
}
);
layerId = master03;
shapes = (
{
closed = 1;
nodes = (
(478,0,l),
(478,539,l),
(596,539,l),
(596,577,l),
(-30,577,l),
(-30,539,l),
(96,539,l),
(110,511,o),
(119,478,o),
(119,433,cs),
(119,360,o),
(91,283,o),
(53,223,c),
(93,150,o),
(175,105,o),
(270,105,cs),
(347,105,o),
(399,128,o),
(431,155,c),
(431,0,l)
);
},
{
closed = 1;
nodes = (
(200,145,o),
(130,184,o),
(107,224,c),
(128,257,o),
(145,296,o),
(155,338,c),
(431,338,l),
(431,208,l),
(403,174,o),
(346,145,o),
(273,145,cs)
);
},
{
closed = 1;
nodes = (
(172,432,o),
(166,485,o),
(144,539,c),
(431,539,l),
(431,376,l),
(163,376,l)
);
}
);
vertWidth = 814;
width = 576;
}
);
unicode = 2597;
},
{
glyphname = "tha-gurmukhi.post";
lastChange = "2025-02-11 00:00:14 +0000";
layers = (
{
anchors = (
{
name = abovevowel;
pos = (309,596);
},
{
name = belowvowel;
pos = (232,16);
},
{
name = joint;
pos = (309,0);
},
{
name = nasal;
pos = (375,732);
},
{
name = nukta;
pos = (58,16);
}
);
layerId = master02;
shapes = (
{
closed = 1;
nodes = (
(442,0,l),
(442,494,l),
(527,494,l),
(527,597,l),
(-30,597,l),
(-30,494,l),
(309,494,l),
(309,213,l),
(279,195,o),
(242,187,o),
(200,187,cs),
(149,187,o),
(102,202,o),
(66,229,c),
(2,137,l),
(51,101,o),
(116,82,o),
(194,82,cs),
(243,82,o),
(279,90,o),
(309,104,c),
(309,0,l)
);
},
{
closed = 1;
nodes = (
(325,300,l),
(325,397,l),
(77,397,l),
(77,300,l)
);
}
);
vertWidth = 1130;
width = 507;
},
{
anchors = (
{
name = abovevowel;
pos = (293,577);
},
{
name = belowvowel;
pos = (168,16);
},
{
name = joint;
pos = (293,0);
},
{
name = nasal;
pos = (316,728);
},
{
name = nukta;
pos = (29,16);
}
);
layerId = master03;
shapes = (
{
closed = 1;
nodes = (
(340,0,l),
(340,539,l),
(458,539,l),
(458,577,l),
(-30,577,l),
(-30,539,l),
(293,539,l),
(293,207,l),
(263,172,o),
(215,150,o),
(145,150,cs),
(91,150,o),
(46,165,o),
(13,192,c),
(-13,160,l),
(21,130,o),
(77,110,o),
(145,110,cs),
(214,110,o),
(261,128,o),
(293,153,c),
(293,0,l)
);
},
{
closed = 1;
nodes = (
(303,338,l),
(303,376,l),
(25,376,l),
(25,338,l)
);
}
);
vertWidth = 814;
width = 438;
}
);
},
{
glyphname = "da-gurmukhi";
lastChange = "2025-02-11 00:22:03 +0000";
layers = (
{
anchors = (
{
name = abovevowel;
pos = (411,596);
},
{
name = belowvowel;
pos = (362,0);
},
{
name = joint;
pos = (323,0);
},
{
name = nasal;
pos = (477,732);
},
{
name = nukta;
pos = (106,0);
}
);
layerId = master02;
shapes = (
{
closed = 1;
nodes = (
(470,-12,o),
(534,10,o),
(574,40,c),
(527,128,l),
(500,114,o),
(454,92,o),
(389,92,cs),
(289,92,o),
(217,140,o),
(213,247,c),
(543,247,l),
(543,494,l),
(623,494,l),
(623,597,l),
(-20,597,l),
(-20,494,l),
(411,494,l),
(411,350,l),
(213,350,l),
(213,413,l),
(200,424,o),
(177,433,o),
(147,433,cs),
(71,433,o),
(13,385,o),
(13,320,cs),
(13,273,o),
(46,246,o),
(83,240,c),
(102,68,o),
(217,-12,o),
(383,-12,cs)
);
}
);
vertWidth = 1130;
width = 603;
},
{
anchors = (
{
name = abovevowel;
pos = (436,577);
},
{
name = belowvowel;
pos = (338,0);
},
{
name = joint;
pos = (329,0);
},
{
name = nasal;
pos = (459,728);
},
{
name = nukta;
pos = (119,0);
}
);
layerId = master03;
shapes = (
{
closed = 1;
nodes = (
(427,-1,o),
(481,23,o),
(512,50,c),
(489,84,l),
(459,60,o),
(416,40,o),
(355,40,cs),
(217,40,o),
(140,124,o),
(138,290,c),
(483,290,l),
(483,539,l),
(594,539,l),
(594,577,l),
(-20,577,l),
(-20,539,l),
(436,539,l),
(436,330,l),
(138,330,l),
(138,398,l),
(129,402,o),
(119,405,o),
(105,405,cs),
(67,405,o),
(30,373,o),
(30,337,cs),
(30,304,o),
(55,290,o),
(90,290,c),
(94,119,o),
(173,-1,o),
(354,-1,cs)
);
}
);
vertWidth = 814;
width = 574;
}
);
unicode = 2598;
},
{
glyphname = "dha-gurmukhi";
lastChange = "2025-05-02 15:37:52 +0000";
layers = (
{
anchors = (
{
name = abovemn;
pos = (300,749);
},
{
name = abovevowel;
pos = (405,596);
},
{
name = belowmn;
pos = (300,-172);
},
{
name = belowvowel;
pos = (302,16);
},
{
name = joint;
pos = (405,0);
},
{
name = nasal;
pos = (471,732);
},
{
name = nukta;
pos = (129,8);
}
);
layerId = master02;
shapes = (
{
closed = 1;
nodes = (
(538,0,l),
(538,494,l),
(623,494,l),
(623,597,l),
(-30,597,l),
(-30,494,l),
(78,494,l),
(85,475,o),
(90,451,o),
(90,403,cs),
(90,343,o),
(73,287,o),
(37,229,c),
(91,130,o),
(180,87,o),
(287,87,cs),
(339,87,o),
(376,98,o),
(405,112,c),
(405,0,l)
);
},
{
closed = 1;
nodes = (
(243,192,o),
(199,209,o),
(179,239,c),
(207,288,o),
(223,343,o),
(223,401,cs),
(223,434,o),
(218,466,o),
(210,494,c),
(405,494,l),
(405,226,l),
(375,204,o),
(337,192,o),
(293,192,cs)
);
}
);
vertWidth = 1130;
width = 603;
},
{
anchors = (
{
name = abovemn;
pos = (285,749);
},
{
name = abovevowel;
pos = (424,577);
},
{
name = belowmn;
pos = (285,-135);
},
{
name = belowvowel;
pos = (285,16);
},
{
name = joint;
pos = (424,0);
},
{
name = nasal;
pos = (447,728);
},
{
name = nukta;
pos = (118,16);
}
);
layerId = master03;
shapes = (
{
closed = 1;
nodes = (
(471,0,l),
(471,539,l),
(589,539,l),
(589,577,l),
(-30,577,l),
(-30,539,l),
(97,539,l),
(111,512,o),
(120,478,o),
(120,433,cs),
(120,360,o),
(92,293,o),
(53,232,c),
(98,153,o),
(180,111,o),
(269,111,cs),
(334,111,o),
(388,129,o),
(424,158,c),
(424,0,l)
);
},
{
closed = 1;
nodes = (
(202,151,o),
(131,189,o),
(108,233,c),
(144,290,o),
(168,354,o),
(168,433,cs),
(168,463,o),
(160,502,o),
(145,539,c),
(424,539,l),
(424,212,l),
(397,179,o),
(343,151,o),
(271,151,cs)
);
}
);
vertWidth = 814;
width = 569;
}
);
unicode = 2599;
},
{
glyphname = "na-gurmukhi";
lastChange = "2025-05-02 15:38:11 +0000";
layers = (
{
anchors = (
{
name = abovemn;
pos = (310,749);
},
{
name = abovevowel;
pos = (245,597);
},
{
name = belowmn;
pos = (310,-172);
},
{
name = belowvowel;
pos = (312,0);
},
{
name = joint;
pos = (388,35);
},
{
name = nasal;
pos = (311,732);
},
{
name = nukta;
pos = (33,0);
}
);
layerId = master02;
shapes = (
{
closed = 1;
nodes = (
(248,88,l),
(206,100,o),
(165,123,o),
(165,181,cs),
(165,242,o),
(226,299,o),
(312,311,c),
(400,294,o),
(455,243,o),
(455,184,cs),
(455,125,o),
(413,102,o),
(368,89,c),
(406,-15,l),
(487,-3,o),
(588,57,o),
(588,178,cs),
(588,299,o),
(503,377,o),
(376,414,c),
(376,494,l),
(639,494,l),
(639,597,l),
(-20,597,l),
(-20,494,l),
(245,494,l),
(245,414,l),
(107,375,o),
(33,288,o),
(33,178,cs),
(33,51,o),
(128,-3,o),
(212,-15,c)
);
}
);
vertWidth = 1130;
width = 619;
},
{
anchors = (
{
name = abovemn;
pos = (281,749);
},
{
name = abovevowel;
pos = (258,577);
},
{
name = belowmn;
pos = (281,-172);
},
{
name = belowvowel;
pos = (280,0);
},
{
name = joint;
pos = (363,34);
},
{
name = nasal;
pos = (282,728);
},
{
name = nukta;
pos = (44,0);
}
);
layerId = master03;
shapes = (
{
closed = 1;
nodes = (
(199,34,l),
(145,57,o),
(93,103,o),
(93,177,cs),
(93,273,o),
(176,340,o),
(280,367,c),
(386,339,o),
(468,271,o),
(468,177,cs),
(468,102,o),
(420,57,o),
(363,34,c),
(380,-4,l),
(430,12,o),
(517,60,o),
(517,177,cs),
(517,281,o),
(430,368,o),
(305,404,c),
(305,539,l),
(582,539,l),
(582,577,l),
(-20,577,l),
(-20,539,l),
(258,539,l),
(258,405,l),
(128,367,o),
(44,283,o),
(44,177,cs),
(44,62,o),
(135,11,o),
(182,-5,c)
);
}
);
vertWidth = 814;
width = 562;
}
);
unicode = 2600;
},
{
glyphname = "pa-gurmukhi";
lastChange = "2025-05-02 15:37:43 +0000";
layers = (
{
anchors = (
{
name = abovemn;
pos = (300,749);
},
{
name = abovevowel;
pos = (403,596);
},
{
name = belowmn;
pos = (300,-172);
},
{
name = belowvowel;
pos = (314,16);
},
{
name = joint;
pos = (403,0);
},
{
name = nasal;
pos = (469,732);
},
{
name = nukta;
pos = (136,16);
}
);
layerId = master02;
shapes = (
{
closed = 1;
nodes = (
(536,0,l),
(536,494,l),
(621,494,l),
(621,597,l),
(403,597,l),
(403,226,l),
(374,204,o),
(339,192,o),
(295,192,cs),
(245,192,o),
(201,209,o),
(181,239,c),
(209,288,o),
(225,343,o),
(225,401,cs),
(225,492,o),
(191,569,o),
(175,597,c),
(-30,597,l),
(-30,494,l),
(85,494,l),
(89,473,o),
(92,447,o),
(92,410,cs),
(92,350,o),
(75,287,o),
(39,229,c),
(93,130,o),
(182,87,o),
(289,87,cs),
(340,87,o),
(376,97,o),
(403,111,c),
(403,0,l)
);
}
);
vertWidth = 1130;
width = 601;
},
{
anchors = (
{
name = abovemn;
pos = (282,749);
},
{
name = abovevowel;
pos = (417,577);
},
{
name = belowmn;
pos = (282,-172);
},
{
name = belowvowel;
pos = (282,16);
},
{
name = joint;
pos = (417,0);
},
{
name = nasal;
pos = (440,728);
},
{
name = nukta;
pos = (120,16);
}
);
layerId = master03;
shapes = (
{
closed = 1;
nodes = (
(464,0,l),
(464,539,l),
(582,539,l),
(582,577,l),
(417,577,l),
(417,222,l),
(390,184,o),
(339,157,o),
(267,157,cs),
(201,157,o),
(132,193,o),
(108,239,c),
(141,293,o),
(168,350,o),
(168,433,cs),
(168,479,o),
(152,532,o),
(127,577,c),
(-30,577,l),
(-30,539,l),
(97,539,l),
(112,509,o),
(120,474,o),
(120,433,cs),
(120,354,o),
(88,294,o),
(53,238,c),
(90,167,o),
(168,117,o),
(264,117,cs),
(336,117,o),
(386,138,o),
(417,166,c),
(417,0,l)
);
}
);
vertWidth = 814;
width = 562;
}
);
unicode = 2602;
},
{
glyphname = "pha-gurmukhi";
lastChange = "2025-02-11 00:56:48 +0000";
layers = (
{
anchors = (
{
name = abovevowel;
pos = (373,596);
},
{
name = belowvowel;
pos = (324,0);
},
{
name = joint;
pos = (130,51);
},
{
name = nasal;
pos = (439,732);
},
{
name = nukta;
pos = (34,8);
}
);
layerId = master02;
shapes = (
{
closed = 1;
nodes = (
(482,-17,o),
(541,54,o),
(541,129,cs),
(541,204,o),
(477,251,o),
(391,251,cs),
(323,251,o),
(256,223,o),
(197,149,c),
(179,169,o),
(164,196,o),
(164,231,cs),
(164,280,o),
(199,316,o),
(264,316,cs),
(504,316,l),
(504,494,l),
(589,494,l),
(589,597,l),
(-20,597,l),
(-20,494,l),
(373,494,l),
(373,420,l),
(230,420,ls),
(110,420,o),
(31,356,o),
(31,233,cs),
(31,88,o),
(178,-17,o),
(333,-17,cs)
);
},
{
closed = 1;
nodes = (
(311,82,o),
(293,84,o),
(276,90,c),
(309,136,o),
(345,161,o),
(381,161,cs),
(400,161,o),
(417,148,o),
(417,129,cs),
(417,104,o),
(399,82,o),
(334,82,cs)
);
}
);
vertWidth = 1130;
width = 569;
},
{
anchors = (
{
name = abovevowel;
pos = (412,577);
},
{
name = belowvowel;
pos = (306,0);
},
{
name = joint;
pos = (153,54);
},
{
name = nasal;
pos = (435,728);
},
{
name = nukta;
pos = (22,54);
}
);
layerId = master03;
shapes = (
{
closed = 1;
nodes = (
(442,-2,o),
(492,54,o),
(492,120,cs),
(492,178,o),
(446,227,o),
(372,227,cs),
(295,227,o),
(228,179,o),
(174,96,c),
(137,125,o),
(104,179,o),
(104,242,cs),
(104,318,o),
(147,358,o),
(222,358,cs),
(459,358,l),
(459,539,l),
(574,539,l),
(574,577,l),
(-20,577,l),
(-20,539,l),
(412,539,l),
(412,398,l),
(212,398,ls),
(118,398,o),
(55,342,o),
(55,244,cs),
(55,92,o),
(188,-2,o),
(331,-2,cs)
);
},
{
closed = 1;
nodes = (
(284,39,o),
(235,54,o),
(211,69,c),
(260,146,o),
(315,185,o),
(369,185,cs),
(412,185,o),
(444,158,o),
(444,120,cs),
(444,70,o),
(404,39,o),
(333,39,cs)
);
}
);
vertWidth = 814;
width = 554;
}
);
unicode = 2603;
},
{
glyphname = "ba-gurmukhi";
lastChange = "2025-02-11 01:05:45 +0000";
layers = (
{
anchors = (
{
name = abovevowel;
pos = (427,596);
},
{
name = belowvowel;
pos = (316,32);
},
{
name = joint;
pos = (427,0);
},
{
name = nasal;
pos = (493,732);
},
{
name = nukta;
pos = (63,0);
}
);
layerId = master02;
shapes = (
{
closed = 1;
nodes = (
(560,0,l),
(560,494,l),
(645,494,l),
(645,597,l),
(-40,597,l),
(-40,494,l),
(40,494,l),
(56,429,o),
(100,371,o),
(166,335,c),
(102,307,o),
(55,254,o),
(30,194,c),
(81,109,o),
(184,59,o),
(303,59,cs),
(346,59,o),
(391,67,o),
(427,83,c),
(427,0,l)
);
},
{
closed = 1;
nodes = (
(251,164,o),
(206,187,o),
(180,212,c),
(204,257,o),
(253,286,o),
(340,286,cs),
(427,286,l),
(427,191,l),
(399,174,o),
(355,164,o),
(319,164,cs)
);
},
{
closed = 1;
nodes = (
(243,389,o),
(196,443,o),
(183,494,c),
(427,494,l),
(427,386,l),
(312,386,l)
);
}
);
vertWidth = 1130;
width = 625;
},
{
anchors = (
{
name = abovevowel;
pos = (437,577);
},
{
name = belowvowel;
pos = (290,32);
},
{
name = joint;
pos = (437,0);
},
{
name = nasal;
pos = (460,728);
},
{
name = nukta;
pos = (77,16);
}
);
layerId = master03;
shapes = (
{
closed = 1;
nodes = (
(484,0,l),
(484,539,l),
(602,539,l),
(602,577,l),
(-40,577,l),
(-40,539,l),
(61,539,l),
(77,441,o),
(146,373,o),
(208,349,c),
(134,328,o),
(80,278,o),
(51,219,c),
(99,135,o),
(182,87,o),
(279,87,cs),
(353,87,o),
(404,108,o),
(437,131,c),
(437,0,l)
);
},
{
closed = 1;
nodes = (
(210,128,o),
(143,163,o),
(102,222,c),
(141,284,o),
(218,326,o),
(304,326,cs),
(437,326,l),
(437,180,l),
(406,153,o),
(361,128,o),
(285,128,cs)
);
},
{
closed = 1;
nodes = (
(223,366,o),
(129,437,o),
(110,539,c),
(437,539,l),
(437,366,l),
(301,366,ls)
);
}
);
vertWidth = 814;
width = 582;
}
);
unicode = 2604;
},
{
glyphname = "bha-gurmukhi";
lastChange = "2025-02-10 23:13:32 +0000";
layers = (
{
anchors = (
{
name = abovevowel;
pos = (408,596);
},
{
name = belowvowel;
pos = (277,0);
},
{
name = joint;
pos = (184,0);
},
{
name = nasal;
pos = (474,732);
},
{
name = nukta;
pos = (579,40);
}
);
layerId = master02;
shapes = (
{
closed = 1;
nodes = (
(409,-12,o),
(541,58,o),
(541,188,cs),
(541,238,o),
(515,284,o),
(479,319,c),
(510,362,o),
(534,423,o),
(540,494,c),
(609,494,l),
(609,597,l),
(-20,597,l),
(-20,494,l),
(408,494,l),
(404,459,o),
(393,422,o),
(377,391,c),
(340,416,o),
(284,440,o),
(217,440,cs),
(111,440,o),
(39,383,o),
(39,308,cs),
(39,227,o),
(113,179,o),
(218,179,cs),
(284,179,o),
(350,203,o),
(388,238,c),
(394,227,o),
(398,214,o),
(398,196,cs),
(398,137,o),
(340,92,o),
(241,92,cs),
(163,92,o),
(103,114,o),
(64,132,c),
(24,35,l),
(77,7,o),
(154,-12,o),
(243,-12,cs)
);
},
{
closed = 1;
nodes = (
(193,272,o),
(169,285,o),
(169,307,cs),
(169,332,o),
(195,345,o),
(231,345,cs),
(266,345,o),
(300,332,o),
(326,313,c),
(298,284,o),
(263,272,o),
(227,272,cs)
);
}
);
vertWidth = 1130;
width = 579;
},
{
anchors = (
{
name = abovevowel;
pos = (435,577);
},
{
name = belowvowel;
pos = (263,0);
},
{
name = joint;
pos = (215,0);
},
{
name = nasal;
pos = (458,728);
},
{
name = nukta;
pos = (508,17);
}
);
layerId = master03;
shapes = (
{
closed = 1;
nodes = (
(383,-3,o),
(480,66,o),
(480,183,cs),
(480,236,o),
(455,287,o),
(420,319,c),
(455,373,o),
(481,456,o),
(484,539,c),
(578,539,l),
(578,577,l),
(-20,577,l),
(-20,539,l),
(435,539,l),
(434,487,o),
(420,407,o),
(389,350,c),
(350,382,o),
(287,415,o),
(206,415,cs),
(114,415,o),
(61,368,o),
(61,306,cs),
(61,238,o),
(126,200,o),
(207,200,cs),
(293,200,o),
(356,242,o),
(393,283,c),
(413,261,o),
(432,226,o),
(432,183,cs),
(432,106,o),
(368,37,o),
(238,37,cs),
(154,37,o),
(92,70,o),
(61,92,c),
(37,58,l),
(67,32,o),
(141,-3,o),
(236,-3,cs)
);
},
{
closed = 1;
nodes = (
(148,241,o),
(109,267,o),
(109,306,cs),
(109,345,o),
(143,375,o),
(210,375,cs),
(276,375,o),
(329,347,o),
(368,315,c),
(328,268,o),
(272,241,o),
(213,241,cs)
);
}
);
vertWidth = 814;
width = 548;
}
);
unicode = 2605;
},
{
glyphname = "ma-gurmukhi";
lastChange = "2025-05-02 15:37:31 +0000";
layers = (
{
anchors = (
{
name = abovemn;
pos = (300,749);
},
{
name = abovevowel;
pos = (402,596);
},
{
name = belowmn;
pos = (300,-172);
},
{
name = belowvowel;
pos = (301,16);
},
{
name = joint;
pos = (402,0);
},
{
name = nasal;
pos = (468,732);
},
{
name = nukta;
pos = (306,114);
}
);
layerId = master02;
shapes = (
{
closed = 1;
nodes = (
(535,0,l),
(535,494,l),
(620,494,l),
(620,597,l),
(402,597,l),
(402,333,l),
(233,333,l),
(231,400,o),
(222,500,o),
(199,597,c),
(-30,597,l),
(-30,494,l),
(89,494,l),
(99,429,o),
(102,360,o),
(102,315,cs),
(102,308,o),
(102,303,o),
(100,288,c),
(31,105,l),
(40,75,o),
(73,49,o),
(111,49,cs),
(157,49,o),
(228,77,o),
(233,229,c),
(402,229,l),
(402,0,l)
);
}
);
vertWidth = 1130;
width = 600;
},
{
anchors = (
{
name = abovemn;
pos = (276,749);
},
{
name = abovevowel;
pos = (407,577);
},
{
name = belowmn;
pos = (276,-172);
},
{
name = belowvowel;
pos = (269,16);
},
{
name = joint;
pos = (407,0);
},
{
name = nasal;
pos = (430,728);
},
{
name = nukta;
pos = (276,125);
}
);
layerId = master03;
shapes = (
{
closed = 1;
nodes = (
(454,0,l),
(454,539,l),
(572,539,l),
(572,577,l),
(407,577,l),
(407,291,l),
(170,291,l),
(166,380,o),
(150,485,o),
(132,577,c),
(-30,577,l),
(-30,539,l),
(94,539,l),
(110,448,o),
(121,343,o),
(121,290,cs),
(121,286,o),
(121,269,o),
(120,261,c),
(54,92,l),
(58,82,o),
(69,70,o),
(90,70,cs),
(133,70,o),
(166,159,o),
(169,251,c),
(407,251,l),
(407,0,l)
);
}
);
vertWidth = 814;
width = 552;
}
);
unicode = 2606;
},
{
glyphname = "ma-gurmukhi.post";
lastChange = "2025-02-10 23:25:33 +0000";
layers = (
{
anchors = (
{
name = abovevowel;
pos = (291,596);
},
{
name = belowvowel;
pos = (206,16);
},
{
name = joint;
pos = (291,0);
},
{
name = nasal;
pos = (357,732);
},
{
name = nukta;
pos = (160,106);
}
);
layerId = master02;
shapes = (
{
closed = 1;
nodes = (
(424,0,l),
(424,494,l),
(509,494,l),
(509,597,l),
(291,597,l),
(291,317,l),
(30,317,l),
(30,213,l),
(291,213,l),
(291,0,l)
);
}
);
vertWidth = 1130;
width = 489;
},
{
anchors = (
{
name = abovevowel;
pos = (273,577);
},
{
name = belowvowel;
pos = (152,16);
},
{
name = joint;
pos = (273,0);
},
{
name = nasal;
pos = (296,728);
},
{
name = nukta;
pos = (136,125);
}
);
layerId = master03;
shapes = (
{
closed = 1;
nodes = (
(320,0,l),
(320,539,l),
(438,539,l),
(438,577,l),
(273,577,l),
(273,291,l),
(0,291,l),
(0,251,l),
(273,251,l),
(273,0,l)
);
}
);
vertWidth = 814;
width = 418;
}
);
},
{
glyphname = "ya-gurmukhi";
lastChange = "2025-02-11 00:04:20 +0000";
layers = (
{
anchors = (
{
name = abovevowel;
pos = (562,596);
},
{
name = belowvowel;
pos = (396,8);
},
{
name = joint;
pos = (562,0);
},
{
name = nasal;
pos = (628,732);
},
{
name = nukta;
pos = (128,8);
}
);
layerId = master02;
shapes = (
{
closed = 1;
nodes = (
(695,0,l),
(695,494,l),
(780,494,l),
(780,597,l),
(-30,597,l),
(-30,494,l),
(81,494,l),
(86,472,o),
(90,446,o),
(90,415,cs),
(90,353,o),
(76,293,o),
(36,228,c),
(93,106,o),
(209,65,o),
(329,65,cs),
(381,65,o),
(423,75,o),
(454,85,c),
(454,275,l),
(562,275,l),
(562,0,l)
);
},
{
closed = 1;
nodes = (
(255,172,o),
(205,196,o),
(179,230,c),
(206,276,o),
(223,332,o),
(223,414,cs),
(223,438,o),
(219,467,o),
(214,494,c),
(562,494,l),
(562,379,l),
(321,379,l),
(321,172,l)
);
}
);
vertWidth = 1130;
width = 760;
},
{
anchors = (
{
name = abovevowel;
pos = (549,577);
},
{
name = belowvowel;
pos = (379,8);
},
{
name = joint;
pos = (549,0);
},
{
name = nasal;
pos = (572,728);
},
{
name = nukta;
pos = (133,24);
}
);
layerId = master03;
shapes = (
{
closed = 1;
nodes = (
(596,0,l),
(596,539,l),
(714,539,l),
(714,577,l),
(-30,577,l),
(-30,539,l),
(104,539,l),
(114,510,o),
(120,472,o),
(120,431,cs),
(120,353,o),
(95,289,o),
(55,240,c),
(100,141,o),
(189,93,o),
(296,93,cs),
(328,93,o),
(359,97,o),
(377,103,c),
(377,324,l),
(549,324,l),
(549,0,l)
);
},
{
closed = 1;
nodes = (
(214,134,o),
(146,171,o),
(108,238,c),
(143,289,o),
(169,339,o),
(169,431,cs),
(169,467,o),
(162,507,o),
(151,539,c),
(549,539,l),
(549,364,l),
(330,364,l),
(330,135,l)
);
}
);
vertWidth = 814;
width = 694;
}
);
unicode = 2607;
},
{
glyphname = "ra-gurmukhi";
lastChange = "2025-05-02 15:36:49 +0000";
layers = (
{
anchors = (
{
name = abovemn;
pos = (285,749);
},
{
name = abovevowel;
pos = (377,596);
},
{
name = belowmn;
pos = (285,-172);
},
{
name = belowvowel;
pos = (293,0);
},
{
name = joint;
pos = (237,0);
},
{
name = nasal;
pos = (443,732);
},
{
name = nukta;
pos = (28,8);
}
);
layerId = master02;
shapes = (
{
closed = 1;
nodes = (
(422,-12,o),
(510,42,o),
(510,169,cs),
(510,494,l),
(589,494,l),
(589,597,l),
(-20,597,l),
(-20,494,l),
(377,494,l),
(377,385,l),
(197,385,ls),
(101,385,o),
(28,332,o),
(28,221,cs),
(28,91,o),
(148,-12,o),
(293,-12,cs)
);
},
{
closed = 1;
nodes = (
(229,92,o),
(160,148,o),
(160,218,cs),
(160,254,o),
(179,281,o),
(224,281,cs),
(377,281,l),
(377,175,ls),
(377,115,o),
(352,92,o),
(295,92,cs)
);
}
);
vertWidth = 1130;
width = 569;
},
{
anchors = (
{
name = abovemn;
pos = (270,749);
},
{
name = abovevowel;
pos = (395,577);
},
{
name = belowmn;
pos = (270,-172);
},
{
name = belowvowel;
pos = (264,-2);
},
{
name = joint;
pos = (261,0);
},
{
name = nasal;
pos = (418,728);
},
{
name = nukta;
pos = (45,16);
}
);
layerId = master03;
shapes = (
{
closed = 1;
nodes = (
(378,-2,o),
(442,42,o),
(442,142,cs),
(442,539,l),
(555,539,l),
(555,577,l),
(-20,577,l),
(-20,539,l),
(395,539,l),
(395,364,l),
(183,364,ls),
(100,364,o),
(45,318,o),
(45,230,cs),
(45,106,o),
(151,-2,o),
(285,-2,cs)
);
},
{
closed = 1;
nodes = (
(187,39,o),
(94,125,o),
(94,230,cs),
(94,290,o),
(126,324,o),
(190,324,cs),
(395,324,l),
(395,142,ls),
(395,72,o),
(352,39,o),
(288,39,cs)
);
}
);
vertWidth = 814;
width = 535;
}
);
unicode = 2608;
},
{
glyphname = "la-gurmukhi";
lastChange = "2025-02-11 00:57:21 +0000";
layers = (
{
anchors = (
{
name = abovevowel;
pos = (442,595);
},
{
name = belowvowel;
pos = (356,-8);
},
{
name = joint;
pos = (447,23);
},
{
name = nasal;
pos = (508,732);
},
{
name = nukta;
pos = (8,0);
}
);
layerId = master02;
shapes = (
{
closed = 1;
nodes = (
(284,89,l),
(216,98,o),
(162,133,o),
(162,199,cs),
(162,238,o),
(186,271,o),
(220,290,c),
(254,246,o),
(303,202,o),
(356,178,c),
(410,206,o),
(460,249,o),
(491,291,c),
(525,272,o),
(552,241,o),
(552,199,cs),
(552,133,o),
(498,98,o),
(430,89,c),
(456,-14,l),
(579,-5,o),
(684,64,o),
(684,195,cs),
(684,295,o),
(619,356,o),
(548,391,c),
(560,423,o),
(571,460,o),
(577,494,c),
(734,494,l),
(734,597,l),
(-20,597,l),
(-20,494,l),
(134,494,l),
(139,457,o),
(150,421,o),
(162,390,c),
(92,355,o),
(30,292,o),
(30,194,cs),
(30,64,o),
(135,-5,o),
(258,-14,c)
);
},
{
closed = 1;
nodes = (
(308,350,o),
(277,410,o),
(268,494,c),
(442,494,l),
(435,410,o),
(404,350,o),
(356,307,c)
);
}
);
vertWidth = 1130;
width = 714;
},
{
anchors = (
{
name = abovevowel;
pos = (449,575);
},
{
name = belowvowel;
pos = (319,-8);
},
{
name = joint;
pos = (410,34);
},
{
name = nasal;
pos = (472,728);
},
{
name = nukta;
pos = (9,34);
}
);
layerId = master03;
shapes = (
{
closed = 1;
nodes = (
(228,34,l),
(145,54,o),
(94,102,o),
(94,188,cs),
(94,258,o),
(143,309,o),
(199,336,c),
(226,290,o),
(266,238,o),
(319,208,c),
(363,234,o),
(408,289,o),
(434,336,c),
(501,303,o),
(544,255,o),
(544,188,cs),
(544,112,o),
(495,52,o),
(410,34,c),
(420,-6,l),
(511,8,o),
(593,79,o),
(593,181,cs),
(593,271,o),
(540,334,o),
(454,373,c),
(470,409,o),
(492,481,o),
(498,539,c),
(659,539,l),
(659,577,l),
(-20,577,l),
(-20,539,l),
(133,539,l),
(140,477,o),
(159,417,o),
(180,373,c),
(101,338,o),
(45,272,o),
(45,183,cs),
(45,71,o),
(128,5,o),
(218,-6,c)
);
},
{
closed = 1;
nodes = (
(243,321,o),
(194,426,o),
(180,539,c),
(449,539,l),
(440,432,o),
(387,317,o),
(319,257,c)
);
}
);
vertWidth = 814;
width = 639;
}
);
unicode = 2610;
},
{
glyphname = "va-gurmukhi";
lastChange = "2025-02-11 00:27:27 +0000";
layers = (
{
anchors = (
{
name = abovevowel;
pos = (372,596);
},
{
name = belowvowel;
pos = (311,0);
},
{
name = joint;
pos = (326,0);
},
{
name = nasal;
pos = (438,732);
},
{
name = nukta;
pos = (84,8);
}
);
layerId = master02;
shapes = (
{
closed = 1;
nodes = (
(444,-12,o),
(498,4,o),
(522,18,c),
(487,110,l),
(464,101,o),
(428,92,o),
(393,92,cs),
(320,92,o),
(289,111,o),
(289,143,cs),
(289,150,o),
(289,156,o),
(291,161,c),
(486,161,l),
(486,258,l),
(206,258,ls),
(178,258,o),
(159,270,o),
(159,293,cs),
(159,317,o),
(174,330,o),
(205,330,cs),
(504,330,l),
(504,494,l),
(584,494,l),
(584,597,l),
(-30,597,l),
(-30,494,l),
(372,494,l),
(372,429,l),
(187,429,ls),
(91,429,o),
(26,384,o),
(26,296,cs),
(26,215,o),
(90,173,o),
(161,166,c),
(158,156,o),
(157,146,o),
(157,134,cs),
(157,34,o),
(246,-12,o),
(383,-12,cs)
);
}
);
vertWidth = 1130;
width = 564;
},
{
anchors = (
{
name = abovevowel;
pos = (420,577);
},
{
name = belowvowel;
pos = (309,0);
},
{
name = joint;
pos = (315,0);
},
{
name = nasal;
pos = (443,728);
},
{
name = nukta;
pos = (100,0);
}
);
layerId = master03;
shapes = (
{
closed = 1;
nodes = (
(400,0,o),
(450,15,o),
(484,36,c),
(465,69,l),
(435,54,o),
(397,40,o),
(343,40,cs),
(255,40,o),
(210,78,o),
(210,137,cs),
(210,158,o),
(219,176,o),
(229,186,c),
(461,186,l),
(461,226,l),
(184,226,ls),
(128,226,o),
(96,256,o),
(96,301,cs),
(96,350,o),
(129,379,o),
(179,379,cs),
(467,379,l),
(467,539,l),
(575,539,l),
(575,577,l),
(-30,577,l),
(-30,539,l),
(420,539,l),
(420,420,l),
(180,420,ls),
(100,420,o),
(47,377,o),
(47,301,cs),
(47,225,o),
(101,187,o),
(179,186,c),
(169,172,o),
(161,153,o),
(161,129,cs),
(161,47,o),
(233,0,o),
(339,0,cs)
);
}
);
vertWidth = 814;
width = 555;
}
);
unicode = 2613;
},
{
glyphname = "sa-gurmukhi";
lastChange = "2025-05-02 15:30:26 +0000";
layers = (
{
anchors = (
{
name = abovemn;
pos = (306,749);
},
{
name = abovevowel;
pos = (402,596);
},
{
name = belowmn;
pos = (306,-172);
},
{
name = belowvowel;
pos = (305,16);
},
{
name = joint;
pos = (402,0);
},
{
name = nasal;
pos = (468,732);
},
{
name = nukta;
pos = (306,113);
}
);
layerId = master02;
shapes = (
{
closed = 1;
nodes = (
(535,0,l),
(535,494,l),
(620,494,l),
(620,597,l),
(-30,597,l),
(-30,494,l),
(79,494,l),
(92,429,o),
(100,357,o),
(100,312,cs),
(100,305,o),
(100,300,o),
(98,285,c),
(29,102,l),
(38,72,o),
(71,46,o),
(109,46,cs),
(155,46,o),
(226,74,o),
(231,226,c),
(402,226,l),
(402,0,l)
);
},
{
closed = 1;
nodes = (
(229,373,o),
(223,431,o),
(211,494,c),
(402,494,l),
(402,330,l),
(230,330,l)
);
}
);
vertWidth = 1130;
width = 600;
},
{
anchors = (
{
name = abovemn;
pos = (278,749);
},
{
name = abovevowel;
pos = (410,577);
},
{
name = belowmn;
pos = (278,-172);
},
{
name = belowvowel;
pos = (278,16);
},
{
name = joint;
pos = (410,0);
},
{
name = nasal;
pos = (433,728);
},
{
name = nukta;
pos = (278,125);
}
);
layerId = master03;
shapes = (
{
closed = 1;
nodes = (
(457,0,l),
(457,539,l),
(575,539,l),
(575,577,l),
(-30,577,l),
(-30,539,l),
(94,539,l),
(110,448,o),
(121,343,o),
(121,290,cs),
(121,286,o),
(121,269,o),
(120,261,c),
(54,92,l),
(58,82,o),
(69,70,o),
(90,70,cs),
(133,70,o),
(166,159,o),
(169,251,c),
(410,251,l),
(410,0,l)
);
},
{
closed = 1;
nodes = (
(166,368,o),
(154,457,o),
(139,539,c),
(410,539,l),
(410,291,l),
(170,291,l)
);
}
);
vertWidth = 814;
width = 555;
}
);
unicode = 2616;
},
{
glyphname = "ha-gurmukhi";
lastChange = "2025-02-11 00:28:47 +0000";
layers = (
{
anchors = (
{
name = abovevowel;
pos = (377,596);
},
{
name = belowvowel;
pos = (295,-5);
},
{
name = joint;
pos = (262,0);
},
{
name = nasal;
pos = (443,732);
},
{
name = nukta;
pos = (28,8);
}
);
layerId = master02;
shapes = (
{
closed = 1;
nodes = (
(274,385,l),
(197,385,ls),
(101,385,o),
(28,332,o),
(28,221,cs),
(28,91,o),
(148,-12,o),
(293,-12,cs),
(422,-12,o),
(510,42,o),
(510,169,cs),
(510,494,l),
(589,494,l),
(589,597,l),
(-20,597,l),
(-20,494,l),
(377,494,l),
(377,175,ls),
(377,115,o),
(352,92,o),
(295,92,cs),
(229,92,o),
(160,148,o),
(160,218,cs),
(160,254,o),
(179,281,o),
(224,281,cs),
(274,281,l)
);
}
);
vertWidth = 1130;
width = 570;
},
{
anchors = (
{
name = abovevowel;
pos = (395,577);
},
{
name = belowvowel;
pos = (277,-2);
},
{
name = joint;
pos = (288,0);
},
{
name = nasal;
pos = (418,728);
},
{
name = nukta;
pos = (45,8);
}
);
layerId = master03;
shapes = (
{
closed = 1;
nodes = (
(220,364,l),
(183,364,ls),
(100,364,o),
(45,318,o),
(45,230,cs),
(45,106,o),
(151,-2,o),
(285,-2,cs),
(378,-2,o),
(442,42,o),
(442,142,cs),
(442,539,l),
(555,539,l),
(555,577,l),
(-20,577,l),
(-20,539,l),
(395,539,l),
(395,142,ls),
(395,72,o),
(352,39,o),
(288,39,cs),
(187,39,o),
(94,125,o),
(94,230,cs),
(94,290,o),
(126,324,o),
(190,324,cs),
(220,324,l)
);
}
);
vertWidth = 814;
width = 535;
}
);
unicode = 2617;
},
{
glyphname = "rra-gurmukhi";
lastChange = "2025-02-11 00:31:04 +0000";
layers = (
{
anchors = (
{
name = abovevowel;
pos = (396,596);
},
{
name = belowvowel;
pos = (299,-80);
},
{
name = joint;
pos = (401,-33);
},
{
name = nasal;
pos = (462,732);
},
{
name = nukta;
pos = (576,49);
}
);
layerId = master02;
shapes = (
{
closed = 1;
nodes = (
(272,-52,l),
(181,44,l),
(197,39,o),
(212,36,o),
(228,34,cs),
(237,33,o),
(250,31,o),
(264,31,cs),
(299,31,o),
(324,34,o),
(344,39,c),
(447,-91,l),
(534,-33,l),
(445,69,l),
(491,96,o),
(528,146,o),
(528,219,cs),
(528,268,o),
(507,311,o),
(468,342,c),
(497,378,o),
(520,432,o),
(528,494,c),
(596,494,l),
(596,597,l),
(-20,597,l),
(-20,494,l),
(396,494,l),
(391,458,o),
(379,421,o),
(361,392,c),
(104,392,l),
(96,381,o),
(85,363,o),
(85,337,cs),
(85,290,o),
(124,267,o),
(225,267,cs),
(275,267,o),
(327,277,o),
(366,289,c),
(384,275,o),
(395,253,o),
(395,230,cs),
(395,174,o),
(352,138,o),
(260,138,cs),
(168,138,o),
(108,169,o),
(72,190,c),
(14,114,l),
(185,-111,l)
);
}
);
vertWidth = 1130;
width = 576;
},
{
anchors = (
{
name = abovevowel;
pos = (390,577);
},
{
name = belowvowel;
pos = (250,-40);
},
{
name = joint;
pos = (405,-45);
},
{
name = nasal;
pos = (413,728);
},
{
name = nukta;
pos = (456,53);
}
);
layerId = master03;
shapes = (
{
closed = 1;
nodes = (
(192,-54,l),
(93,70,l),
(105,63,o),
(119,57,o),
(135,52,cs),
(163,43,o),
(196,37,o),
(235,37,cs),
(280,37,o),
(306,44,o),
(322,50,c),
(421,-68,l),
(456,-46,l),
(358,63,l),
(392,81,o),
(440,125,o),
(440,200,cs),
(440,266,o),
(400,310,o),
(365,333,c),
(405,379,o),
(434,454,o),
(439,539,c),
(534,539,l),
(534,577,l),
(-20,577,l),
(-20,539,l),
(390,539,l),
(385,447,o),
(357,394,o),
(331,357,c),
(84,357,l),
(80,349,o),
(79,342,o),
(79,337,cs),
(79,307,o),
(107,298,o),
(180,298,cs),
(240,298,o),
(285,304,o),
(323,314,c),
(357,295,o),
(391,263,o),
(391,204,cs),
(391,133,o),
(344,78,o),
(230,78,cs),
(169,78,o),
(101,98,o),
(58,133,c),
(30,105,l),
(157,-76,l)
);
}
);
vertWidth = 814;
width = 504;
}
);
unicode = 2652;
},
{
glyphname = "iri-gurmukhi";
lastChange = "2025-02-11 00:37:44 +0000";
layers = (
{
anchors = (
{
name = abovevowel;
pos = (391,597);
},
{
name = belowvowel;
pos = (319,0);
},
{
name = gem;
pos = (624,660);
},
{
name = joint;
pos = (290,0);
},
{
name = nasal;
pos = (459,732);
},
{
name = nukta;
pos = (87,0);
}
);
layerId = master02;
shapes = (
{
closed = 1;
nodes = (
(441,-12,o),
(521,16,o),
(557,47,c),
(507,133,l),
(483,118,o),
(424,92,o),
(356,92,cs),
(268,92,o),
(195,125,o),
(160,180,c),
(195,238,o),
(249,255,o),
(319,255,cs),
(523,255,l),
(523,494,l),
(606,494,l),
(606,597,l),
(-30,597,l),
(-30,494,l),
(57,494,l),
(64,417,o),
(99,353,o),
(155,318,c),
(108,295,o),
(55,251,o),
(25,174,c),
(70,71,o),
(180,-12,o),
(352,-12,cs)
);
},
{
closed = 1;
nodes = (
(250,359,o),
(195,420,o),
(189,494,c),
(391,494,l),
(391,359,l),
(316,359,ls)
);
}
);
vertWidth = 1130;
width = 586;
},
{
anchors = (
{
name = abovevowel;
pos = (415,577);
},
{
name = belowvowel;
pos = (313,-60);
},
{
name = gem;
pos = (573,660);
},
{
name = joint;
pos = (299,0);
},
{
name = nasal;
pos = (439,728);
},
{
name = nukta;
pos = (75,0);
}
);
layerId = master03;
shapes = (
{
closed = 1;
nodes = (
(403,0,o),
(462,27,o),
(493,59,c),
(468,90,l),
(443,69,o),
(397,41,o),
(325,41,cs),
(209,41,o),
(135,107,o),
(98,183,c),
(140,260,o),
(230,302,o),
(313,302,cs),
(462,302,l),
(462,539,l),
(574,539,l),
(574,577,l),
(-30,577,l),
(-30,539,l),
(75,539,l),
(85,432,o),
(135,354,o),
(209,322,c),
(157,306,o),
(88,266,o),
(46,182,c),
(98,63,o),
(192,0,o),
(324,0,cs)
);
},
{
closed = 1;
nodes = (
(184,354,o),
(127,450,o),
(124,539,c),
(415,539,l),
(415,342,l),
(285,342,l)
);
}
);
vertWidth = 814;
width = 554;
}
);
unicode = 2674;
},
{
glyphname = "ura-gurmukhi";
lastChange = "2025-02-11 05:23:27 +0000";
layers = (
{
anchors = (
{
name = abovevowel;
pos = (282,724);
},
{
name = belowvowel;
pos = (331,0);
},
{
name = gem;
pos = (725,680);
},
{
name = joint;
pos = (276,0);
},
{
name = nasal;
pos = (681,732);
},
{
name = nukta;
pos = (46,0);
}
);
layerId = master02;
shapes = (
{
closed = 1;
nodes = (
(469,-11,o),
(566,54,o),
(566,165,cs),
(566,248,o),
(522,290,o),
(485,305,c),
(546,338,o),
(600,409,o),
(605,494,c),
(649,494,l),
(649,597,l),
(603,597,l),
(596,738,o),
(486,827,o),
(345,827,cs),
(207,827,o),
(95,746,o),
(64,597,c),
(-30,597,l),
(-30,494,l),
(50,494,l),
(48,464,o),
(46,430,o),
(46,399,cs),
(46,86,o),
(184,-11,o),
(340,-11,cs)
);
},
{
closed = 1;
nodes = (
(254,92,o),
(200,155,o),
(187,263,c),
(340,263,ls),
(397,263,o),
(432,225,o),
(432,175,cs),
(432,123,o),
(393,92,o),
(338,92,cs)
);
},
{
closed = 1;
nodes = (
(176,409,l),
(176,433,o),
(178,467,o),
(181,494,c),
(469,494,l),
(459,410,o),
(410,361,o),
(321,361,cs),
(177,361,l)
);
},
{
closed = 1;
nodes = (
(211,656,o),
(258,721,o),
(345,721,cs),
(420,721,o),
(471,666,o),
(473,597,c),
(198,597,l)
);
}
);
vertWidth = 1130;
width = 629;
},
{
anchors = (
{
name = abovevowel;
pos = (311,746);
},
{
name = belowvowel;
pos = (318,0);
},
{
name = gem;
pos = (661,660);
},
{
name = joint;
pos = (295,0);
},
{
name = nasal;
pos = (602,728);
},
{
name = nukta;
pos = (76,0);
}
);
layerId = master03;
shapes = (
{
closed = 1;
nodes = (
(422,0,o),
(497,58,o),
(497,156,cs),
(497,231,o),
(456,284,o),
(398,306,c),
(470,331,o),
(540,408,o),
(543,539,c),
(603,539,l),
(603,577,l),
(543,577,l),
(541,708,o),
(448,785,o),
(336,785,cs),
(229,785,o),
(137,727,o),
(98,577,c),
(-30,577,l),
(-30,539,l),
(88,539,l),
(80,489,o),
(76,427,o),
(76,364,cs),
(76,76,o),
(196,0,o),
(319,0,cs)
);
},
{
closed = 1;
nodes = (
(209,41,o),
(136,129,o),
(127,293,c),
(313,293,ls),
(397,293,o),
(450,236,o),
(450,158,cs),
(450,83,o),
(395,41,o),
(322,41,cs)
);
},
{
closed = 1;
nodes = (
(125,350,ls),
(125,420,o),
(130,488,o),
(139,539,c),
(495,539,l),
(490,420,o),
(425,333,o),
(318,333,cs),
(125,333,l)
);
},
{
closed = 1;
nodes = (
(173,681,o),
(240,743,o),
(334,743,cs),
(427,743,o),
(493,680,o),
(495,577,c),
(148,577,l)
);
}
);
vertWidth = 814;
width = 583;
}
);
unicode = 2675;
},
{
glyphname = "ekonkar-gurmukhi";
lastChange = "2024-11-23 17:29:55 +0000";
layers = (
{
hints = (
{
horizontal = 1;
place = (704,1);
type = Stem;
}
);
layerId = master02;
shapes = (
{
closed = 1;
nodes = (
(940,-11,o),
(1037,54,o),
(1037,165,cs),
(1037,248,o),
(993,290,o),
(956,305,c),
(1076,370,o),
(1133,597,o),
(1001,597,cs),
(665,597,l),
(687,797,o),
(940,704,o),
(998,704,cs),
(1178,704,o),
(1131,905,o),
(1332,905,cs),
(1443,905,o),
(1533,815,o),
(1533,704,c),
(1666,704,l),
(1666,862,o),
(1542,1012,o),
(1332,1012,cs),
(1055,1012,o),
(1083,814,o),
(964,814,cs),
(879,814,o),
(519,933,o),
(519,399,cs),
(519,86,o),
(655,-11,o),
(811,-11,cs)
);
},
{
closed = 1;
nodes = (
(483,-6,o),
(491,-5,o),
(485,-3,c),
(489,104,l),
(477,104,ls),
(454,104,o),
(441,123,o),
(441,155,cs),
(441,409,ls),
(441,508,o),
(377,604,o),
(235,604,cs),
(117,604,o),
(30,530,o),
(30,418,cs),
(30,298,o),
(117,236,o),
(229,236,cs),
(271,236,o),
(301,246,o),
(319,257,c),
(319,140,ls),
(319,53,o),
(369,-6,o),
(464,-6,cs)
);
},
{
closed = 1;
nodes = (
(195,336,o),
(159,363,o),
(159,418,cs),
(159,466,o),
(193,497,o),
(236,497,cs),
(280,497,o),
(314,473,o),
(314,417,cs),
(314,362,l),
(301,351,o),
(276,336,o),
(240,336,cs)
);
},
{
closed = 1;
nodes = (
(725,92,o),
(671,155,o),
(658,263,c),
(811,263,ls),
(868,263,o),
(903,225,o),
(903,175,cs),
(903,123,o),
(864,92,o),
(809,92,cs)
);
},
{
closed = 1;
nodes = (
(647,409,l),
(647,433,o),
(649,467,o),
(652,494,c),
(913,494,ls),
(998,494,o),
(881,361,o),
(792,361,cs),
(648,361,l)
);
}
);
vertWidth = 1130;
width = 1131;
},
{
hints = (
{
horizontal = 1;
place = (716,1);
type = Stem;
}
);
layerId = master03;
shapes = (
{
closed = 1;
nodes = (
(834,0,o),
(910,58,o),
(910,156,cs),
(910,231,o),
(868,284,o),
(811,306,c),
(883,331,o),
(1052,577,o),
(907,577,c),
(563,577,l),
(613,809,o),
(834,724,o),
(912,724,c),
(1021,724,o),
(1052,921,o),
(1226,921,cs),
(1339,921,o),
(1431,829,o),
(1431,716,c),
(1478,716,l),
(1478,861,o),
(1356,961,o),
(1226,961,cs),
(1028,961,o),
(1002,765,o),
(894,765,c),
(832,765,o),
(489,895,o),
(489,364,cs),
(489,80,o),
(612,0,o),
(732,0,cs)
);
},
{
closed = 1;
nodes = (
(413,0,o),
(423,0,o),
(428,1,c),
(430,41,l),
(419,41,ls),
(398,41,o),
(380,57,o),
(380,97,cs),
(380,440,ls),
(380,523,o),
(324,584,o),
(230,584,cs),
(146,584,o),
(71,528,o),
(71,427,cs),
(71,322,o),
(147,269,o),
(229,269,cs),
(282,269,o),
(316,285,o),
(333,299,c),
(333,110,ls),
(333,36,o),
(360,0,o),
(411,0,c)
);
},
{
closed = 1;
nodes = (
(173,309,o),
(119,347,o),
(119,428,cs),
(119,494,o),
(163,543,o),
(230,543,cs),
(301,543,o),
(336,494,o),
(336,439,cs),
(336,348,l),
(316,327,o),
(280,309,o),
(232,309,cs)
);
},
{
closed = 1;
nodes = (
(622,41,o),
(548,137,o),
(540,293,c),
(721,293,ls),
(807,293,o),
(863,238,o),
(863,158,cs),
(863,83,o),
(808,41,o),
(734,41,cs)
);
},
{
closed = 1;
nodes = (
(538,363,l),
(538,431,o),
(546,499,o),
(555,539,c),
(909,539,l),
(966,539,o),
(838,333,o),
(731,333,cs),
(539,333,l)
);
}
);
vertWidth = 814;
width = 1021;
}
);
unicode = 2676;
},
{
glyphname = "ekonkar-gurmukhi.001";
lastChange = "2024-11-23 17:29:18 +0000";
layers = (
{
layerId = master02;
shapes = (
{
closed = 1;
nodes = (
(964,-11,o),
(1061,54,o),
(1061,165,cs),
(1061,248,o),
(1017,290,o),
(980,305,c),
(1100,370,o),
(1157,597,o),
(1025,597,cs),
(693,597,l),
(693,826,o),
(899,871,o),
(980,871,cs),
(1461,871,o),
(1885,720,o),
(1885,1044,c),
(1763,1044,l),
(1763,856,o),
(1364,977,o),
(980,977,cs),
(813,977,o),
(541,924,o),
(541,399,cs),
(541,86,o),
(679,-11,o),
(835,-11,cs)
);
},
{
closed = 1;
nodes = (
(483,-6,o),
(491,-5,o),
(485,-3,c),
(489,104,l),
(477,104,ls),
(454,104,o),
(441,123,o),
(441,155,cs),
(441,409,ls),
(441,508,o),
(377,604,o),
(235,604,cs),
(117,604,o),
(30,530,o),
(30,418,cs),
(30,298,o),
(117,236,o),
(229,236,cs),
(271,236,o),
(301,246,o),
(319,257,c),
(319,140,ls),
(319,53,o),
(369,-6,o),
(464,-6,cs)
);
},
{
closed = 1;
nodes = (
(195,336,o),
(159,363,o),
(159,418,cs),
(159,466,o),
(193,497,o),
(236,497,cs),
(280,497,o),
(314,473,o),
(314,417,cs),
(314,362,l),
(301,351,o),
(276,336,o),
(240,336,cs)
);
},
{
closed = 1;
nodes = (
(749,92,o),
(695,155,o),
(682,263,c),
(835,263,ls),
(892,263,o),
(927,225,o),
(927,175,cs),
(927,123,o),
(888,92,o),
(833,92,cs)
);
},
{
closed = 1;
nodes = (
(671,409,l),
(671,433,o),
(673,467,o),
(676,494,c),
(937,494,ls),
(1022,494,o),
(905,361,o),
(816,361,cs),
(672,361,l)
);
}
);
vertWidth = 1130;
width = 1122;
},
{
layerId = master03;
shapes = (
{
closed = 1;
nodes = (
(855,0,o),
(931,58,o),
(931,156,cs),
(931,231,o),
(889,284,o),
(832,306,c),
(904,331,o),
(1073,577,o),
(928,577,c),
(584,577,l),
(584,620,o),
(658,858,o),
(955,858,cs),
(1123,858,o),
(1725,737,o),
(1725,977,c),
(1675,977,l),
(1675,799,o),
(1079,904,o),
(953,904,cs),
(792,904,o),
(510,838,o),
(510,364,cs),
(510,80,o),
(633,0,o),
(753,0,cs)
);
},
{
closed = 1;
nodes = (
(406,0,o),
(416,0,o),
(421,1,c),
(423,41,l),
(412,41,ls),
(391,41,o),
(373,57,o),
(373,97,cs),
(373,440,ls),
(373,523,o),
(317,584,o),
(223,584,cs),
(139,584,o),
(64,528,o),
(64,427,cs),
(64,322,o),
(140,269,o),
(222,269,cs),
(275,269,o),
(309,285,o),
(326,299,c),
(326,110,ls),
(326,36,o),
(353,0,o),
(404,0,c)
);
},
{
closed = 1;
nodes = (
(166,309,o),
(112,347,o),
(112,428,cs),
(112,494,o),
(156,543,o),
(223,543,cs),
(294,543,o),
(329,494,o),
(329,439,cs),
(329,348,l),
(309,327,o),
(273,309,o),
(225,309,cs)
);
},
{
closed = 1;
nodes = (
(643,41,o),
(569,137,o),
(561,293,c),
(742,293,ls),
(828,293,o),
(884,238,o),
(884,158,cs),
(884,83,o),
(829,41,o),
(755,41,cs)
);
},
{
closed = 1;
nodes = (
(559,363,l),
(559,431,o),
(567,499,o),
(576,539,c),
(930,539,l),
(987,539,o),
(859,333,o),
(752,333,cs),
(560,333,l)
);
}
);
vertWidth = 814;
width = 1049;
}
);
},
{
glyphname = "ekonkar-gurmukhi.alt";
lastChange = "2024-11-23 17:40:08 +0000";
layers = (
{
hints = (
{
horizontal = 1;
place = (704,1);
type = Stem;
}
);
layerId = master02;
shapes = (
{
closed = 1;
nodes = (
(940,-11,o),
(1037,54,o),
(1037,165,cs),
(1037,248,o),
(993,290,o),
(956,305,c),
(1076,370,o),
(1133,597,o),
(1001,597,cs),
(665,597,l),
(686,787,o),
(940,704,o),
(998,704,cs),
(1131,704,o),
(1168,1021,o),
(1447,1021,cs),
(1623,1021,o),
(1765,879,o),
(1765,704,c),
(1898,704,l),
(1898,914,o),
(1693,1128,o),
(1447,1128,cs),
(1108,1128,o),
(1051,814,o),
(970,814,cs),
(885,814,o),
(519,933,o),
(519,399,cs),
(519,86,o),
(655,-11,o),
(811,-11,cs)
);
},
{
closed = 1;
nodes = (
(483,-6,o),
(491,-5,o),
(485,-3,c),
(489,104,l),
(477,104,ls),
(454,104,o),
(441,123,o),
(441,155,cs),
(441,409,ls),
(441,508,o),
(377,604,o),
(235,604,cs),
(117,604,o),
(30,530,o),
(30,418,cs),
(30,298,o),
(117,236,o),
(229,236,cs),
(271,236,o),
(301,246,o),
(319,257,c),
(319,140,ls),
(319,53,o),
(369,-6,o),
(464,-6,cs)
);
},
{
closed = 1;
nodes = (
(195,336,o),
(159,363,o),
(159,418,cs),
(159,466,o),
(193,497,o),
(236,497,cs),
(280,497,o),
(314,473,o),
(314,417,cs),
(314,362,l),
(301,351,o),
(276,336,o),
(240,336,cs)
);
},
{
closed = 1;
nodes = (
(725,92,o),
(671,155,o),
(658,263,c),
(811,263,ls),
(868,263,o),
(903,225,o),
(903,175,cs),
(903,123,o),
(864,92,o),
(809,92,cs)
);
},
{
closed = 1;
nodes = (
(647,409,l),
(647,433,o),
(649,467,o),
(652,494,c),
(913,494,ls),
(998,494,o),
(881,361,o),
(792,361,cs),
(648,361,l)
);
}
);
vertWidth = 1130;
width = 1131;
},
{
hints = (
{
horizontal = 1;
place = (716,1);
type = Stem;
}
);
layerId = master03;
shapes = (
{
closed = 1;
nodes = (
(834,0,o),
(910,58,o),
(910,156,cs),
(910,231,o),
(868,284,o),
(811,306,c),
(883,331,o),
(1052,577,o),
(907,577,c),
(563,577,l),
(611,803,o),
(834,724,o),
(912,724,c),
(1021,724,o),
(1063,1026,o),
(1331,1026,cs),
(1502,1026,o),
(1641,887,o),
(1641,716,c),
(1688,716,l),
(1688,919,o),
(1519,1066,o),
(1331,1066,cs),
(1046,1066,o),
(982,765,o),
(894,765,c),
(832,765,o),
(489,895,o),
(489,364,cs),
(489,80,o),
(612,0,o),
(732,0,cs)
);
},
{
closed = 1;
nodes = (
(413,0,o),
(423,0,o),
(428,1,c),
(430,41,l),
(419,41,ls),
(398,41,o),
(380,57,o),
(380,97,cs),
(380,440,ls),
(380,523,o),
(324,584,o),
(230,584,cs),
(146,584,o),
(71,528,o),
(71,427,cs),
(71,322,o),
(147,269,o),
(229,269,cs),
(282,269,o),
(316,285,o),
(333,299,c),
(333,110,ls),
(333,36,o),
(360,0,o),
(411,0,c)
);
},
{
closed = 1;
nodes = (
(173,309,o),
(119,347,o),
(119,428,cs),
(119,494,o),
(163,543,o),
(230,543,cs),
(301,543,o),
(336,494,o),
(336,439,cs),
(336,348,l),
(316,327,o),
(280,309,o),
(232,309,cs)
);
},
{
closed = 1;
nodes = (
(622,41,o),
(548,137,o),
(540,293,c),
(721,293,ls),
(807,293,o),
(863,238,o),
(863,158,cs),
(863,83,o),
(808,41,o),
(734,41,cs)
);
},
{
closed = 1;
nodes = (
(538,363,l),
(538,431,o),
(546,499,o),
(555,539,c),
(909,539,l),
(966,539,o),
(838,333,o),
(731,333,cs),
(539,333,l)
);
}
);
vertWidth = 814;
width = 1021;
}
);
},
{
category = Letter;
glyphname = "VS12_ya-gurmukhi.rlig";
lastChange = "2025-02-11 00:18:32 +0000";
layers = (
{
anchors = (
{
name = abovevowel;
pos = (455,596);
},
{
name = belowvowel;
pos = (289,8);
},
{
name = joint;
pos = (455,0);
},
{
name = nasal;
pos = (521,732);
},
{
name = nukta;
pos = (21,7);
}
);
layerId = master02;
shapes = (
{
closed = 1;
nodes = (
(588,0,l),
(588,494,l),
(673,494,l),
(673,597,l),
(455,597,l),
(455,379,l),
(214,379,l),
(214,172,l),
(166,173,o),
(112,185,o),
(62,221,c),
(0,134,l),
(54,89,o),
(143,67,o),
(222,67,cs),
(281,67,o),
(319,76,o),
(347,84,c),
(347,275,l),
(455,275,l),
(455,0,l)
);
}
);
vertWidth = 1130;
width = 653;
},
{
anchors = (
{
name = abovevowel;
pos = (405,577);
},
{
name = belowvowel;
pos = (242,8);
},
{
name = joint;
pos = (405,0);
},
{
name = nasal;
pos = (428,728);
},
{
name = nukta;
pos = (36,26);
}
);
layerId = master03;
shapes = (
{
closed = 1;
nodes = (
(452,0,l),
(452,539,l),
(570,539,l),
(570,577,l),
(405,577,l),
(405,358,l),
(192,358,l),
(192,133,l),
(94,131,o),
(47,156,o),
(13,188,c),
(-15,156,l),
(35,108,o),
(92,90,o),
(159,90,cs),
(195,90,o),
(224,97,o),
(240,105,c),
(240,318,l),
(405,318,l),
(405,0,l)
);
}
);
vertWidth = 814;
width = 550;
}
);
subCategory = "";
},
{
category = Letter;
glyphname = "VS1_ya-gurmukhi.rlig";
lastChange = "2025-02-11 00:19:13 +0000";
layers = (
{
anchors = (
{
name = abovevowel;
pos = (455,596);
},
{
name = belowvowel;
pos = (289,8);
},
{
name = joint;
pos = (455,0);
},
{
name = nasal;
pos = (521,732);
},
{
name = nukta;
pos = (21,7);
}
);
layerId = master02;
shapes = (
{
closed = 1;
nodes = (
(588,0,l),
(588,494,l),
(673,494,l),
(673,597,l),
(-30,597,l),
(-30,494,l),
(455,494,l),
(455,379,l),
(214,379,l),
(214,172,l),
(166,173,o),
(112,185,o),
(62,221,c),
(0,134,l),
(54,89,o),
(143,67,o),
(222,67,cs),
(281,67,o),
(319,76,o),
(347,84,c),
(347,275,l),
(455,275,l),
(455,0,l)
);
}
);
vertWidth = 1130;
width = 653;
},
{
anchors = (
{
name = abovevowel;
pos = (405,577);
},
{
name = belowvowel;
pos = (242,8);
},
{
name = joint;
pos = (405,0);
},
{
name = nasal;
pos = (428,728);
},
{
name = nukta;
pos = (36,26);
}
);
layerId = master03;
shapes = (
{
closed = 1;
nodes = (
(452,0,l),
(452,539,l),
(570,539,l),
(570,577,l),
(-30,577,l),
(-30,539,l),
(405,539,l),
(405,358,l),
(192,358,l),
(192,133,l),
(94,131,o),
(47,156,o),
(13,188,c),
(-15,156,l),
(35,108,o),
(92,90,o),
(159,90,cs),
(195,90,o),
(224,97,o),
(240,105,c),
(240,318,l),
(405,318,l),
(405,0,l)
);
}
);
vertWidth = 814;
width = 550;
}
);
subCategory = "";
},
{
category = Letter;
glyphname = "VS25_ka-gurmukhi.rlig";
lastChange = "2025-02-11 00:09:47 +0000";
layers = (
{
anchors = (
{
name = abovevowel;
pos = (434,596);
},
{
name = belowvowel;
pos = (241,0);
},
{
name = joint;
pos = (439,0);
},
{
name = nasal;
pos = (500,732);
},
{
name = nukta;
pos = (233,-8);
}
);
layerId = master02;
shapes = (
{
closed = 1;
nodes = (
(572,0,l),
(566,89,o),
(533,176,o),
(496,233,c),
(542,306,o),
(564,495,o),
(567,597,c),
(434,597,l),
(432,534,o),
(424,384,o),
(410,345,c),
(370,387,o),
(308,423,o),
(233,423,cs),
(107,423,o),
(26,355,o),
(26,252,cs),
(26,148,o),
(107,80,o),
(231,80,cs),
(304,80,o),
(368,106,o),
(409,146,c),
(425,103,o),
(431,48,o),
(439,0,c)
);
},
{
closed = 1;
nodes = (
(195,184,o),
(159,209,o),
(159,252,cs),
(159,289,o),
(183,319,o),
(239,319,cs),
(286,319,o),
(333,293,o),
(369,251,c),
(341,213,o),
(294,184,o),
(241,184,cs)
);
},
{
closed = 1;
nodes = (
(125,345,l),
(305,132,l),
(367,174,l),
(188,388,l)
);
}
);
vertWidth = 1130;
width = 610;
},
{
anchors = (
{
name = abovevowel;
pos = (449,577);
},
{
name = belowvowel;
pos = (213,0);
},
{
name = joint;
pos = (453,0);
},
{
name = nasal;
pos = (472,728);
},
{
name = nukta;
pos = (213,-16);
}
);
layerId = master03;
shapes = (
{
closed = 1;
nodes = (
(500,0,l),
(490,52,o),
(459,134,o),
(419,213,c),
(465,289,o),
(494,479,o),
(496,577,c),
(449,577,l),
(447,475,o),
(419,311,o),
(396,260,c),
(355,322,o),
(294,386,o),
(203,386,cs),
(106,386,o),
(40,311,o),
(40,226,cs),
(40,133,o),
(117,67,o),
(208,67,cs),
(293,67,o),
(352,123,o),
(391,174,c),
(417,113,o),
(441,48,o),
(453,0,c)
);
},
{
closed = 1;
nodes = (
(141,107,o),
(89,158,o),
(89,226,cs),
(89,287,o),
(134,346,o),
(209,346,cs),
(266,346,o),
(334,295,o),
(373,219,c),
(340,162,o),
(280,107,o),
(213,107,cs)
);
},
{
closed = 1;
nodes = (
(98,307,l),
(301,116,l),
(328,144,l),
(126,336,l)
);
}
);
vertWidth = 814;
width = 567;
}
);
script = gurmukhi;
subCategory = "";
},
{
category = Letter;
glyphname = "VS2_ya-gurmukhi.rlig";
lastChange = "2025-02-10 22:41:15 +0000";
layers = (
{
anchors = (
{
name = abovevowel;
pos = (562,596);
},
{
name = belowvowel;
pos = (396,8);
},
{
name = joint;
pos = (562,0);
},
{
name = nasal;
pos = (628,732);
},
{
name = nukta;
pos = (93,0);
}
);
layerId = master02;
shapes = (
{
closed = 1;
nodes = (
(695,0,l),
(695,494,l),
(780,494,l),
(780,597,l),
(562,597,l),
(562,379,l),
(321,379,l),
(321,172,l),
(255,172,o),
(205,196,o),
(179,230,c),
(206,276,o),
(223,332,o),
(223,414,cs),
(223,438,o),
(201,570,o),
(196,597,c),
(-30,597,l),
(-30,494,l),
(81,494,l),
(86,472,o),
(90,446,o),
(90,415,cs),
(90,353,o),
(76,293,o),
(36,228,c),
(93,106,o),
(209,65,o),
(329,65,cs),
(381,65,o),
(423,75,o),
(454,85,c),
(454,275,l),
(562,275,l),
(562,0,l)
);
}
);
vertWidth = 1130;
width = 760;
},
{
anchors = (
{
name = abovevowel;
pos = (549,577);
},
{
name = belowvowel;
pos = (379,8);
},
{
name = joint;
pos = (549,0);
},
{
name = nasal;
pos = (572,728);
},
{
name = nukta;
pos = (90,0);
}
);
layerId = master03;
shapes = (
{
closed = 1;
nodes = (
(596,0,l),
(596,539,l),
(714,539,l),
(714,577,l),
(549,577,l),
(549,364,l),
(330,364,l),
(330,135,l),
(214,134,o),
(146,171,o),
(108,238,c),
(143,289,o),
(169,339,o),
(169,431,cs),
(169,467,o),
(154,545,o),
(143,577,c),
(-30,577,l),
(-30,539,l),
(104,539,l),
(114,510,o),
(120,472,o),
(120,431,cs),
(120,353,o),
(95,289,o),
(55,240,c),
(100,141,o),
(189,93,o),
(296,93,cs),
(328,93,o),
(359,97,o),
(377,103,c),
(377,324,l),
(549,324,l),
(549,0,l)
);
}
);
vertWidth = 814;
width = 694;
}
);
subCategory = "";
},
{
category = Letter;
glyphname = "VS45_sa-gurmukhi.rlig";
lastChange = "2025-02-10 23:26:34 +0000";
layers = (
{
anchors = (
{
name = abovevowel;
pos = (402,596);
},
{
name = belowvowel;
pos = (284,0);
},
{
name = joint;
pos = (402,226);
},
{
name = nasal;
pos = (468,732);
},
{
name = nukta;
pos = (350,113);
}
);
layerId = master02;
shapes = (
{
closed = 1;
nodes = (
(580,494,l),
(580,597,l),
(-30,597,l),
(-30,494,l),
(79,494,l),
(92,429,o),
(100,357,o),
(100,312,cs),
(100,305,o),
(100,300,o),
(98,285,c),
(29,102,l),
(38,72,o),
(71,46,o),
(109,46,cs),
(155,46,o),
(226,74,o),
(231,226,c),
(495,226,l),
(535,330,l),
(230,330,l),
(229,373,o),
(223,431,o),
(211,494,c)
);
},
{
closed = 1;
nodes = (
(300,553,l),
(300,267,l),
(400,267,l),
(400,553,l)
);
}
);
vertWidth = 1130;
width = 545;
},
{
anchors = (
{
name = abovevowel;
pos = (410,577);
},
{
name = belowvowel;
pos = (259,0);
},
{
name = joint;
pos = (410,252);
},
{
name = nasal;
pos = (433,728);
},
{
name = nukta;
pos = (284,120);
}
);
layerId = master03;
shapes = (
{
closed = 1;
nodes = (
(525,539,l),
(525,577,l),
(-30,577,l),
(-30,539,l),
(94,539,l),
(110,448,o),
(121,343,o),
(121,290,cs),
(121,286,o),
(121,269,o),
(120,261,c),
(54,92,l),
(58,82,o),
(69,70,o),
(90,70,cs),
(133,70,o),
(166,159,o),
(169,251,c),
(437,251,l),
(457,291,l),
(170,291,l),
(166,368,o),
(154,457,o),
(139,539,c)
);
},
{
closed = 1;
nodes = (
(287,557,l),
(287,271,l),
(325,271,l),
(325,557,l)
);
}
);
vertWidth = 814;
width = 490;
}
);
script = gurmukhi;
subCategory = "";
},
{
category = Letter;
glyphname = "VS4_sa-gurmukhi.rlig";
lastChange = "2025-02-10 23:26:45 +0000";
layers = (
{
anchors = (
{
name = abovevowel;
pos = (402,596);
},
{
name = belowvowel;
pos = (284,0);
},
{
name = joint;
pos = (402,226);
},
{
name = nasal;
pos = (468,732);
},
{
name = nukta;
pos = (371,113);
}
);
layerId = master02;
shapes = (
{
closed = 1;
nodes = (
(595,494,l),
(595,597,l),
(-30,597,l),
(-30,494,l),
(79,494,l),
(92,429,o),
(100,357,o),
(100,312,cs),
(100,305,o),
(100,300,o),
(98,285,c),
(29,102,l),
(38,72,o),
(71,46,o),
(109,46,cs),
(155,46,o),
(226,74,o),
(231,226,c),
(495,226,l),
(535,330,l),
(230,330,l),
(229,373,o),
(223,431,o),
(211,494,c)
);
}
);
vertWidth = 1130;
width = 560;
},
{
anchors = (
{
name = abovevowel;
pos = (410,577);
},
{
name = belowvowel;
pos = (259,0);
},
{
name = joint;
pos = (410,291);
},
{
name = nasal;
pos = (433,728);
},
{
name = nukta;
pos = (284,120);
}
);
layerId = master03;
shapes = (
{
closed = 1;
nodes = (
(497,539,l),
(497,577,l),
(-30,577,l),
(-30,539,l),
(94,539,l),
(110,448,o),
(121,343,o),
(121,290,cs),
(121,286,o),
(121,269,o),
(120,261,c),
(54,92,l),
(58,82,o),
(69,70,o),
(90,70,cs),
(133,70,o),
(166,159,o),
(169,251,c),
(437,251,l),
(457,291,l),
(170,291,l),
(166,368,o),
(154,457,o),
(139,539,c)
);
}
);
vertWidth = 814;
width = 462;
}
);
subCategory = "";
},
{
category = Letter;
glyphname = "VS5_ka-gurmukhi.rlig";
lastChange = "2025-02-11 00:06:23 +0000";
layers = (
{
layerId = master02;
shapes = (
{
closed = 1;
nodes = (
(125,345,l),
(305,132,l),
(367,174,l),
(188,388,l)
);
},
{
ref = "ka-gurmukhi";
}
);
vertWidth = 1130;
width = 610;
},
{
layerId = master03;
shapes = (
{
closed = 1;
nodes = (
(98,307,l),
(301,116,l),
(328,144,l),
(126,336,l)
);
},
{
ref = "ka-gurmukhi";
}
);
vertWidth = 814;
width = 567;
}
);
subCategory = "";
},
{
category = Letter;
glyphname = "VS5_dha-gurmukhi.rlig";
lastChange = "2025-02-11 00:07:29 +0000";
layers = (
{
layerId = master02;
shapes = (
{
closed = 1;
nodes = (
(105,456,l),
(427,141,l),
(497,212,l),
(175,527,l)
);
},
{
ref = "dha-gurmukhi";
}
);
vertWidth = 1130;
width = 603;
},
{
layerId = master03;
shapes = (
{
closed = 1;
nodes = (
(109,518,l),
(417,189,l),
(446,216,l),
(139,545,l)
);
},
{
ref = "dha-gurmukhi";
}
);
vertWidth = 814;
width = 569;
}
);
subCategory = "";
},
{
glyphname = "la_yakash_iMatra_ooMatra-gurmukhi.rlig";
lastChange = "2025-01-08 18:07:04 +0000";
layers = (
{
layerId = master03;
shapes = (
{
ref = "iMatra-gurmukhi";
},
{
pos = (243,0);
ref = "la-gurmukhi";
},
{
pos = (798,14);
ref = "yakash-gurmukhi";
},
{
closed = 1;
nodes = (
(703,682,o),
(692,577,o),
(692,577,c),
(739,577,l),
(739,705,o),
(660,720,o),
(618,720,c),
(572,720,o),
(548,716,o),
(502,745,c),
(479,715,l),
(518,688,o),
(548,682,o),
(599,682,c)
);
}
);
width = 882;
},
{
layerId = master02;
shapes = (
{
ref = "iMatra-gurmukhi";
},
{
pos = (263,0);
ref = "la-gurmukhi";
},
{
pos = (891,79);
ref = "yakash-gurmukhi";
},
{
closed = 1;
nodes = (
(735,679,o),
(709,597,o),
(709,597,c),
(838,597,l),
(838,725,o),
(831,774,o),
(673,774,c),
(613,774,o),
(551,765,o),
(502,793,c),
(465,699,l),
(525,668,o),
(615,679,o),
(649,679,c)
);
}
);
width = 977;
}
);
},
{
glyphname = "rra_haBelow-gurmukhi";
lastChange = "2025-02-10 22:11:23 +0000";
layers = (
{
anchors = (
{
name = abovevowel;
pos = (397,597);
},
{
name = belowvowel;
pos = (273,-152);
},
{
name = nasal;
pos = (463,732);
}
);
layerId = master02;
shapes = (
{
closed = 1;
nodes = (
(514,-160,o),
(576,-109,o),
(576,-45,cs),
(576,-9,o),
(574,2,o),
(488,106,c),
(512,134,o),
(528,172,o),
(528,219,cs),
(528,268,o),
(507,311,o),
(468,342,c),
(497,378,o),
(520,432,o),
(528,494,c),
(602,494,l),
(602,597,l),
(-20,597,l),
(-20,494,l),
(396,494,l),
(391,458,o),
(379,421,o),
(361,392,c),
(104,392,l),
(96,381,o),
(85,363,o),
(85,337,cs),
(85,290,o),
(124,267,o),
(225,267,cs),
(275,267,o),
(327,277,o),
(366,289,c),
(384,275,o),
(395,253,o),
(395,230,cs),
(395,174,o),
(352,138,o),
(260,138,cs),
(168,138,o),
(108,169,o),
(72,190,c),
(14,114,l),
(185,-111,l),
(272,-52,l),
(181,44,l),
(197,39,o),
(212,36,o),
(228,34,cs),
(237,33,o),
(262,31,o),
(276,31,cs),
(343,31,o),
(379,44,o),
(400,54,c),
(467,-22,o),
(472,-31,o),
(472,-42,cs),
(472,-57,o),
(459,-75,o),
(429,-75,cs),
(403,-75,o),
(389,-60,o),
(388,-53,c),
(312,-106,l),
(312,-106,o),
(344,-160,o),
(425,-160,cs)
);
}
);
vertWidth = 1130;
width = 572;
},
{
anchors = (
{
name = abovevowel;
pos = (390,577);
},
{
name = belowvowel;
pos = (235,-20);
},
{
name = nasal;
pos = (413,728);
}
);
layerId = master03;
shapes = (
{
closed = 1;
nodes = (
(429,-84,o),
(463,-50,o),
(463,-12,c),
(463,22,o),
(415,63,o),
(391,89,c),
(411,106,o),
(440,140,o),
(440,200,cs),
(440,266,o),
(400,310,o),
(365,333,c),
(405,379,o),
(434,454,o),
(439,539,c),
(534,539,l),
(534,577,l),
(-20,577,l),
(-20,539,l),
(390,539,l),
(385,447,o),
(357,394,o),
(331,357,c),
(84,357,l),
(80,349,o),
(79,342,o),
(79,337,cs),
(79,307,o),
(107,298,o),
(180,298,cs),
(240,298,o),
(285,304,o),
(323,314,c),
(357,295,o),
(391,263,o),
(391,204,cs),
(391,133,o),
(344,78,o),
(230,78,cs),
(169,78,o),
(101,98,o),
(58,133,c),
(30,105,l),
(157,-76,l),
(192,-54,l),
(93,70,l),
(105,63,o),
(119,57,o),
(135,52,cs),
(163,43,o),
(189,37,o),
(234,37,cs),
(291,37,o),
(334,51,o),
(359,66,c),
(415,16,o),
(419,1,o),
(419,-12,cs),
(419,-28,o),
(402,-46,o),
(371,-46,cs),
(344,-46,o),
(325,-31,o),
(325,-13,c),
(291,-36,l),
(289,-52,o),
(306,-84,o),
(370,-84,cs)
);
}
);
vertWidth = 814;
width = 504;
}
);
},
{
category = Letter;
glyphname = ja_halant_nya.rlig;
lastChange = "2025-02-11 00:31:52 +0000";
layers = (
{
anchors = (
{
name = abovevowel;
pos = (428,596);
},
{
name = belowvowel;
pos = (330,0);
},
{
name = joint;
pos = (428,0);
},
{
name = nasal;
pos = (494,732);
},
{
name = nukta;
pos = (332,69);
}
);
layerId = master02;
shapes = (
{
closed = 1;
nodes = (
(231,0,l),
(231,145,l),
(428,145,l),
(428,0,l),
(561,0,l),
(561,494,l),
(646,494,l),
(646,597,l),
(-20,597,l),
(-20,494,l),
(428,494,l),
(428,249,l),
(231,249,l),
(231,312,l),
(218,323,o),
(194,332,o),
(161,332,cs),
(92,332,o),
(29,287,o),
(29,218,cs),
(29,167,o),
(68,145,o),
(98,140,c),
(98,0,l)
);
},
{
closed = 1;
nodes = (
(231,331,l),
(477,331,l),
(477,435,l),
(364,435,l),
(364,549,l),
(231,549,l)
);
}
);
vertWidth = 1130;
width = 626;
},
{
anchors = (
{
name = abovevowel;
pos = (440,577);
},
{
name = belowvowel;
pos = (299,0);
},
{
name = joint;
pos = (440,0);
},
{
name = nasal;
pos = (463,728);
},
{
name = nukta;
pos = (299,95);
}
);
layerId = master03;
shapes = (
{
closed = 1;
nodes = (
(158,0,l),
(158,187,l),
(440,187,l),
(440,0,l),
(487,0,l),
(487,539,l),
(605,539,l),
(605,577,l),
(-20,577,l),
(-20,539,l),
(440,539,l),
(440,227,l),
(158,227,l),
(158,293,l),
(149,297,o),
(139,300,o),
(125,300,cs),
(87,300,o),
(50,268,o),
(50,232,cs),
(50,198,o),
(76,185,o),
(111,185,c),
(111,0,l)
);
},
{
closed = 1;
nodes = (
(262,372,l),
(459,372,l),
(459,412,l),
(309,412,l),
(309,556,l),
(262,556,l)
);
}
);
vertWidth = 814;
width = 585;
}
);
script = gurmukhi;
subCategory = Ligature;
},
{
glyphname = "zero-gurmukhi";
lastChange = "2025-02-10 14:47:08 +0000";
layers = (
{
layerId = master02;
shapes = (
{
closed = 1;
nodes = (
(422,-12,o),
(519,96,o),
(519,296,cs),
(519,496,o),
(422,604,o),
(274,604,cs),
(126,604,o),
(30,496,o),
(30,296,cs),
(30,96,o),
(126,-12,o),
(274,-12,cs)
);
},
{
closed = 1;
nodes = (
(192,93,o),
(152,180,o),
(152,296,cs),
(152,412,o),
(193,500,o),
(274,500,cs),
(355,500,o),
(397,412,o),
(397,296,cs),
(397,180,o),
(356,93,o),
(274,93,cs)
);
}
);
vertWidth = 1130;
width = 549;
},
{
layerId = master03;
shapes = (
{
closed = 1;
nodes = (
(378,0,o),
(442,131,o),
(442,291,cs),
(442,451,o),
(378,579,o),
(236,579,cs),
(94,579,o),
(30,451,o),
(30,291,cs),
(30,131,o),
(94,0,o),
(236,0,cs)
);
},
{
closed = 1;
nodes = (
(136,40,o),
(77,151,o),
(77,291,cs),
(77,431,o),
(136,539,o),
(236,539,cs),
(336,539,o),
(395,431,o),
(395,291,cs),
(395,151,o),
(336,40,o),
(236,40,cs)
);
}
);
vertWidth = 814;
width = 487;
}
);
unicode = 2662;
},
{
glyphname = "one-gurmukhi";
lastChange = "2025-02-10 14:41:30 +0000";
layers = (
{
layerId = master02;
shapes = (
{
closed = 1;
nodes = (
(441,0,l),
(441,409,ls),
(441,508,o),
(377,604,o),
(235,604,cs),
(117,604,o),
(30,530,o),
(30,418,cs),
(30,298,o),
(117,236,o),
(229,236,cs),
(271,236,o),
(301,246,o),
(319,257,c),
(319,0,l)
);
},
{
closed = 1;
nodes = (
(195,336,o),
(159,363,o),
(159,418,cs),
(159,466,o),
(193,497,o),
(236,497,cs),
(280,497,o),
(314,473,o),
(314,417,cs),
(314,362,l),
(301,351,o),
(276,336,o),
(240,336,cs)
);
}
);
vertWidth = 1130;
width = 505;
},
{
layerId = master03;
shapes = (
{
closed = 1;
nodes = (
(354,0,l),
(354,440,ls),
(354,523,o),
(298,584,o),
(204,584,cs),
(120,584,o),
(45,528,o),
(45,427,cs),
(45,322,o),
(121,268,o),
(203,268,cs),
(256,268,o),
(290,284,o),
(307,298,c),
(307,0,l)
);
},
{
closed = 1;
nodes = (
(147,309,o),
(93,347,o),
(93,428,cs),
(93,494,o),
(137,543,o),
(204,543,cs),
(275,543,o),
(310,494,o),
(310,439,cs),
(310,348,l),
(290,327,o),
(254,309,o),
(206,309,cs)
);
}
);
vertWidth = 814;
width = 452;
}
);
unicode = 2663;
},
{
glyphname = "two-gurmukhi";
lastChange = "2025-02-10 14:24:37 +0000";
layers = (
{
layerId = master02;
shapes = (
{
closed = 1;
nodes = (
(488,27,l),
(351,107,l),
(414,134,o),
(488,232,o),
(488,372,cs),
(488,515,o),
(378,604,o),
(227,604,cs),
(157,604,o),
(97,584,o),
(69,569,c),
(106,472,l),
(133,483,o),
(176,497,o),
(218,497,cs),
(298,497,o),
(351,444,o),
(351,373,cs),
(351,285,o),
(304,197,o),
(236,186,c),
(113,272,l),
(78,273,o),
(40,245,o),
(40,192,cs),
(40,123,o),
(127,80,o),
(220,79,c),
(403,-53,l)
);
}
);
vertWidth = 1130;
width = 538;
},
{
layerId = master03;
shapes = (
{
closed = 1;
nodes = (
(415,17,l),
(248,112,l),
(320,123,o),
(421,254,o),
(421,380,cs),
(421,512,o),
(317,579,o),
(208,579,cs),
(142,579,o),
(89,554,o),
(67,539,c),
(88,503,l),
(120,521,o),
(158,538,o),
(208,538,cs),
(295,538,o),
(372,477,o),
(372,380,cs),
(372,277,o),
(283,150,o),
(208,144,c),
(82,232,l),
(67,230,o),
(45,213,o),
(45,187,cs),
(45,141,o),
(111,104,o),
(195,103,c),
(380,-14,l)
);
}
);
vertWidth = 814;
width = 486;
}
);
unicode = 2664;
},
{
glyphname = "three-gurmukhi";
lastChange = "2025-02-10 14:24:19 +0000";
layers = (
{
layerId = master02;
shapes = (
{
closed = 1;
nodes = (
(373,-14,o),
(470,32,o),
(470,175,cs),
(470,226,o),
(439,278,o),
(398,308,c),
(429,329,o),
(461,366,o),
(461,434,cs),
(461,523,o),
(378,604,o),
(216,604,cs),
(138,604,o),
(66,577,o),
(35,554,c),
(81,470,l),
(127,495,o),
(162,505,o),
(211,505,cs),
(284,505,o),
(328,469,o),
(328,421,cs),
(328,390,o),
(317,374,o),
(301,363,c),
(115,363,l),
(106,351,o),
(100,336,o),
(100,319,cs),
(100,279,o),
(122,251,o),
(216,251,cs),
(255,251,o),
(262,258,o),
(284,265,c),
(320,246,o),
(337,211,o),
(337,173,cs),
(337,134,o),
(308,92,o),
(247,87,c),
(176,87,o),
(129,112,o),
(87,135,c),
(41,41,l),
(78,12,o),
(157,-13,o),
(242,-14,c)
);
}
);
vertWidth = 1130;
width = 526;
},
{
layerId = master03;
shapes = (
{
closed = 1;
nodes = (
(381,2,o),
(424,80,o),
(424,171,cs),
(424,245,o),
(381,287,o),
(344,308,c),
(376,325,o),
(415,357,o),
(415,425,cs),
(415,517,o),
(340,579,o),
(224,579,cs),
(150,579,o),
(92,551,o),
(63,530,c),
(85,496,l),
(119,518,o),
(169,539,o),
(223,539,cs),
(312,539,o),
(367,495,o),
(367,425,cs),
(367,374,o),
(340,347,o),
(310,334,c),
(134,334,l),
(129,326,o),
(128,319,o),
(128,312,cs),
(128,286,o),
(153,276,o),
(207,276,cs),
(249,276,o),
(265,283,o),
(297,288,c),
(345,268,o),
(376,226,o),
(376,172,cs),
(376,86,o),
(316,41,o),
(242,41,c),
(168,41,o),
(113,72,o),
(83,84,c),
(65,52,l),
(96,33,o),
(161,2,o),
(240,2,c)
);
}
);
vertWidth = 814;
width = 494;
}
);
unicode = 2665;
},
{
glyphname = "four-gurmukhi";
lastChange = "2025-02-09 16:49:42 +0000";
layers = (
{
layerId = master02;
shapes = (
{
closed = 1;
nodes = (
(436,-12,o),
(534,50,o),
(534,161,cs),
(534,223,o),
(500,270,o),
(446,300,c),
(486,318,o),
(541,363,o),
(541,440,cs),
(541,535,o),
(464,589,o),
(393,603,c),
(359,506,l),
(385,497,o),
(417,479,o),
(417,437,cs),
(417,387,o),
(360,355,o),
(298,347,c),
(227,356,o),
(176,388,o),
(176,436,cs),
(176,478,o),
(202,495,o),
(226,506,c),
(189,604,l),
(118,590,o),
(50,536,o),
(50,446,cs),
(50,366,o),
(94,322,o),
(149,301,c),
(99,277,o),
(60,235,o),
(60,163,cs),
(60,45,o),
(163,-12,o),
(297,-12,cs)
);
},
{
closed = 1;
nodes = (
(239,96,o),
(198,122,o),
(198,170,cs),
(198,219,o),
(247,253,o),
(297,260,c),
(352,253,o),
(397,216,o),
(397,172,cs),
(397,124,o),
(358,96,o),
(299,96,cs)
);
}
);
vertWidth = 1130;
width = 591;
},
{
layerId = master03;
shapes = (
{
closed = 1;
nodes = (
(394,-2,o),
(470,60,o),
(470,148,cs),
(470,228,o),
(414,275,o),
(344,298,c),
(403,315,o),
(480,359,o),
(480,440,cs),
(480,522,o),
(423,562,o),
(366,579,c),
(350,539,l),
(390,523,o),
(433,498,o),
(433,440,cs),
(433,371,o),
(357,330,o),
(272,316,c),
(178,330,o),
(114,373,o),
(114,438,cs),
(114,494,o),
(149,522,o),
(193,539,c),
(179,579,l),
(129,568,o),
(65,529,o),
(65,443,cs),
(65,371,o),
(122,318,o),
(196,299,c),
(121,273,o),
(75,224,o),
(75,150,cs),
(75,55,o),
(158,-2,o),
(271,-2,cs)
);
},
{
closed = 1;
nodes = (
(191,39,o),
(123,80,o),
(123,153,cs),
(123,224,o),
(185,267,o),
(273,283,c),
(355,268,o),
(422,227,o),
(422,152,cs),
(422,89,o),
(372,39,o),
(275,39,cs)
);
}
);
vertWidth = 814;
width = 550;
}
);
unicode = 2666;
},
{
glyphname = "five-gurmukhi";
lastChange = "2025-02-09 21:53:25 +0000";
layers = (
{
layerId = master02;
shapes = (
{
closed = 1;
nodes = (
(534,0,l),
(534,597,l),
(401,597,l),
(401,235,l),
(371,213,o),
(334,202,o),
(291,202,cs),
(241,202,o),
(195,219,o),
(175,249,c),
(198,294,o),
(219,346,o),
(219,415,cs),
(219,487,o),
(190,559,o),
(163,601,c),
(53,554,l),
(66,523,o),
(86,476,o),
(86,418,cs),
(86,362,o),
(69,297,o),
(33,239,c),
(87,140,o),
(178,97,o),
(285,97,cs),
(335,97,o),
(373,107,o),
(401,121,c),
(401,0,l)
);
}
);
vertWidth = 1130;
width = 606;
},
{
layerId = master03;
shapes = (
{
closed = 1;
nodes = (
(446,0,l),
(446,577,l),
(399,577,l),
(399,223,l),
(369,191,o),
(321,171,o),
(259,171,cs),
(197,171,o),
(127,203,o),
(100,253,c),
(130,298,o),
(157,354,o),
(157,429,cs),
(157,476,o),
(144,534,o),
(121,581,c),
(79,562,l),
(92,535,o),
(108,485,o),
(108,432,cs),
(108,363,o),
(86,315,o),
(45,252,c),
(82,181,o),
(160,131,o),
(256,131,cs),
(321,131,o),
(367,148,o),
(399,172,c),
(399,0,l)
);
}
);
vertWidth = 814;
width = 551;
}
);
unicode = 2667;
},
{
glyphname = "six-gurmukhi";
lastChange = "2022-07-28 14:58:28 +0000";
layers = (
{
layerId = master02;
shapes = (
{
closed = 1;
nodes = (
(410,-12,o),
(468,21,o),
(495,40,c),
(447,132,l),
(429,121,o),
(374,94,o),
(310,94,cs),
(220,94,o),
(178,134,o),
(178,182,cs),
(178,219,o),
(201,242,o),
(221,249,c),
(258,241,o),
(299,235,o),
(341,235,cs),
(413,235,o),
(443,255,o),
(443,304,cs),
(443,322,o),
(435,338,o),
(428,347,c),
(218,347,l),
(201,355,o),
(187,373,o),
(187,396,cs),
(187,438,o),
(221,470,o),
(296,470,cs),
(351,470,o),
(412,455,o),
(439,445,c),
(471,539,l),
(430,549,o),
(388,559,o),
(388,609,cs),
(388,639,o),
(411,661,o),
(440,661,cs),
(450,661,o),
(458,660,o),
(469,657,c),
(489,756,l),
(472,762,o),
(441,766,o),
(419,766,cs),
(327,766,o),
(261,716,o),
(261,641,cs),
(261,615,o),
(273,588,o),
(293,569,c),
(120,568,o),
(54,487,o),
(54,406,cs),
(54,349,o),
(82,316,o),
(116,296,c),
(76,273,o),
(45,229,o),
(45,171,cs),
(45,65,o),
(136,-12,o),
(300,-12,cs)
);
}
);
vertWidth = 1130;
width = 525;
},
{
layerId = master03;
shapes = (
{
closed = 1;
nodes = (
(348,0,o),
(403,27,o),
(430,51,c),
(406,83,l),
(378,61,o),
(330,41,o),
(271,41,cs),
(174,41,o),
(107,89,o),
(107,163,cs),
(107,215,o),
(143,256,o),
(182,268,c),
(222,259,o),
(256,254,o),
(304,254,cs),
(363,254,o),
(384,263,o),
(384,285,cs),
(384,297,o),
(381,303,o),
(378,308,c),
(170,308,l),
(145,317,o),
(111,344,o),
(111,394,cs),
(111,443,o),
(150,496,o),
(259,496,cs),
(309,496,o),
(353,482,o),
(388,467,c),
(405,501,l),
(356,523,o),
(324,552,o),
(324,594,cs),
(324,638,o),
(354,658,o),
(389,658,cs),
(400,658,o),
(413,656,o),
(422,653,c),
(434,689,l),
(425,693,o),
(408,698,o),
(385,698,cs),
(329,698,o),
(276,668,o),
(276,602,cs),
(276,572,o),
(289,548,o),
(305,532,c),
(189,549,o),
(63,517,o),
(63,396,cs),
(63,338,o),
(96,303,o),
(131,285,c),
(89,263,o),
(59,217,o),
(59,165,cs),
(59,66,o),
(141,0,o),
(269,0,cs)
);
}
);
vertWidth = 814;
width = 494;
}
);
unicode = 2668;
},
{
glyphname = "seven-gurmukhi";
lastChange = "2025-02-09 16:26:22 +0000";
layers = (
{
layerId = master02;
shapes = (
{
closed = 1;
nodes = (
(255,10,o),
(512,112,o),
(512,368,cs),
(512,502,o),
(415,606,o),
(270,606,cs),
(126,606,o),
(35,518,o),
(35,400,cs),
(35,359,o),
(48,319,o),
(67,292,c),
(181,331,l),
(173,348,o),
(167,371,o),
(167,393,cs),
(167,464,o),
(212,499,o),
(269,499,cs),
(320,499,o),
(375,462,o),
(375,369,cs),
(375,215,o),
(237,127,o),
(39,95,c),
(58,-12,l)
);
}
);
vertWidth = 1130;
width = 547;
},
{
layerId = master03;
shapes = (
{
closed = 1;
nodes = (
(257,21,o),
(458,138,o),
(458,366,cs),
(458,502,o),
(371,584,o),
(254,584,cs),
(144,584,o),
(60,517,o),
(60,410,cs),
(60,345,o),
(95,297,o),
(122,276,c),
(154,307,l),
(126,333,o),
(109,372,o),
(109,409,cs),
(109,498,o),
(181,543,o),
(252,543,cs),
(353,543,o),
(409,468,o),
(409,364,cs),
(409,175,o),
(245,65,o),
(62,38,c),
(70,-3,l)
);
}
);
vertWidth = 814;
width = 518;
}
);
unicode = 2669;
},
{
glyphname = "eight-gurmukhi";
lastChange = "2025-02-10 14:49:16 +0000";
layers = (
{
layerId = master02;
shapes = (
{
closed = 1;
nodes = (
(475,-8,o),
(511,19,o),
(511,19,c),
(460,109,l),
(460,109,o),
(445,100,o),
(381,100,cs),
(233,100,o),
(187,195,o),
(187,343,cs),
(187,388,l),
(473,388,l),
(473,491,l),
(187,491,l),
(187,601,l),
(56,555,l),
(56,371,l),
(56,348,ls),
(56,112,o),
(139,-8,o),
(375,-8,cs)
);
}
);
vertWidth = 1130;
width = 531;
},
{
layerId = master03;
shapes = (
{
closed = 1;
nodes = (
(408,-3,o),
(432,29,o),
(432,29,c),
(406,63,l),
(406,63,o),
(389,38,o),
(331,38,cs),
(153,38,o),
(107,210,o),
(107,388,cs),
(107,408,l),
(408,408,l),
(408,448,l),
(107,448,l),
(107,560,l),
(60,542,l),
(60,403,l),
(60,385,ls),
(60,182,o),
(128,-3,o),
(331,-3,cs)
);
}
);
vertWidth = 814;
width = 472;
}
);
unicode = 2670;
},
{
glyphname = "nine-gurmukhi";
lastChange = "2025-02-10 14:48:50 +0000";
layers = (
{
layerId = master02;
shapes = (
{
closed = 1;
nodes = (
(465,-9,o),
(511,19,o),
(511,19,c),
(460,109,l),
(460,109,o),
(435,99,o),
(381,99,cs),
(233,100,o),
(187,195,o),
(187,343,cs),
(187,368,l),
(479,368,l),
(479,471,l),
(444,475,o),
(412,495,o),
(412,533,cs),
(412,567,o),
(438,583,o),
(467,583,cs),
(477,583,o),
(484,582,o),
(493,580,c),
(510,679,l),
(497,683,o),
(469,688,o),
(445,688,cs),
(354,688,o),
(285,643,o),
(285,563,cs),
(285,526,o),
(302,489,o),
(331,471,c),
(189,471,l),
(189,563,l),
(56,516,l),
(56,366,l),
(56,348,ls),
(56,112,o),
(139,-8,o),
(375,-9,cs)
);
}
);
vertWidth = 1130;
width = 526;
},
{
layerId = master03;
shapes = (
{
closed = 1;
nodes = (
(408,-3,o),
(432,29,o),
(432,29,c),
(406,63,l),
(406,63,o),
(389,38,o),
(331,38,cs),
(153,38,o),
(107,210,o),
(107,388,cs),
(107,408,l),
(412,408,l),
(412,446,l),
(376,455,o),
(339,499,o),
(339,541,cs),
(339,568,o),
(361,588,o),
(393,588,cs),
(408,588,o),
(419,584,o),
(428,581,c),
(438,627,l),
(431,629,o),
(410,634,o),
(390,634,cs),
(341,634,o),
(292,606,o),
(292,548,cs),
(292,508,o),
(317,461,o),
(341,446,c),
(107,446,l),
(107,528,l),
(60,510,l),
(60,403,l),
(60,385,ls),
(60,182,o),
(128,-3,o),
(331,-3,cs)
);
}
);
vertWidth = 814;
width = 488;
}
);
unicode = 2671;
},
{
glyphname = zero;
lastChange = "2022-07-27 21:30:10 +0000";
layers = (
{
layerId = master02;
shapes = (
{
closed = 1;
nodes = (
(416,-10,o),
(535,87,o),
(535,301,cs),
(535,520,o),
(428,610,o),
(284,610,cs),
(151,610,o),
(31,510,o),
(31,301,cs),
(31,83,o),
(139,-10,o),
(283,-10,cs)
);
},
{
closed = 1;
nodes = (
(227,93,o),
(176,142,o),
(176,301,cs),
(176,461,o),
(227,506,o),
(284,506,cs),
(341,506,o),
(390,460,o),
(390,301,cs),
(390,142,o),
(341,93,o),
(284,93,cs)
);
}
);
vertWidth = 1130;
width = 565;
},
{
layerId = master03;
shapes = (
{
closed = 1;
nodes = (
(387,-7,o),
(486,88,o),
(486,293,cs),
(486,498,o),
(389,592,o),
(268,592,cs),
(148,592,o),
(48,488,o),
(48,293,cs),
(48,88,o),
(148,-7,o),
(268,-7,cs)
);
},
{
closed = 1;
nodes = (
(183,34,o),
(99,105,o),
(99,293,cs),
(99,471,o),
(179,552,o),
(265,552,cs),
(352,552,o),
(436,480,o),
(436,293,cs),
(436,115,o),
(357,34,o),
(270,34,cs)
);
}
);
vertWidth = 814;
width = 535;
}
);
unicode = 48;
},
{
glyphname = one;
lastChange = "2022-07-27 21:30:10 +0000";
layers = (
{
layerId = master02;
shapes = (
{
closed = 1;
nodes = (
(327,0,l),
(327,598,l),
(209,598,l),
(43,522,l),
(75,419,l),
(188,473,l),
(188,0,l)
);
}
);
vertWidth = 1130;
width = 403;
},
{
layerId = master03;
shapes = (
{
closed = 1;
nodes = (
(232,0,l),
(232,586,l),
(194,586,l),
(50,519,l),
(61,477,l),
(183,530,l),
(183,0,l)
);
}
);
vertWidth = 814;
width = 315;
}
);
unicode = 49;
},
{
glyphname = two;
lastChange = "2022-07-27 21:30:10 +0000";
layers = (
{
layerId = master02;
shapes = (
{
closed = 1;
nodes = (
(428,0,l),
(428,107,l),
(199,107,l),
(259,164,ls),
(366,264,o),
(423,354,o),
(423,434,cs),
(423,536,o),
(348,610,o),
(231,610,cs),
(142,610,o),
(86,582,o),
(40,544,c),
(97,457,l),
(136,489,o),
(171,504,o),
(210,504,cs),
(248,504,o),
(280,478,o),
(280,422,cs),
(280,360,o),
(244,303,o),
(121,180,cs),
(33,92,l),
(58,0,l)
);
}
);
vertWidth = 1130;
width = 468;
},
{
layerId = master03;
shapes = (
{
closed = 1;
nodes = (
(403,0,l),
(403,41,l),
(111,41,l),
(193,120,ls),
(323,246,o),
(379,335,o),
(379,425,cs),
(379,522,o),
(321,592,o),
(206,592,cs),
(158,592,o),
(103,583,o),
(47,536,c),
(71,501,l),
(118,542,o),
(164,552,o),
(206,552,cs),
(285,552,o),
(327,502,o),
(327,423,cs),
(327,335,o),
(265,251,o),
(120,110,cs),
(41,33,l),
(49,0,l)
);
}
);
vertWidth = 814;
width = 443;
}
);
unicode = 50;
},
{
glyphname = three;
lastChange = "2022-07-27 21:30:10 +0000";
layers = (
{
layerId = master02;
shapes = (
{
closed = 1;
nodes = (
(333,-10,o),
(428,47,o),
(428,166,cs),
(428,238,o),
(379,294,o),
(307,309,c),
(361,332,o),
(407,376,o),
(407,450,cs),
(407,539,o),
(330,610,o),
(211,610,cs),
(139,610,o),
(89,595,o),
(46,567,c),
(89,474,l),
(120,495,o),
(151,505,o),
(183,505,cs),
(228,505,o),
(264,482,o),
(264,433,cs),
(264,382,o),
(226,351,o),
(157,351,cs),
(109,351,l),
(109,248,l),
(177,248,ls),
(250,248,o),
(283,215,o),
(283,169,cs),
(283,124,o),
(244,95,o),
(178,95,cs),
(133,95,o),
(98,107,o),
(60,125,c),
(30,28,l),
(74,4,o),
(134,-10,o),
(202,-10,cs)
);
}
);
vertWidth = 1130;
width = 478;
},
{
layerId = master03;
shapes = (
{
closed = 1;
nodes = (
(283,-7,o),
(388,36,o),
(388,157,cs),
(388,227,o),
(339,281,o),
(271,299,c),
(325,319,o),
(367,367,o),
(367,440,cs),
(367,527,o),
(298,592,o),
(196,592,cs),
(145,592,o),
(96,581,o),
(49,550,c),
(65,514,l),
(114,543,o),
(149,552,o),
(193,552,cs),
(271,552,o),
(319,505,o),
(319,437,cs),
(319,358,o),
(249,314,o),
(167,314,cs),
(112,314,l),
(112,274,l),
(185,274,ls),
(274,274,o),
(337,230,o),
(337,157,cs),
(337,72,o),
(261,34,o),
(184,34,cs),
(131,34,o),
(85,44,o),
(49,62,c),
(38,23,l),
(76,4,o),
(135,-7,o),
(185,-7,cs)
);
}
);
vertWidth = 814;
width = 456;
}
);
unicode = 51;
},
{
glyphname = four;
lastChange = "2022-07-27 21:30:10 +0000";
layers = (
{
layerId = master02;
shapes = (
{
closed = 1;
nodes = (
(429,0,l),
(429,133,l),
(514,133,l),
(514,240,l),
(429,240,l),
(429,598,l),
(259,598,l),
(19,223,l),
(19,133,l),
(294,133,l),
(294,0,l)
);
},
{
closed = 1;
nodes = (
(240,366,l),
(298,479,l),
(300,479,l),
(294,354,l),
(294,240,l),
(161,240,l)
);
}
);
vertWidth = 1130;
width = 538;
},
{
layerId = master03;
shapes = (
{
closed = 1;
nodes = (
(365,0,l),
(365,158,l),
(466,158,l),
(466,199,l),
(365,199,l),
(365,586,l),
(308,586,l),
(18,187,l),
(18,158,l),
(314,158,l),
(314,0,l)
);
},
{
closed = 1;
nodes = (
(238,415,l),
(316,537,l),
(317,537,l),
(314,410,l),
(314,199,l),
(81,199,l)
);
}
);
vertWidth = 814;
width = 498;
}
);
unicode = 52;
},
{
glyphname = five;
lastChange = "2022-07-27 21:30:10 +0000";
layers = (
{
layerId = master02;
shapes = (
{
closed = 1;
nodes = (
(377,-10,o),
(453,85,o),
(453,199,cs),
(453,327,o),
(360,386,o),
(248,386,cs),
(233,386,o),
(227,386,o),
(209,384,c),
(221,493,l),
(427,493,l),
(427,600,l),
(117,598,l),
(87,275,l),
(116,281,o),
(150,287,o),
(183,287,cs),
(256,287,o),
(309,254,o),
(309,190,cs),
(309,138,o),
(267,97,o),
(190,97,cs),
(145,97,o),
(112,108,o),
(79,124,c),
(50,23,l),
(86,5,o),
(139,-10,o),
(205,-10,cs)
);
}
);
vertWidth = 1130;
width = 507;
},
{
layerId = master03;
shapes = (
{
closed = 1;
nodes = (
(300,-7,o),
(383,67,o),
(383,178,cs),
(383,291,o),
(286,351,o),
(182,351,cs),
(155,351,o),
(129,348,o),
(115,345,c),
(136,546,l),
(370,546,l),
(370,587,l),
(97,587,l),
(68,299,l),
(101,308,o),
(129,311,o),
(165,311,cs),
(267,311,o),
(332,257,o),
(332,175,cs),
(332,77,o),
(259,34,o),
(164,34,cs),
(126,34,o),
(81,42,o),
(53,59,c),
(40,18,l),
(71,0,o),
(121,-7,o),
(166,-7,cs)
);
}
);
vertWidth = 814;
width = 445;
}
);
unicode = 53;
},
{
glyphname = six;
lastChange = "2022-07-27 21:30:10 +0000";
layers = (
{
layerId = master02;
shapes = (
{
closed = 1;
nodes = (
(408,-10,o),
(493,80,o),
(493,205,cs),
(493,327,o),
(414,403,o),
(301,403,cs),
(254,403,o),
(208,389,o),
(178,363,c),
(186,442,o),
(231,504,o),
(318,504,cs),
(353,504,o),
(382,496,o),
(408,481,c),
(439,584,l),
(401,604,o),
(359,610,o),
(315,610,cs),
(177,610,o),
(33,512,o),
(33,279,cs),
(33,61,o),
(163,-10,o),
(275,-10,cs)
);
},
{
closed = 1;
nodes = (
(212,92,o),
(177,145,o),
(177,214,cs),
(177,240,o),
(183,256,o),
(194,267,c),
(208,283,o),
(234,298,o),
(269,298,cs),
(320,298,o),
(352,266,o),
(352,200,cs),
(352,143,o),
(323,92,o),
(273,92,cs)
);
}
);
vertWidth = 1130;
width = 526;
},
{
layerId = master03;
shapes = (
{
closed = 1;
nodes = (
(355,-7,o),
(436,75,o),
(436,196,cs),
(436,319,o),
(352,385,o),
(250,385,cs),
(174,385,o),
(113,344,o),
(87,303,c),
(95,462,o),
(181,552,o),
(298,552,cs),
(332,552,o),
(358,548,o),
(385,536,c),
(396,576,l),
(362,588,o),
(335,592,o),
(291,592,cs),
(170,592,o),
(41,498,o),
(41,269,cs),
(41,60,o),
(141,-7,o),
(244,-7,cs)
);
},
{
closed = 1;
nodes = (
(160,34,o),
(91,102,o),
(91,215,cs),
(91,228,o),
(95,242,o),
(99,252,cs),
(118,300,o),
(173,345,o),
(241,345,cs),
(323,345,o),
(386,295,o),
(386,193,cs),
(386,95,o),
(323,34,o),
(245,34,cs)
);
}
);
vertWidth = 814;
width = 469;
}
);
unicode = 54;
},
{
glyphname = seven;
lastChange = "2022-07-27 21:30:10 +0000";
layers = (
{
layerId = master02;
shapes = (
{
closed = 1;
nodes = (
(436,511,l),
(436,598,l),
(45,598,l),
(45,501,l),
(301,501,l),
(63,29,l),
(185,-24,l)
);
}
);
vertWidth = 1130;
width = 470;
},
{
layerId = master03;
shapes = (
{
closed = 1;
nodes = (
(418,557,l),
(418,586,l),
(52,586,l),
(52,545,l),
(362,545,l),
(101,12,l),
(146,-8,l)
);
}
);
vertWidth = 814;
width = 460;
}
);
unicode = 55;
},
{
glyphname = eight;
lastChange = "2022-07-27 21:30:10 +0000";
layers = (
{
layerId = master02;
shapes = (
{
closed = 1;
nodes = (
(382,-10,o),
(472,65,o),
(472,175,cs),
(472,253,o),
(413,298,o),
(352,317,c),
(413,343,o),
(457,388,o),
(457,453,cs),
(457,531,o),
(392,610,o),
(256,610,cs),
(118,610,o),
(47,522,o),
(47,439,cs),
(47,379,o),
(88,331,o),
(141,307,c),
(79,283,o),
(27,240,o),
(27,162,cs),
(27,62,o),
(110,-10,o),
(245,-10,cs)
);
},
{
closed = 1;
nodes = (
(200,92,o),
(168,121,o),
(168,166,cs),
(168,208,o),
(199,238,o),
(243,252,c),
(294,241,o),
(332,210,o),
(332,167,cs),
(332,125,o),
(296,92,o),
(252,92,cs)
);
},
{
closed = 1;
nodes = (
(216,374,o),
(182,406,o),
(182,448,cs),
(182,481,o),
(209,509,o),
(251,509,cs),
(294,509,o),
(320,486,o),
(320,442,cs),
(320,409,o),
(292,376,o),
(257,364,c)
);
}
);
vertWidth = 1130;
width = 499;
},
{
layerId = master03;
shapes = (
{
closed = 1;
nodes = (
(344,-7,o),
(430,52,o),
(430,156,cs),
(430,230,o),
(382,282,o),
(299,310,c),
(387,342,o),
(415,390,o),
(415,446,cs),
(415,524,o),
(352,592,o),
(236,592,cs),
(119,592,o),
(59,527,o),
(59,444,cs),
(59,380,o),
(97,335,o),
(167,307,c),
(79,277,o),
(39,228,o),
(39,152,cs),
(39,53,o),
(124,-7,o),
(235,-7,cs)
);
},
{
closed = 1;
nodes = (
(137,34,o),
(87,90,o),
(87,154,cs),
(87,225,o),
(146,271,o),
(232,285,c),
(323,270,o),
(383,221,o),
(383,154,cs),
(383,90,o),
(328,34,o),
(235,34,cs)
);
},
{
closed = 1;
nodes = (
(165,342,o),
(110,380,o),
(110,445,cs),
(110,504,o),
(154,552,o),
(236,552,cs),
(302,552,o),
(363,513,o),
(363,445,cs),
(363,383,o),
(301,342,o),
(231,326,c)
);
}
);
vertWidth = 814;
width = 470;
}
);
unicode = 56;
},
{
glyphname = nine;
lastChange = "2022-07-27 21:30:10 +0000";
layers = (
{
layerId = master02;
shapes = (
{
closed = 1;
nodes = (
(370,-10,o),
(486,98,o),
(486,326,cs),
(486,529,o),
(377,610,o),
(264,610,cs),
(123,610,o),
(36,526,o),
(36,401,cs),
(36,276,o),
(118,205,o),
(237,205,cs),
(283,205,o),
(319,221,o),
(342,240,c),
(335,154,o),
(292,95,o),
(206,95,cs),
(162,95,o),
(126,106,o),
(99,121,c),
(70,21,l),
(105,1,o),
(154,-10,o),
(220,-10,cs)
);
},
{
closed = 1;
nodes = (
(215,310,o),
(177,339,o),
(177,407,cs),
(177,476,o),
(213,507,o),
(263,507,cs),
(312,507,o),
(342,458,o),
(342,392,cs),
(342,366,o),
(338,349,o),
(330,338,c),
(317,322,o),
(292,310,o),
(265,310,cs)
);
}
);
vertWidth = 1130;
width = 520;
},
{
layerId = master03;
shapes = (
{
closed = 1;
nodes = (
(326,-7,o),
(430,79,o),
(430,317,cs),
(430,516,o),
(329,592,o),
(230,592,cs),
(123,592,o),
(34,521,o),
(34,391,cs),
(34,269,o),
(120,199,o),
(221,199,cs),
(299,199,o),
(356,235,o),
(382,277,c),
(375,114,o),
(303,34,o),
(184,34,cs),
(151,34,o),
(112,39,o),
(88,50,c),
(77,10,l),
(107,-3,o),
(138,-7,o),
(186,-7,cs)
);
},
{
closed = 1;
nodes = (
(147,240,o),
(85,292,o),
(85,392,cs),
(85,492,o),
(150,552,o),
(228,552,cs),
(323,552,o),
(379,449,o),
(379,357,cs),
(379,348,o),
(378,339,o),
(375,328,c),
(355,280,o),
(302,240,o),
(230,240,cs)
);
}
);
vertWidth = 814;
width = 472;
}
);
unicode = 57;
},
{
glyphname = zeroinferior;
lastChange = "2025-02-09 15:51:04 +0000";
layers = (
{
layerId = master03;
shapes = (
{
closed = 1;
nodes = (
(-104,-315,o),
(-48,-282,o),
(-48,-207,cs),
(-48,-134,o),
(-105,-100,o),
(-163,-100,cs),
(-225,-100,o),
(-277,-138,o),
(-277,-207,cs),
(-277,-285,o),
(-223,-315,o),
(-163,-315,cs)
);
},
{
closed = 1;
nodes = (
(-198,-281,o),
(-228,-258,o),
(-228,-207,cs),
(-228,-156,o),
(-197,-133,o),
(-163,-133,cs),
(-126,-133,o),
(-98,-157,o),
(-98,-207,cs),
(-98,-257,o),
(-127,-281,o),
(-163,-281,cs)
);
}
);
width = 0;
},
{
layerId = master02;
shapes = (
{
closed = 1;
nodes = (
(-111,-358,o),
(-42,-316,o),
(-42,-229,cs),
(-42,-144,o),
(-112,-101,o),
(-180,-101,cs),
(-252,-101,o),
(-315,-148,o),
(-315,-229,cs),
(-315,-319,o),
(-250,-358,o),
(-180,-358,cs)
);
},
{
closed = 1;
nodes = (
(-201,-273,o),
(-219,-259,o),
(-219,-229,cs),
(-219,-199,o),
(-200,-185,o),
(-180,-185,cs),
(-158,-185,o),
(-141,-199,o),
(-141,-229,cs),
(-141,-259,o),
(-159,-273,o),
(-180,-273,cs)
);
}
);
width = 0;
}
);
unicode = 8320;
},
{
glyphname = oneinferior;
lastChange = "2025-02-09 15:51:04 +0000";
layers = (
{
layerId = master02;
shapes = (
{
closed = 1;
nodes = (
(-49,-384,l),
(-49,-194,ls),
(-49,-152,o),
(-94,-102,o),
(-166,-102,cs),
(-252,-102,o),
(-286,-158,o),
(-286,-208,cs),
(-286,-261,o),
(-252,-301,o),
(-193,-301,cs),
(-172,-301,o),
(-160,-293,o),
(-151,-286,c),
(-151,-384,l)
);
},
{
closed = 1;
nodes = (
(-190,-229,o),
(-202,-219,o),
(-202,-202,cs),
(-202,-187,o),
(-191,-176,o),
(-176,-176,cs),
(-161,-176,o),
(-153,-187,o),
(-153,-200,cs),
(-153,-219,l),
(-158,-225,o),
(-166,-229,o),
(-176,-229,cs)
);
}
);
vertWidth = 1130;
width = 0;
},
{
layerId = master03;
shapes = (
{
closed = 1;
nodes = (
(-43,-342,l),
(-43,-173,ls),
(-43,-131,o),
(-71,-101,o),
(-118,-101,cs),
(-160,-101,o),
(-197,-129,o),
(-197,-179,cs),
(-197,-232,o),
(-170,-259,o),
(-129,-259,cs),
(-108,-259,o),
(-92,-251,o),
(-83,-244,c),
(-83,-342,l)
);
},
{
closed = 1;
nodes = (
(-142,-221,o),
(-160,-206,o),
(-160,-179,cs),
(-160,-156,o),
(-144,-139,o),
(-121,-139,cs),
(-96,-139,o),
(-85,-156,o),
(-85,-176,cs),
(-85,-206,l),
(-93,-214,o),
(-105,-221,o),
(-120,-221,cs)
);
}
);
vertWidth = 814;
width = 0;
}
);
unicode = 8321;
},
{
glyphname = twoinferior;
lastChange = "2025-02-09 15:51:04 +0000";
layers = (
{
layerId = master03;
shapes = (
{
closed = 1;
nodes = (
(-47,-351,l),
(-118,-296,l),
(-88,-282,o),
(-53,-259,o),
(-53,-199,cs),
(-53,-136,o),
(-95,-100,o),
(-152,-100,cs),
(-187,-100,o),
(-214,-109,o),
(-228,-117,c),
(-217,-149,l),
(-203,-144,o),
(-182,-137,o),
(-161,-137,cs),
(-121,-137,o),
(-94,-163,o),
(-94,-199,cs),
(-94,-232,o),
(-118,-258,o),
(-152,-264,c),
(-193,-229,l),
(-217,-230,o),
(-236,-244,o),
(-236,-271,cs),
(-236,-301,o),
(-209,-311,o),
(-152,-311,c),
(-87,-375,l)
);
}
);
width = 0;
},
{
layerId = master02;
shapes = (
{
closed = 1;
nodes = (
(-150,-346,l),
(-212,-295,l),
(-174,-278,o),
(-137,-247,o),
(-137,-187,cs),
(-137,-116,o),
(-192,-71,o),
(-267,-71,cs),
(-302,-71,o),
(-332,-81,o),
(-346,-89,c),
(-320,-159,l),
(-306,-154,o),
(-285,-147,o),
(-264,-147,cs),
(-235,-147,o),
(-218,-159,o),
(-218,-187,cs),
(-218,-213,o),
(-237,-230,o),
(-271,-236,c),
(-306,-207,l),
(-337,-207,o),
(-368,-222,o),
(-368,-249,cs),
(-368,-283,o),
(-336,-315,o),
(-290,-315,c),
(-203,-396,l)
);
}
);
width = 0;
}
);
unicode = 8322;
},
{
glyphname = threeinferior;
lastChange = "2025-02-09 15:51:15 +0000";
layers = (
{
layerId = master03;
shapes = (
{
closed = 1;
nodes = (
(-29,-427,l),
(-91,-397,l),
(-58,-382,o),
(-49,-353,o),
(-49,-314,cs),
(-49,-288,o),
(-63,-264,o),
(-84,-249,c),
(-68,-239,o),
(-53,-218,o),
(-53,-187,cs),
(-53,-143,o),
(-82,-102,o),
(-163,-102,cs),
(-202,-102,o),
(-238,-116,o),
(-253,-127,c),
(-239,-155,l),
(-212,-141,o),
(-193,-135,o),
(-164,-135,cs),
(-122,-135,o),
(-96,-156,o),
(-96,-184,cs),
(-96,-198,o),
(-102,-210,o),
(-111,-226,c),
(-206,-226,l),
(-210,-231,o),
(-212,-237,o),
(-212,-244,cs),
(-212,-261,o),
(-203,-273,o),
(-163,-273,cs),
(-146,-273,o),
(-129,-270,o),
(-119,-268,c),
(-101,-284,o),
(-90,-301,o),
(-90,-325,cs),
(-90,-347,o),
(-108,-371,o),
(-143,-375,c),
(-237,-331,l),
(-249,-335,o),
(-250,-336,o),
(-250,-357,cs),
(-250,-390,o),
(-195,-408,o),
(-138,-408,c),
(-52,-461,l)
);
}
);
width = 0;
},
{
layerId = master02;
shapes = (
{
closed = 1;
nodes = (
(-45,-422,l),
(-97,-397,l),
(-64,-382,o),
(-44,-362,o),
(-44,-323,cs),
(-44,-297,o),
(-59,-273,o),
(-80,-258,c),
(-64,-248,o),
(-48,-227,o),
(-48,-196,cs),
(-48,-152,o),
(-113,-100,o),
(-194,-100,cs),
(-233,-100,o),
(-275,-113,o),
(-290,-124,c),
(-258,-187,l),
(-235,-175,o),
(-221,-170,o),
(-196,-170,cs),
(-160,-170,o),
(-138,-178,o),
(-138,-202,cs),
(-138,-214,o),
(-159,-217,o),
(-167,-223,c),
(-262,-223,l),
(-266,-229,o),
(-269,-243,o),
(-269,-252,cs),
(-269,-272,o),
(-265,-295,o),
(-218,-295,cs),
(-199,-295,o),
(-171,-289,o),
(-160,-286,c),
(-142,-295,o),
(-133,-303,o),
(-133,-323,cs),
(-133,-342,o),
(-148,-350,o),
(-178,-353,c),
(-264,-319,l),
(-274,-322,o),
(-290,-354,o),
(-290,-375,cs),
(-290,-408,o),
(-235,-428,o),
(-178,-428,c),
(-80,-484,l)
);
}
);
width = 0;
}
);
unicode = 8323;
},
{
glyphname = fourinferior;
lastChange = "2025-02-09 15:51:15 +0000";
layers = (
{
layerId = master03;
shapes = (
{
closed = 1;
nodes = (
(-86,-381,o),
(-47,-349,o),
(-47,-303,cs),
(-47,-278,o),
(-59,-249,o),
(-86,-234,c),
(-66,-225,o),
(-46,-195,o),
(-46,-164,cs),
(-46,-135,o),
(-65,-102,o),
(-100,-95,c),
(-114,-131,l),
(-101,-135,o),
(-86,-144,o),
(-86,-165,cs),
(-86,-190,o),
(-115,-210,o),
(-146,-214,c),
(-181,-210,o),
(-207,-190,o),
(-207,-166,cs),
(-207,-145,o),
(-195,-135,o),
(-183,-130,c),
(-198,-93,l),
(-234,-106,o),
(-250,-135,o),
(-250,-164,cs),
(-250,-197,o),
(-228,-221,o),
(-207,-236,c),
(-232,-254,o),
(-242,-274,o),
(-242,-302,cs),
(-242,-353,o),
(-207,-379,o),
(-146,-380,cs)
);
},
{
closed = 1;
nodes = (
(-175,-342,o),
(-198,-323,o),
(-198,-299,cs),
(-198,-274,o),
(-170,-254,o),
(-145,-251,c),
(-118,-254,o),
(-90,-276,o),
(-90,-298,cs),
(-90,-322,o),
(-116,-342,o),
(-145,-342,cs)
);
}
);
width = 0;
},
{
layerId = master02;
shapes = (
{
closed = 1;
nodes = (
(-106,-442,o),
(-50,-407,o),
(-50,-345,cs),
(-50,-309,o),
(-69,-284,o),
(-100,-267,c),
(-77,-257,o),
(-46,-231,o),
(-46,-188,cs),
(-46,-134,o),
(-90,-103,o),
(-129,-96,c),
(-159,-166,l),
(-149,-168,o),
(-137,-175,o),
(-137,-191,cs),
(-137,-211,o),
(-159,-222,o),
(-183,-225,c),
(-210,-222,o),
(-230,-211,o),
(-230,-191,cs),
(-230,-175,o),
(-220,-169,o),
(-210,-166,c),
(-244,-96,l),
(-284,-103,o),
(-322,-134,o),
(-322,-185,cs),
(-322,-230,o),
(-298,-254,o),
(-266,-265,c),
(-294,-279,o),
(-317,-303,o),
(-317,-343,cs),
(-317,-409,o),
(-258,-442,o),
(-183,-442,cs)
);
},
{
closed = 1;
nodes = (
(-207,-369,o),
(-225,-359,o),
(-225,-339,cs),
(-225,-317,o),
(-204,-303,o),
(-183,-302,c),
(-160,-303,o),
(-141,-319,o),
(-141,-338,cs),
(-141,-358,o),
(-158,-369,o),
(-182,-369,cs)
);
}
);
width = 0;
}
);
unicode = 8324;
},
{
glyphname = fiveinferior;
lastChange = "2025-02-09 15:51:15 +0000";
layers = (
{
layerId = master03;
shapes = (
{
closed = 1;
nodes = (
(-51,-376,l),
(-51,-104,l),
(-98,-104,l),
(-98,-284,l),
(-113,-295,o),
(-124,-301,o),
(-146,-301,cs),
(-171,-301,o),
(-196,-293,o),
(-206,-278,c),
(-194,-256,o),
(-187,-230,o),
(-187,-195,cs),
(-187,-162,o),
(-198,-124,o),
(-212,-103,c),
(-250,-120,l),
(-243,-135,o),
(-232,-165,o),
(-232,-194,cs),
(-232,-222,o),
(-239,-254,o),
(-257,-283,c),
(-236,-321,o),
(-192,-341,o),
(-149,-341,cs),
(-124,-341,o),
(-112,-336,o),
(-98,-329,c),
(-98,-376,l)
);
}
);
width = 0;
},
{
layerId = master02;
shapes = (
{
closed = 1;
nodes = (
(-43,-401,l),
(-43,-102,l),
(-150,-102,l),
(-150,-238,l),
(-160,-250,o),
(-177,-260,o),
(-199,-260,cs),
(-217,-260,o),
(-235,-260,o),
(-245,-245,c),
(-239,-234,o),
(-235,-209,o),
(-235,-191,cs),
(-235,-155,o),
(-249,-121,o),
(-263,-100,c),
(-358,-124,l),
(-351,-139,o),
(-341,-163,o),
(-341,-192,cs),
(-341,-220,o),
(-342,-252,o),
(-360,-281,c),
(-332,-324,o),
(-275,-350,o),
(-230,-350,cs),
(-205,-350,o),
(-162,-340,o),
(-150,-331,c),
(-150,-401,l)
);
}
);
width = 0;
}
);
unicode = 8325;
},
{
glyphname = sixinferior;
lastChange = "2025-02-09 15:51:15 +0000";
layers = (
{
layerId = master03;
shapes = (
{
closed = 1;
nodes = (
(-87,-370,o),
(-53,-353,o),
(-40,-343,c),
(-60,-307,l),
(-69,-313,o),
(-96,-326,o),
(-128,-326,cs),
(-173,-326,o),
(-194,-306,o),
(-194,-282,cs),
(-194,-264,o),
(-178,-245,o),
(-168,-242,c),
(-149,-246,o),
(-128,-247,o),
(-107,-247,cs),
(-81,-247,o),
(-62,-242,o),
(-62,-221,cs),
(-62,-212,o),
(-66,-209,o),
(-69,-205,c),
(-171,-205,l),
(-180,-201,o),
(-190,-187,o),
(-190,-175,cs),
(-190,-154,o),
(-173,-138,o),
(-135,-138,cs),
(-108,-138,o),
(-77,-146,o),
(-64,-151,c),
(-49,-112,l),
(-69,-107,o),
(-90,-94,o),
(-90,-76,cs),
(-90,-61,o),
(-79,-51,o),
(-64,-51,cs),
(-59,-51,o),
(-55,-51,o),
(-50,-53,c),
(-41,-17,l),
(-49,-14,o),
(-65,-12,o),
(-76,-12,cs),
(-107,-12,o),
(-123,-26,o),
(-132,-49,cs),
(-136,-59,o),
(-127,-87,o),
(-117,-97,c),
(-203,-90,o),
(-236,-130,o),
(-236,-170,cs),
(-236,-199,o),
(-227,-215,o),
(-210,-225,c),
(-230,-237,o),
(-241,-259,o),
(-241,-288,cs),
(-241,-333,o),
(-194,-370,o),
(-133,-370,cs)
);
}
);
width = 0;
},
{
layerId = master02;
shapes = (
{
closed = 1;
nodes = (
(-118,-395,o),
(-44,-388,o),
(-31,-378,c),
(-53,-305,l),
(-62,-311,o),
(-88,-316,o),
(-120,-316,cs),
(-165,-316,o),
(-186,-307,o),
(-186,-283,cs),
(-186,-270,o),
(-179,-264,o),
(-169,-261,c),
(-150,-265,o),
(-130,-268,o),
(-109,-268,cs),
(-73,-268,o),
(-58,-258,o),
(-58,-233,cs),
(-58,-224,o),
(-62,-210,o),
(-65,-206,c),
(-170,-206,l),
(-179,-202,o),
(-191,-188,o),
(-191,-176,cs),
(-191,-155,o),
(-174,-151,o),
(-136,-151,cs),
(-109,-151,o),
(-74,-161,o),
(-61,-166,c),
(-41,-95,l),
(-61,-90,o),
(-81,-95,o),
(-81,-70,cs),
(-81,-55,o),
(-70,-44,o),
(-55,-44,cs),
(-50,-44,o),
(-46,-44,o),
(-41,-46,c),
(-29,7,l),
(-37,10,o),
(-95,16,o),
(-106,16,cs),
(-152,16,o),
(-179,-8,o),
(-179,-46,cs),
(-179,-59,o),
(-170,-80,o),
(-160,-90,c),
(-246,-90,o),
(-269,-123,o),
(-276,-151,cs),
(-283,-178,o),
(-275,-207,o),
(-248,-238,c),
(-272,-264,o),
(-277,-306,o),
(-269,-335,cs),
(-261,-364,o),
(-200,-387,o),
(-157,-391,cs)
);
}
);
width = 0;
}
);
unicode = 8326;
},
{
glyphname = seveninferior;
lastChange = "2025-02-09 15:51:15 +0000";
layers = (
{
layerId = master03;
shapes = (
{
closed = 1;
nodes = (
(-159,-391,o),
(-48,-348,o),
(-48,-221,cs),
(-48,-154,o),
(-95,-110,o),
(-150,-110,cs),
(-206,-110,o),
(-250,-151,o),
(-250,-198,cs),
(-250,-218,o),
(-249,-238,o),
(-240,-252,c),
(-195,-239,l),
(-199,-231,o),
(-202,-219,o),
(-202,-208,cs),
(-202,-173,o),
(-179,-155,o),
(-151,-155,cs),
(-125,-155,o),
(-98,-174,o),
(-98,-220,cs),
(-98,-296,o),
(-167,-340,o),
(-266,-356,c),
(-257,-402,l)
);
}
);
width = 0;
},
{
layerId = master02;
shapes = (
{
closed = 1;
nodes = (
(-161,-427,o),
(-42,-352,o),
(-42,-225,cs),
(-42,-158,o),
(-91,-106,o),
(-163,-106,cs),
(-235,-106,o),
(-280,-143,o),
(-280,-202,cs),
(-280,-222,o),
(-271,-243,o),
(-262,-257,c),
(-183,-241,l),
(-185,-236,o),
(-189,-223,o),
(-189,-217,cs),
(-189,-198,o),
(-174,-191,o),
(-159,-191,cs),
(-145,-191,o),
(-130,-202,o),
(-130,-227,cs),
(-130,-267,o),
(-194,-334,o),
(-281,-349,c),
(-259,-438,l)
);
}
);
width = 0;
}
);
unicode = 8327;
},
{
glyphname = eightinferior;
lastChange = "2025-02-09 15:51:15 +0000";
layers = (
{
layerId = master03;
shapes = (
{
closed = 1;
nodes = (
(-80,-376,o),
(-58,-369,o),
(-41,-356,c),
(-61,-317,l),
(-71,-323,o),
(-91,-332,o),
(-118,-332,cs),
(-173,-332,o),
(-215,-296,o),
(-215,-209,cs),
(-215,-196,l),
(-50,-196,l),
(-50,-151,l),
(-214,-151,l),
(-214,-122,l),
(-219,-117,o),
(-232,-112,o),
(-248,-112,cs),
(-284,-112,o),
(-295,-125,o),
(-295,-160,cs),
(-295,-182,o),
(-280,-194,o),
(-261,-197,c),
(-261,-206,ls),
(-261,-314,o),
(-214,-376,o),
(-116,-376,cs)
);
}
);
width = 0;
},
{
layerId = master02;
shapes = (
{
closed = 1;
nodes = (
(-70,-384,o),
(-46,-373,o),
(-29,-360,c),
(-59,-297,l),
(-66,-301,o),
(-96,-312,o),
(-116,-312,cs),
(-156,-312,o),
(-187,-285,o),
(-187,-222,cs),
(-187,-212,l),
(-43,-212,l),
(-44,-141,l),
(-208,-141,l),
(-208,-114,l),
(-213,-109,o),
(-225,-99,o),
(-254,-99,cs),
(-274,-99,o),
(-306,-134,o),
(-306,-150,cs),
(-306,-182,o),
(-293,-192,o),
(-274,-195,c),
(-274,-204,ls),
(-274,-312,o),
(-223,-384,o),
(-115,-384,cs)
);
}
);
width = 0;
}
);
unicode = 8328;
},
{
glyphname = nineinferior;
lastChange = "2025-02-09 15:51:15 +0000";
layers = (
{
layerId = master03;
shapes = (
{
closed = 1;
nodes = (
(-87,-383,o),
(-63,-372,o),
(-45,-365,c),
(-64,-325,l),
(-74,-331,o),
(-94,-340,o),
(-121,-340,cs),
(-176,-340,o),
(-218,-294,o),
(-218,-207,cs),
(-218,-195,l),
(-53,-195,l),
(-53,-151,l),
(-70,-149,o),
(-84,-125,o),
(-84,-114,cs),
(-84,-97,o),
(-71,-91,o),
(-58,-93,cs),
(-53,-94,o),
(-49,-95,o),
(-45,-96,c),
(-38,-60,l),
(-45,-58,o),
(-59,-56,o),
(-71,-56,cs),
(-95,-56,o),
(-130,-76,o),
(-130,-105,cs),
(-130,-123,o),
(-125,-142,o),
(-111,-151,c),
(-217,-151,l),
(-217,-121,l),
(-222,-116,o),
(-235,-111,o),
(-251,-111,cs),
(-287,-111,o),
(-294,-131,o),
(-294,-166,cs),
(-294,-188,o),
(-278,-191,o),
(-265,-195,c),
(-265,-207,ls),
(-265,-315,o),
(-209,-383,o),
(-124,-383,cs)
);
}
);
width = 0;
},
{
layerId = master02;
shapes = (
{
closed = 1;
nodes = (
(-71,-393,o),
(-47,-382,o),
(-30,-370,c),
(-58,-303,l),
(-65,-307,o),
(-100,-316,o),
(-118,-316,cs),
(-154,-316,o),
(-182,-292,o),
(-182,-235,cs),
(-182,-227,l),
(-45,-227,l),
(-45,-151,l),
(-62,-149,o),
(-78,-139,o),
(-78,-120,cs),
(-78,-103,o),
(-65,-95,o),
(-51,-95,cs),
(-46,-95,o),
(-42,-95,o),
(-38,-96,c),
(-28,-40,l),
(-35,-38,o),
(-69,-33,o),
(-81,-33,cs),
(-126,-33,o),
(-158,-61,o),
(-158,-101,cs),
(-158,-119,o),
(-153,-142,o),
(-139,-151,c),
(-209,-151,l),
(-209,-119,l),
(-214,-114,o),
(-227,-102,o),
(-243,-102,cs),
(-279,-102,o),
(-318,-131,o),
(-318,-166,cs),
(-318,-188,o),
(-294,-201,o),
(-275,-205,c),
(-275,-214,ls),
(-275,-322,o),
(-224,-393,o),
(-116,-393,cs)
);
}
);
width = 0;
}
);
unicode = 8329;
},
{
glyphname = .notdef;
lastChange = "2022-07-27 21:30:10 +0000";
layers = (
{
layerId = master02;
shapes = (
{
closed = 1;
nodes = (
(524,0,l),
(524,698,l),
(0,698,l),
(0,0,l)
);
},
{
closed = 1;
nodes = (
(262,274,l),
(401,68,l),
(124,68,l)
);
},
{
closed = 1;
nodes = (
(88,536,l),
(213,349,l),
(88,162,l)
);
},
{
closed = 1;
nodes = (
(312,349,l),
(437,536,l),
(437,162,l)
);
},
{
closed = 1;
nodes = (
(124,630,l),
(401,630,l),
(262,424,l)
);
}
);
vertWidth = 1130;
width = 524;
},
{
layerId = master03;
shapes = (
{
closed = 1;
nodes = (
(480,0,l),
(480,700,l),
(0,700,l),
(0,0,l)
);
},
{
closed = 1;
nodes = (
(240,315,l),
(420,40,l),
(60,40,l)
);
},
{
closed = 1;
nodes = (
(40,615,l),
(215,350,l),
(40,85,l)
);
},
{
closed = 1;
nodes = (
(265,350,l),
(440,615,l),
(440,85,l)
);
},
{
closed = 1;
nodes = (
(60,660,l),
(420,660,l),
(240,385,l)
);
}
);
vertWidth = 814;
width = 480;
}
);
},
{
glyphname = "danda-deva";
lastChange = "2022-07-28 15:01:19 +0000";
layers = (
{
layerId = master02;
shapes = (
{
closed = 1;
nodes = (
(234,0,l),
(234,602,l),
(100,602,l),
(100,0,l)
);
}
);
vertWidth = 1130;
width = 334;
},
{
layerId = master03;
shapes = (
{
closed = 1;
nodes = (
(157,0,l),
(157,582,l),
(110,582,l),
(110,0,l)
);
}
);
vertWidth = 814;
width = 267;
}
);
unicode = 2404;
},
{
glyphname = "dbldanda-deva";
lastChange = "2024-11-21 15:08:42 +0000";
layers = (
{
layerId = master02;
shapes = (
{
closed = 1;
nodes = (
(485,0,l),
(485,597,l),
(351,597,l),
(351,0,l)
);
},
{
closed = 1;
nodes = (
(244,0,l),
(244,597,l),
(110,597,l),
(110,0,l)
);
}
);
vertWidth = 1130;
width = 595;
},
{
layerId = master03;
shapes = (
{
closed = 1;
nodes = (
(351,0,l),
(351,577,l),
(304,577,l),
(304,0,l)
);
},
{
closed = 1;
nodes = (
(157,0,l),
(157,577,l),
(110,577,l),
(110,0,l)
);
}
);
vertWidth = 814;
width = 461;
}
);
unicode = 2405;
},
{
glyphname = "dbldanda-deva.alt";
lastChange = "2024-11-21 15:03:04 +0000";
layers = (
{
layerId = master02;
shapes = (
{
closed = 1;
nodes = (
(485,0,l),
(485,597,l),
(351,597,l),
(351,0,l)
);
},
{
closed = 1;
nodes = (
(244,0,l),
(244,597,l),
(110,597,l),
(110,0,l)
);
},
{
closed = 1;
nodes = (
(417,494,l),
(629,494,l),
(629,597,l),
(417,597,l)
);
},
{
closed = 1;
nodes = (
(-52,494,l),
(160,494,l),
(160,597,l),
(-52,597,l)
);
}
);
vertWidth = 1130;
width = 595;
},
{
layerId = master03;
shapes = (
{
closed = 1;
nodes = (
(351,0,l),
(351,577,l),
(304,577,l),
(304,0,l)
);
},
{
closed = 1;
nodes = (
(157,0,l),
(157,577,l),
(110,577,l),
(110,0,l)
);
},
{
closed = 1;
nodes = (
(346,539,l),
(467,539,l),
(467,577,l),
(346,577,l)
);
},
{
closed = 1;
nodes = (
(-6,539,l),
(115,539,l),
(115,577,l),
(-6,577,l)
);
}
);
vertWidth = 814;
width = 461;
}
);
},
{
glyphname = "dbldanda-deva.alt.leftjoin";
lastChange = "2024-11-21 14:41:41 +0000";
layers = (
{
layerId = master02;
shapes = (
{
closed = 1;
nodes = (
(485,0,l),
(485,597,l),
(351,597,l),
(351,0,l)
);
},
{
closed = 1;
nodes = (
(244,0,l),
(244,597,l),
(110,597,l),
(110,0,l)
);
},
{
closed = 1;
nodes = (
(-52,494,l),
(160,494,l),
(160,597,l),
(-52,597,l)
);
}
);
vertWidth = 1130;
width = 595;
},
{
layerId = master03;
shapes = (
{
closed = 1;
nodes = (
(351,0,l),
(351,577,l),
(304,577,l),
(304,0,l)
);
},
{
closed = 1;
nodes = (
(157,0,l),
(157,577,l),
(110,577,l),
(110,0,l)
);
},
{
closed = 1;
nodes = (
(-6,539,l),
(115,539,l),
(115,577,l),
(-6,577,l)
);
}
);
vertWidth = 814;
width = 461;
}
);
},
{
glyphname = "dbldanda-deva.alt.rightjoin";
lastChange = "2024-11-21 14:41:45 +0000";
layers = (
{
layerId = master02;
shapes = (
{
closed = 1;
nodes = (
(485,0,l),
(485,597,l),
(351,597,l),
(351,0,l)
);
},
{
closed = 1;
nodes = (
(244,0,l),
(244,597,l),
(110,597,l),
(110,0,l)
);
},
{
closed = 1;
nodes = (
(417,494,l),
(629,494,l),
(629,597,l),
(417,597,l)
);
}
);
vertWidth = 1130;
width = 595;
},
{
layerId = master03;
shapes = (
{
closed = 1;
nodes = (
(351,0,l),
(351,577,l),
(304,577,l),
(304,0,l)
);
},
{
closed = 1;
nodes = (
(157,0,l),
(157,577,l),
(110,577,l),
(110,0,l)
);
},
{
closed = 1;
nodes = (
(346,539,l),
(467,539,l),
(467,577,l),
(346,577,l)
);
}
);
vertWidth = 814;
width = 461;
}
);
},
{
glyphname = period;
lastChange = "2022-07-27 21:30:10 +0000";
layers = (
{
layerId = master02;
shapes = (
{
closed = 1;
nodes = (
(178,-11,o),
(216,23,o),
(216,77,cs),
(216,127,o),
(178,164,o),
(131,164,cs),
(85,164,o),
(45,127,o),
(45,77,cs),
(45,23,o),
(85,-11,o),
(131,-11,cs)
);
}
);
vertWidth = 1130;
width = 241;
},
{
layerId = master03;
shapes = (
{
closed = 1;
nodes = (
(102,-8,o),
(120,8,o),
(120,36,cs),
(120,62,o),
(102,80,o),
(80,80,cs),
(57,80,o),
(40,62,o),
(40,36,cs),
(40,8,o),
(57,-8,o),
(80,-8,cs)
);
}
);
vertWidth = 814;
width = 145;
}
);
unicode = 46;
},
{
glyphname = comma;
lastChange = "2022-07-27 21:30:10 +0000";
layers = (
{
layerId = master02;
shapes = (
{
closed = 1;
nodes = (
(145,-146,o),
(216,-61,o),
(216,37,cs),
(216,129,o),
(166,164,o),
(122,164,cs),
(66,164,o),
(35,125,o),
(35,80,cs),
(35,34,o),
(62,-1,o),
(110,-11,cs),
(124,-14,l),
(115,-61,o),
(76,-103,o),
(34,-126,c),
(75,-182,l)
);
}
);
vertWidth = 1130;
width = 246;
},
{
layerId = master03;
shapes = (
{
closed = 1;
nodes = (
(93,-99,o),
(139,-44,o),
(139,16,cs),
(139,68,o),
(112,82,o),
(91,82,cs),
(67,82,o),
(50,64,o),
(50,40,cs),
(50,12,o),
(67,-4,o),
(90,-8,c),
(95,-9,l),
(89,-42,o),
(62,-77,o),
(22,-97,c),
(42,-125,l)
);
}
);
vertWidth = 814;
width = 162;
}
);
unicode = 44;
},
{
glyphname = colon;
lastChange = "2022-07-27 21:30:10 +0000";
layers = (
{
layerId = master02;
shapes = (
{
closed = 1;
nodes = (
(174,295,o),
(212,329,o),
(212,383,cs),
(212,433,o),
(174,470,o),
(127,470,cs),
(81,470,o),
(41,433,o),
(41,383,cs),
(41,329,o),
(81,295,o),
(127,295,cs)
);
},
{
closed = 1;
nodes = (
(174,-11,o),
(212,23,o),
(212,77,cs),
(212,127,o),
(174,164,o),
(127,164,cs),
(81,164,o),
(41,127,o),
(41,77,cs),
(41,23,o),
(81,-11,o),
(127,-11,cs)
);
}
);
vertWidth = 1130;
width = 253;
},
{
layerId = master03;
shapes = (
{
closed = 1;
nodes = (
(114,309,o),
(132,325,o),
(132,353,cs),
(132,379,o),
(114,397,o),
(92,397,cs),
(69,397,o),
(52,379,o),
(52,353,cs),
(52,325,o),
(69,309,o),
(92,309,cs)
);
},
{
closed = 1;
nodes = (
(114,-8,o),
(132,8,o),
(132,36,cs),
(132,62,o),
(114,80,o),
(92,80,cs),
(69,80,o),
(52,62,o),
(52,36,cs),
(52,8,o),
(69,-8,o),
(92,-8,cs)
);
}
);
vertWidth = 814;
width = 183;
}
);
unicode = 58;
},
{
glyphname = semicolon;
lastChange = "2022-07-27 21:30:10 +0000";
layers = (
{
layerId = master02;
shapes = (
{
closed = 1;
nodes = (
(145,-146,o),
(216,-61,o),
(216,37,cs),
(216,129,o),
(166,164,o),
(122,164,cs),
(66,164,o),
(35,125,o),
(35,80,cs),
(35,34,o),
(62,-1,o),
(110,-11,cs),
(124,-14,l),
(115,-61,o),
(76,-103,o),
(34,-126,c),
(75,-182,l)
);
},
{
closed = 1;
nodes = (
(173,295,o),
(211,329,o),
(211,383,cs),
(211,433,o),
(173,470,o),
(126,470,cs),
(80,470,o),
(40,433,o),
(40,383,cs),
(40,329,o),
(80,295,o),
(126,295,cs)
);
}
);
vertWidth = 1130;
width = 251;
},
{
layerId = master03;
shapes = (
{
closed = 1;
nodes = (
(97,-99,o),
(143,-44,o),
(143,16,cs),
(143,68,o),
(116,82,o),
(95,82,cs),
(71,82,o),
(54,64,o),
(54,40,cs),
(54,12,o),
(72,-4,o),
(94,-8,cs),
(99,-9,l),
(93,-42,o),
(66,-77,o),
(26,-97,c),
(46,-125,l)
);
},
{
closed = 1;
nodes = (
(114,309,o),
(132,325,o),
(132,353,cs),
(132,379,o),
(114,397,o),
(92,397,cs),
(69,397,o),
(52,379,o),
(52,353,cs),
(52,325,o),
(69,309,o),
(92,309,cs)
);
}
);
vertWidth = 814;
width = 197;
}
);
unicode = 59;
},
{
glyphname = ellipsis;
lastChange = "2022-07-27 21:30:10 +0000";
layers = (
{
layerId = master02;
shapes = (
{
closed = 1;
nodes = (
(820,-11,o),
(858,23,o),
(858,77,cs),
(858,127,o),
(820,164,o),
(773,164,cs),
(727,164,o),
(687,127,o),
(687,77,cs),
(687,23,o),
(727,-11,o),
(773,-11,cs)
);
},
{
closed = 1;
nodes = (
(178,-11,o),
(216,23,o),
(216,77,cs),
(216,127,o),
(178,164,o),
(131,164,cs),
(85,164,o),
(45,127,o),
(45,77,cs),
(45,23,o),
(85,-11,o),
(131,-11,cs)
);
},
{
closed = 1;
nodes = (
(499,-11,o),
(537,23,o),
(537,77,cs),
(537,127,o),
(499,164,o),
(452,164,cs),
(406,164,o),
(366,127,o),
(366,77,cs),
(366,23,o),
(406,-11,o),
(452,-11,cs)
);
}
);
vertWidth = 1130;
width = 878;
},
{
layerId = master03;
shapes = (
{
closed = 1;
nodes = (
(477,-8,o),
(495,8,o),
(495,36,cs),
(495,62,o),
(477,80,o),
(455,80,cs),
(432,80,o),
(415,62,o),
(415,36,cs),
(415,8,o),
(432,-8,o),
(455,-8,cs)
);
},
{
closed = 1;
nodes = (
(117,-8,o),
(135,8,o),
(135,36,cs),
(135,62,o),
(117,80,o),
(95,80,cs),
(72,80,o),
(55,62,o),
(55,36,cs),
(55,8,o),
(72,-8,o),
(95,-8,cs)
);
},
{
closed = 1;
nodes = (
(297,-8,o),
(315,8,o),
(315,36,cs),
(315,62,o),
(297,80,o),
(275,80,cs),
(252,80,o),
(235,62,o),
(235,36,cs),
(235,8,o),
(252,-8,o),
(275,-8,cs)
);
}
);
vertWidth = 814;
width = 550;
}
);
unicode = 8230;
},
{
glyphname = exclam;
lastChange = "2022-07-27 21:30:10 +0000";
layers = (
{
layerId = master02;
shapes = (
{
closed = 1;
nodes = (
(181,218,l),
(200,674,l),
(54,674,l),
(71,218,l)
);
},
{
closed = 1;
nodes = (
(168,-10,o),
(203,21,o),
(203,67,cs),
(203,111,o),
(168,144,o),
(127,144,cs),
(86,144,o),
(50,111,o),
(50,67,cs),
(50,21,o),
(86,-10,o),
(127,-10,cs)
);
}
);
vertWidth = 1130;
width = 254;
},
{
layerId = master03;
shapes = (
{
closed = 1;
nodes = (
(116,175,l),
(125,659,l),
(72,659,l),
(77,175,l)
);
},
{
closed = 1;
nodes = (
(118,-7,o),
(135,7,o),
(135,34,cs),
(135,60,o),
(118,76,o),
(97,76,cs),
(74,76,o),
(59,60,o),
(59,34,cs),
(59,7,o),
(74,-7,o),
(97,-7,cs)
);
}
);
vertWidth = 814;
width = 193;
}
);
unicode = 33;
},
{
glyphname = question;
lastChange = "2022-07-27 21:30:10 +0000";
layers = (
{
layerId = master02;
shapes = (
{
closed = 1;
nodes = (
(228,219,l),
(225,226,o),
(223,237,o),
(223,246,cs),
(223,278,o),
(240,289,o),
(296,346,cs),
(355,406,o),
(387,448,o),
(387,518,cs),
(387,610,o),
(319,679,o),
(199,679,cs),
(137,679,o),
(85,660,o),
(46,633,c),
(94,540,l),
(124,560,o),
(146,569,o),
(178,569,cs),
(219,569,o),
(244,542,o),
(244,508,cs),
(244,462,o),
(224,438,o),
(174,384,cs),
(132,339,o),
(105,309,o),
(105,256,cs),
(105,237,o),
(110,217,o),
(114,204,c)
);
},
{
closed = 1;
nodes = (
(221,-10,o),
(256,21,o),
(256,67,cs),
(256,111,o),
(221,144,o),
(180,144,cs),
(140,144,o),
(104,111,o),
(104,67,cs),
(104,21,o),
(140,-10,o),
(180,-10,cs)
);
}
);
vertWidth = 1130;
width = 420;
},
{
layerId = master03;
shapes = (
{
closed = 1;
nodes = (
(180,148,l),
(175,163,o),
(171,183,o),
(171,206,cs),
(171,250,o),
(185,280,o),
(246,334,cs),
(312,391,o),
(355,446,o),
(355,514,cs),
(355,604,o),
(292,664,o),
(186,664,cs),
(141,664,o),
(88,652,o),
(53,626,c),
(73,590,l),
(110,615,o),
(147,623,o),
(180,623,cs),
(272,623,o),
(307,570,o),
(307,513,cs),
(307,461,o),
(268,412,o),
(218,365,cs),
(152,303,o),
(125,254,o),
(125,206,cs),
(125,185,o),
(131,152,o),
(138,140,c)
);
},
{
closed = 1;
nodes = (
(192,-7,o),
(208,7,o),
(208,34,cs),
(208,60,o),
(192,75,o),
(170,75,cs),
(148,75,o),
(131,60,o),
(131,34,cs),
(131,7,o),
(148,-7,o),
(170,-7,cs)
);
}
);
vertWidth = 814;
width = 397;
}
);
unicode = 63;
},
{
glyphname = asterisk;
lastChange = "2022-07-27 21:30:10 +0000";
layers = (
{
layerId = master02;
shapes = (
{
closed = 1;
nodes = (
(172,415,l),
(197,489,l),
(221,416,l),
(264,355,l),
(336,408,l),
(291,469,l),
(231,514,l),
(307,513,l),
(378,537,l),
(351,619,l),
(281,597,l),
(216,556,l),
(242,626,l),
(242,699,l),
(152,699,l),
(152,626,l),
(179,556,l),
(113,598,l),
(42,619,l),
(15,537,l),
(88,514,l),
(162,514,l),
(102,468,l),
(56,408,l),
(127,355,l)
);
}
);
vertWidth = 1130;
width = 383;
},
{
layerId = master03;
shapes = (
{
closed = 1;
nodes = (
(133,435,l),
(174,504,l),
(215,435,l),
(252,383,l),
(284,406,l),
(246,458,l),
(192,518,l),
(272,536,l),
(333,555,l),
(321,593,l),
(261,575,l),
(184,540,l),
(194,622,l),
(194,684,l),
(154,684,l),
(154,622,l),
(164,540,l),
(87,574,l),
(27,592,l),
(15,554,l),
(76,535,l),
(156,518,l),
(101,458,l),
(62,406,l),
(94,383,l)
);
}
);
vertWidth = 814;
width = 338;
}
);
unicode = 42;
},
{
glyphname = numbersign;
lastChange = "2022-07-27 21:30:10 +0000";
layers = (
{
layerId = master02;
shapes = (
{
closed = 1;
nodes = (
(176,0,l),
(209,203,l),
(328,203,l),
(295,0,l),
(379,0,l),
(412,203,l),
(524,203,l),
(524,287,l),
(424,287,l),
(447,427,l),
(557,427,l),
(557,510,l),
(460,510,l),
(491,703,l),
(409,703,l),
(378,509,l),
(258,509,l),
(289,703,l),
(206,703,l),
(177,510,l),
(66,510,l),
(66,427,l),
(162,427,l),
(140,287,l),
(33,287,l),
(33,203,l),
(124,203,l),
(93,0,l)
);
},
{
closed = 1;
nodes = (
(245,427,l),
(363,427,l),
(341,287,l),
(222,287,l)
);
}
);
vertWidth = 1130;
width = 586;
},
{
layerId = master03;
shapes = (
{
closed = 1;
nodes = (
(156,0,l),
(191,207,l),
(358,207,l),
(323,0,l),
(364,0,l),
(399,207,l),
(512,207,l),
(512,247,l),
(405,247,l),
(440,453,l),
(544,453,l),
(544,490,l),
(445,490,l),
(479,687,l),
(438,687,l),
(404,489,l),
(238,489,l),
(270,687,l),
(231,687,l),
(197,490,l),
(64,490,l),
(64,453,l),
(192,453,l),
(157,247,l),
(32,247,l),
(32,207,l),
(151,207,l),
(115,0,l)
);
},
{
closed = 1;
nodes = (
(233,453,l),
(399,453,l),
(363,247,l),
(197,247,l)
);
}
);
vertWidth = 814;
width = 577;
}
);
unicode = 35;
},
{
glyphname = slash;
lastChange = "2022-07-27 21:30:10 +0000";
layers = (
{
layerId = master02;
shapes = (
{
closed = 1;
nodes = (
(99,-104,l),
(350,712,l),
(250,712,l),
(-1,-104,l)
);
}
);
vertWidth = 1130;
width = 347;
},
{
layerId = master03;
shapes = (
{
closed = 1;
nodes = (
(44,-101,l),
(352,696,l),
(306,696,l),
(-2,-101,l)
);
}
);
vertWidth = 814;
width = 349;
}
);
unicode = 47;
},
{
glyphname = backslash;
lastChange = "2022-07-27 21:30:10 +0000";
layers = (
{
layerId = master02;
shapes = (
{
closed = 1;
nodes = (
(306,-88,l),
(100,720,l),
(0,720,l),
(206,-88,l)
);
}
);
vertWidth = 1130;
width = 306;
},
{
layerId = master03;
shapes = (
{
closed = 1;
nodes = (
(295,-88,l),
(39,720,l),
(-3,720,l),
(253,-88,l)
);
}
);
vertWidth = 814;
width = 295;
}
);
unicode = 92;
},
{
glyphname = hyphen;
lastChange = "2022-07-27 21:30:10 +0000";
layers = (
{
layerId = master02;
shapes = (
{
closed = 1;
nodes = (
(250,234,l),
(250,343,l),
(30,343,l),
(30,234,l)
);
}
);
vertWidth = 1130;
width = 280;
},
{
layerId = master03;
shapes = (
{
closed = 1;
nodes = (
(250,269,l),
(250,313,l),
(30,313,l),
(30,269,l)
);
}
);
vertWidth = 814;
width = 280;
}
);
unicode = 45;
},
{
glyphname = softhyphen;
lastChange = "2022-07-28 15:04:44 +0000";
layers = (
{
layerId = master02;
shapes = (
{
closed = 1;
nodes = (
(250,234,l),
(250,343,l),
(30,343,l),
(30,234,l)
);
}
);
vertWidth = 1130;
width = 280;
},
{
layerId = master03;
shapes = (
{
closed = 1;
nodes = (
(250,269,l),
(250,313,l),
(30,313,l),
(30,269,l)
);
}
);
vertWidth = 814;
width = 280;
}
);
unicode = 173;
},
{
glyphname = endash;
lastChange = "2022-07-27 21:30:10 +0000";
layers = (
{
layerId = master02;
shapes = (
{
closed = 1;
nodes = (
(463,188,l),
(463,279,l),
(30,279,l),
(30,188,l)
);
}
);
vertWidth = 1130;
width = 493;
},
{
layerId = master03;
shapes = (
{
closed = 1;
nodes = (
(467,208,l),
(467,249,l),
(54,249,l),
(54,208,l)
);
}
);
vertWidth = 814;
width = 521;
}
);
unicode = 8211;
},
{
glyphname = emdash;
lastChange = "2022-07-27 21:30:10 +0000";
layers = (
{
layerId = master02;
shapes = (
{
closed = 1;
nodes = (
(876,188,l),
(876,278,l),
(30,278,l),
(30,188,l)
);
}
);
vertWidth = 1130;
width = 906;
},
{
layerId = master03;
shapes = (
{
closed = 1;
nodes = (
(880,208,l),
(880,248,l),
(54,248,l),
(54,208,l)
);
}
);
vertWidth = 814;
width = 934;
}
);
unicode = 8212;
},
{
glyphname = underscore;
lastChange = "2022-07-27 21:30:10 +0000";
layers = (
{
layerId = master02;
shapes = (
{
closed = 1;
nodes = (
(371,-250,l),
(371,-170,l),
(5,-170,l),
(5,-250,l)
);
}
);
vertWidth = 1130;
width = 376;
},
{
layerId = master03;
shapes = (
{
closed = 1;
nodes = (
(356,-250,l),
(356,-210,l),
(10,-210,l),
(10,-250,l)
);
}
);
vertWidth = 814;
width = 366;
}
);
unicode = 95;
},
{
glyphname = parenleft;
lastChange = "2022-07-27 21:30:10 +0000";
layers = (
{
layerId = master02;
shapes = (
{
closed = 1;
nodes = (
(267,-89,l),
(201,27,o),
(159,134,o),
(159,275,cs),
(159,417,o),
(207,543,o),
(267,643,c),
(193,684,l),
(108,593,o),
(38,453,o),
(38,275,cs),
(38,96,o),
(111,-35,o),
(191,-135,c)
);
}
);
vertWidth = 1130;
width = 295;
},
{
layerId = master03;
shapes = (
{
closed = 1;
nodes = (
(230,-111,l),
(145,12,o),
(98,122,o),
(98,269,cs),
(98,417,o),
(150,539,o),
(229,645,c),
(194,670,l),
(122,581,o),
(45,443,o),
(45,269,cs),
(45,98,o),
(118,-30,o),
(191,-131,c)
);
}
);
vertWidth = 814;
width = 266;
}
);
unicode = 40;
},
{
glyphname = parenright;
lastChange = "2022-07-27 21:30:10 +0000";
layers = (
{
layerId = master02;
shapes = (
{
closed = 1;
nodes = (
(184,-35,o),
(257,96,o),
(257,275,cs),
(257,453,o),
(187,593,o),
(103,684,c),
(29,643,l),
(88,543,o),
(137,417,o),
(137,275,cs),
(137,134,o),
(94,27,o),
(29,-89,c),
(105,-135,l)
);
}
);
vertWidth = 1130;
width = 295;
},
{
layerId = master03;
shapes = (
{
closed = 1;
nodes = (
(145,-43,o),
(219,96,o),
(219,269,cs),
(219,440,o),
(148,568,o),
(74,669,c),
(35,648,l),
(121,526,o),
(168,415,o),
(168,269,cs),
(168,120,o),
(116,-1,o),
(36,-108,c),
(71,-132,l)
);
}
);
vertWidth = 814;
width = 266;
}
);
unicode = 41;
},
{
glyphname = braceleft;
lastChange = "2022-07-27 21:30:10 +0000";
layers = (
{
layerId = master02;
shapes = (
{
closed = 1;
nodes = (
(303,-66,l),
(236,-58,o),
(221,-44,o),
(221,43,cs),
(221,135,ls),
(221,206,o),
(193,253,o),
(158,276,c),
(158,279,l),
(193,296,o),
(221,332,o),
(221,393,cs),
(221,486,ls),
(221,591,o),
(235,619,o),
(303,619,c),
(303,705,l),
(184,705,o),
(118,640,o),
(118,555,cs),
(118,415,ls),
(118,350,o),
(90,325,o),
(30,317,c),
(30,236,l),
(91,233,o),
(118,197,o),
(118,135,cs),
(118,7,ls),
(118,-92,o),
(193,-152,o),
(303,-155,c)
);
}
);
vertWidth = 1130;
width = 325;
},
{
layerId = master03;
shapes = (
{
closed = 1;
nodes = (
(301,-111,l),
(220,-108,o),
(179,-72,o),
(179,-7,cs),
(179,135,ls),
(179,206,o),
(157,253,o),
(106,276,c),
(106,278,l),
(159,295,o),
(179,332,o),
(179,393,cs),
(179,536,ls),
(179,618,o),
(225,659,o),
(301,659,c),
(301,695,l),
(196,695,o),
(136,634,o),
(136,555,cs),
(136,395,ls),
(136,332,o),
(102,303,o),
(28,295,c),
(28,259,l),
(103,256,o),
(136,217,o),
(136,155,cs),
(136,2,ls),
(136,-95,o),
(203,-145,o),
(301,-145,c)
);
}
);
vertWidth = 814;
width = 326;
}
);
unicode = 123;
},
{
glyphname = braceright;
lastChange = "2022-07-27 21:30:10 +0000";
layers = (
{
layerId = master02;
shapes = (
{
closed = 1;
nodes = (
(141,-155,o),
(207,-90,o),
(207,-5,cs),
(207,135,ls),
(207,200,o),
(235,225,o),
(295,233,c),
(295,314,l),
(234,317,o),
(207,353,o),
(207,415,cs),
(207,543,ls),
(207,642,o),
(132,702,o),
(22,705,c),
(22,616,l),
(89,608,o),
(104,594,o),
(104,507,cs),
(104,415,ls),
(104,344,o),
(132,297,o),
(167,274,c),
(167,271,l),
(132,254,o),
(104,218,o),
(104,157,cs),
(104,64,ls),
(104,-41,o),
(90,-69,o),
(22,-69,c),
(22,-155,l)
);
}
);
vertWidth = 1130;
width = 325;
},
{
layerId = master03;
shapes = (
{
closed = 1;
nodes = (
(130,-145,o),
(190,-84,o),
(190,-5,cs),
(190,155,ls),
(190,218,o),
(224,247,o),
(298,255,c),
(298,291,l),
(223,294,o),
(190,333,o),
(190,395,cs),
(190,548,ls),
(190,645,o),
(123,695,o),
(25,695,c),
(25,661,l),
(106,658,o),
(147,622,o),
(147,557,cs),
(147,415,ls),
(147,344,o),
(169,297,o),
(220,274,c),
(220,272,l),
(167,255,o),
(147,218,o),
(147,157,cs),
(147,14,ls),
(147,-68,o),
(101,-109,o),
(25,-109,c),
(25,-145,l)
);
}
);
vertWidth = 814;
width = 326;
}
);
unicode = 125;
},
{
glyphname = bracketleft;
lastChange = "2022-07-27 21:30:10 +0000";
layers = (
{
layerId = master02;
shapes = (
{
closed = 1;
nodes = (
(256,-145,l),
(256,-62,l),
(167,-62,l),
(167,620,l),
(256,620,l),
(256,702,l),
(57,702,l),
(57,-145,l)
);
}
);
vertWidth = 1130;
width = 280;
},
{
layerId = master03;
shapes = (
{
closed = 1;
nodes = (
(233,-125,l),
(233,-90,l),
(119,-90,l),
(119,637,l),
(233,637,l),
(233,670,l),
(75,670,l),
(75,-125,l)
);
}
);
vertWidth = 814;
width = 261;
}
);
unicode = 91;
},
{
glyphname = bracketright;
lastChange = "2022-07-27 21:30:10 +0000";
layers = (
{
layerId = master02;
shapes = (
{
closed = 1;
nodes = (
(223,-145,l),
(223,702,l),
(24,702,l),
(24,620,l),
(113,620,l),
(113,-62,l),
(24,-62,l),
(24,-145,l)
);
}
);
vertWidth = 1130;
width = 280;
},
{
layerId = master03;
shapes = (
{
closed = 1;
nodes = (
(186,-125,l),
(186,670,l),
(28,670,l),
(28,636,l),
(142,636,l),
(142,-91,l),
(28,-91,l),
(28,-125,l)
);
}
);
vertWidth = 814;
width = 261;
}
);
unicode = 93;
},
{
glyphname = quotedblleft;
lastChange = "2022-07-27 21:30:10 +0000";
layers = (
{
layerId = master02;
shapes = (
{
closed = 1;
nodes = (
(422,415,o),
(451,454,o),
(451,499,cs),
(451,545,o),
(424,580,o),
(376,590,cs),
(362,593,l),
(371,640,o),
(410,682,o),
(452,705,c),
(411,761,l),
(341,725,o),
(270,640,o),
(270,542,cs),
(270,450,o),
(322,415,o),
(366,415,cs)
);
},
{
closed = 1;
nodes = (
(172,415,o),
(201,454,o),
(201,499,cs),
(201,545,o),
(174,580,o),
(126,590,cs),
(112,593,l),
(121,640,o),
(160,682,o),
(202,705,c),
(161,761,l),
(91,725,o),
(20,640,o),
(20,542,cs),
(20,450,o),
(72,415,o),
(116,415,cs)
);
}
);
vertWidth = 1130;
width = 487;
},
{
layerId = master03;
shapes = (
{
closed = 1;
nodes = (
(251,533,o),
(268,551,o),
(268,575,cs),
(268,603,o),
(250,619,o),
(228,623,cs),
(223,624,l),
(229,657,o),
(256,692,o),
(296,712,c),
(276,740,l),
(225,714,o),
(179,659,o),
(179,599,cs),
(179,547,o),
(206,533,o),
(227,533,cs)
);
},
{
closed = 1;
nodes = (
(95,533,o),
(112,551,o),
(112,575,cs),
(112,603,o),
(94,619,o),
(72,623,cs),
(67,624,l),
(73,657,o),
(100,692,o),
(140,712,c),
(120,740,l),
(69,714,o),
(23,659,o),
(23,599,cs),
(23,547,o),
(50,533,o),
(71,533,cs)
);
}
);
vertWidth = 814;
width = 318;
}
);
unicode = 8220;
},
{
glyphname = quotedblright;
lastChange = "2022-07-27 21:30:10 +0000";
layers = (
{
layerId = master02;
shapes = (
{
closed = 1;
nodes = (
(396,451,o),
(467,536,o),
(467,634,cs),
(467,726,o),
(415,761,o),
(371,761,cs),
(315,761,o),
(286,722,o),
(286,677,cs),
(286,631,o),
(313,596,o),
(361,586,cs),
(375,583,l),
(366,536,o),
(327,494,o),
(285,471,c),
(326,415,l)
);
},
{
closed = 1;
nodes = (
(146,451,o),
(217,536,o),
(217,634,cs),
(217,726,o),
(165,761,o),
(121,761,cs),
(65,761,o),
(36,722,o),
(36,677,cs),
(36,631,o),
(63,596,o),
(111,586,cs),
(125,583,l),
(116,536,o),
(77,494,o),
(35,471,c),
(76,415,l)
);
}
);
vertWidth = 1130;
width = 487;
},
{
layerId = master03;
shapes = (
{
closed = 1;
nodes = (
(249,535,o),
(295,590,o),
(295,650,cs),
(295,702,o),
(268,716,o),
(247,716,cs),
(223,716,o),
(206,698,o),
(206,674,cs),
(206,646,o),
(224,630,o),
(246,626,cs),
(251,625,l),
(245,592,o),
(218,557,o),
(178,537,c),
(198,509,l)
);
},
{
closed = 1;
nodes = (
(93,535,o),
(139,590,o),
(139,650,cs),
(139,702,o),
(112,716,o),
(91,716,cs),
(67,716,o),
(50,698,o),
(50,674,cs),
(50,646,o),
(68,630,o),
(90,626,cs),
(95,625,l),
(89,592,o),
(62,557,o),
(22,537,c),
(42,509,l)
);
}
);
vertWidth = 814;
width = 318;
}
);
unicode = 8221;
},
{
glyphname = quoteleft;
lastChange = "2022-07-27 21:30:10 +0000";
layers = (
{
layerId = master02;
shapes = (
{
closed = 1;
nodes = (
(170,415,o),
(201,454,o),
(201,499,cs),
(201,545,o),
(174,580,o),
(126,590,cs),
(112,593,l),
(121,640,o),
(160,682,o),
(202,705,c),
(161,761,l),
(91,725,o),
(20,640,o),
(20,542,cs),
(20,450,o),
(70,415,o),
(114,415,cs)
);
}
);
vertWidth = 1130;
width = 237;
},
{
layerId = master03;
shapes = (
{
closed = 1;
nodes = (
(95,533,o),
(112,551,o),
(112,575,cs),
(112,603,o),
(94,619,o),
(72,623,cs),
(67,624,l),
(73,657,o),
(100,692,o),
(140,712,c),
(120,740,l),
(69,714,o),
(23,659,o),
(23,599,cs),
(23,547,o),
(50,533,o),
(71,533,cs)
);
}
);
vertWidth = 814;
width = 162;
}
);
unicode = 8216;
},
{
glyphname = quoteright;
lastChange = "2022-07-27 21:30:10 +0000";
layers = (
{
layerId = master02;
shapes = (
{
closed = 1;
nodes = (
(146,451,o),
(217,536,o),
(217,634,cs),
(217,726,o),
(167,761,o),
(123,761,cs),
(67,761,o),
(36,722,o),
(36,677,cs),
(36,631,o),
(63,596,o),
(111,586,cs),
(125,583,l),
(116,536,o),
(77,494,o),
(35,471,c),
(76,415,l)
);
}
);
vertWidth = 1130;
width = 237;
},
{
layerId = master03;
shapes = (
{
closed = 1;
nodes = (
(93,534,o),
(139,589,o),
(139,649,cs),
(139,701,o),
(112,715,o),
(91,715,cs),
(67,715,o),
(50,697,o),
(50,673,cs),
(50,645,o),
(68,629,o),
(90,625,cs),
(95,624,l),
(89,591,o),
(62,556,o),
(22,536,c),
(42,508,l)
);
}
);
vertWidth = 814;
width = 162;
}
);
unicode = 8217;
},
{
glyphname = quotedbl;
lastChange = "2022-07-27 21:30:10 +0000";
layers = (
{
layerId = master02;
shapes = (
{
closed = 1;
nodes = (
(322,410,l),
(338,647,l),
(215,647,l),
(230,410,l)
);
},
{
closed = 1;
nodes = (
(149,410,l),
(164,647,l),
(41,647,l),
(57,410,l)
);
}
);
vertWidth = 1130;
width = 379;
},
{
layerId = master03;
shapes = (
{
closed = 1;
nodes = (
(232,428,l),
(243,645,l),
(190,645,l),
(200,428,l)
);
},
{
closed = 1;
nodes = (
(94,428,l),
(104,645,l),
(51,645,l),
(62,428,l)
);
}
);
vertWidth = 814;
width = 294;
}
);
unicode = 34;
},
{
glyphname = quotesingle;
lastChange = "2022-07-27 21:30:10 +0000";
layers = (
{
layerId = master02;
shapes = (
{
closed = 1;
nodes = (
(149,410,l),
(164,647,l),
(41,647,l),
(57,410,l)
);
}
);
vertWidth = 1130;
width = 205;
},
{
layerId = master03;
shapes = (
{
closed = 1;
nodes = (
(93,428,l),
(104,645,l),
(51,645,l),
(61,428,l)
);
}
);
vertWidth = 814;
width = 155;
}
);
unicode = 39;
},
{
glyphname = adiShakti;
lastChange = "2022-07-28 15:13:33 +0000";
layers = (
{
layerId = master02;
shapes = (
{
closed = 1;
nodes = (
(419,-39,o),
(436,-22,o),
(436,-1,cs),
(436,13,o),
(428,26,o),
(416,33,c),
(416,82,l),
(437,72,o),
(456,61,o),
(471,54,c),
(469,52,o),
(466,43,o),
(466,38,cs),
(466,20,o),
(480,7,o),
(500,7,cs),
(520,7,o),
(534,22,o),
(534,40,cs),
(534,56,o),
(524,67,o),
(509,75,c),
(436,110,l),
(465,125,o),
(499,144,o),
(526,160,c),
(575,96,l),
(638,184,o),
(711,270,o),
(711,389,cs),
(711,463,o),
(674,530,o),
(596,579,c),
(624,542,o),
(646,510,o),
(646,435,cs),
(646,331,o),
(591,235,o),
(415,142,c),
(415,191,l),
(434,202,o),
(456,215,o),
(471,226,c),
(467,236,o),
(462,248,o),
(458,261,c),
(526,283,o),
(585,340,o),
(585,431,cs),
(585,510,o),
(532,568,o),
(463,591,c),
(468,603,o),
(472,614,o),
(477,623,c),
(443,640,o),
(415,673,o),
(399,696,c),
(383,673,o),
(355,640,o),
(321,623,c),
(325,614,o),
(330,604,o),
(334,592,c),
(266,570,o),
(210,515,o),
(210,431,cs),
(210,337,o),
(269,279,o),
(338,259,c),
(335,246,o),
(331,235,o),
(327,226,c),
(340,216,o),
(359,204,o),
(378,194,c),
(378,143,l),
(204,236,o),
(149,331,o),
(149,435,cs),
(149,510,o),
(171,542,o),
(199,579,c),
(121,530,o),
(84,463,o),
(84,389,cs),
(84,270,o),
(157,184,o),
(220,96,c),
(269,160,l),
(295,144,o),
(329,125,o),
(358,110,c),
(330,98,o),
(306,86,o),
(284,75,c),
(269,67,o),
(259,56,o),
(259,40,cs),
(259,22,o),
(273,7,o),
(293,7,cs),
(313,7,o),
(327,20,o),
(327,38,cs),
(327,43,o),
(323,52,o),
(321,54,c),
(336,61,o),
(355,72,o),
(376,82,c),
(376,30,l),
(367,23,o),
(361,11,o),
(361,-1,cs),
(361,-22,o),
(378,-39,o),
(399,-39,cs)
);
},
{
closed = 1;
nodes = (
(305,329,o),
(274,370,o),
(274,431,cs),
(274,485,o),
(305,524,o),
(348,540,c),
(357,504,o),
(363,464,o),
(363,432,cs),
(363,390,o),
(358,348,o),
(351,312,c)
);
},
{
closed = 1;
nodes = (
(439,348,o),
(435,390,o),
(435,432,cs),
(435,464,o),
(440,503,o),
(448,539,c),
(491,522,o),
(522,483,o),
(522,431,cs),
(522,369,o),
(492,328,o),
(446,312,c)
);
}
);
vertWidth = 1130;
width = 795;
},
{
layerId = master03;
shapes = (
{
closed = 1;
nodes = (
(419,-39,o),
(436,-22,o),
(436,-1,cs),
(436,13,o),
(428,26,o),
(416,33,c),
(416,82,l),
(437,72,o),
(456,61,o),
(471,54,c),
(469,52,o),
(466,43,o),
(466,38,cs),
(466,20,o),
(480,7,o),
(500,7,cs),
(520,7,o),
(534,22,o),
(534,40,cs),
(534,56,o),
(524,67,o),
(509,75,c),
(436,110,l),
(465,125,o),
(499,144,o),
(526,160,c),
(575,96,l),
(638,184,o),
(711,270,o),
(711,389,cs),
(711,463,o),
(674,530,o),
(596,579,c),
(624,542,o),
(646,510,o),
(646,435,cs),
(646,331,o),
(591,235,o),
(415,142,c),
(415,191,l),
(434,202,o),
(456,215,o),
(471,226,c),
(467,236,o),
(462,248,o),
(458,261,c),
(526,283,o),
(585,340,o),
(585,431,cs),
(585,510,o),
(532,568,o),
(463,591,c),
(468,603,o),
(472,614,o),
(477,623,c),
(443,640,o),
(415,673,o),
(399,696,c),
(383,673,o),
(355,640,o),
(321,623,c),
(325,614,o),
(330,604,o),
(334,592,c),
(266,570,o),
(210,515,o),
(210,431,cs),
(210,337,o),
(269,279,o),
(338,259,c),
(335,246,o),
(331,235,o),
(327,226,c),
(340,216,o),
(359,204,o),
(378,194,c),
(378,143,l),
(204,236,o),
(149,331,o),
(149,435,cs),
(149,510,o),
(171,542,o),
(199,579,c),
(121,530,o),
(84,463,o),
(84,389,cs),
(84,270,o),
(157,184,o),
(220,96,c),
(269,160,l),
(295,144,o),
(329,125,o),
(358,110,c),
(330,98,o),
(306,86,o),
(284,75,c),
(269,67,o),
(259,56,o),
(259,40,cs),
(259,22,o),
(273,7,o),
(293,7,cs),
(313,7,o),
(327,20,o),
(327,38,cs),
(327,43,o),
(323,52,o),
(321,54,c),
(336,61,o),
(355,72,o),
(376,82,c),
(376,30,l),
(367,23,o),
(361,11,o),
(361,-1,cs),
(361,-22,o),
(378,-39,o),
(399,-39,cs)
);
},
{
closed = 1;
nodes = (
(305,329,o),
(274,370,o),
(274,431,cs),
(274,485,o),
(305,524,o),
(348,540,c),
(357,504,o),
(363,464,o),
(363,432,cs),
(363,390,o),
(358,348,o),
(351,312,c)
);
},
{
closed = 1;
nodes = (
(439,348,o),
(435,390,o),
(435,432,cs),
(435,464,o),
(440,503,o),
(448,539,c),
(491,522,o),
(522,483,o),
(522,431,cs),
(522,369,o),
(492,328,o),
(446,312,c)
);
}
);
vertWidth = 814;
width = 795;
}
);
unicode = 9772;
},
{
glyphname = plus;
lastChange = "2022-07-27 21:30:10 +0000";
layers = (
{
layerId = master02;
shapes = (
{
closed = 1;
nodes = (
(307,52,l),
(307,241,l),
(496,241,l),
(496,331,l),
(307,331,l),
(307,520,l),
(218,520,l),
(218,331,l),
(29,331,l),
(29,241,l),
(218,241,l),
(218,52,l)
);
}
);
vertWidth = 1130;
width = 524;
},
{
layerId = master03;
shapes = (
{
closed = 1;
nodes = (
(283,60,l),
(283,264,l),
(484,264,l),
(484,305,l),
(283,305,l),
(283,509,l),
(239,509,l),
(239,305,l),
(36,305,l),
(36,264,l),
(239,264,l),
(239,60,l)
);
}
);
vertWidth = 814;
width = 523;
}
);
unicode = 43;
},
{
glyphname = minus;
lastChange = "2022-07-27 21:30:10 +0000";
layers = (
{
layerId = master02;
shapes = (
{
closed = 1;
nodes = (
(411,260,l),
(411,337,l),
(38,337,l),
(38,260,l)
);
}
);
vertWidth = 1130;
width = 449;
},
{
layerId = master03;
shapes = (
{
closed = 1;
nodes = (
(403,272,l),
(403,313,l),
(36,313,l),
(36,272,l)
);
}
);
vertWidth = 814;
width = 440;
}
);
unicode = 8722;
},
{
glyphname = multiply;
lastChange = "2022-07-27 21:30:10 +0000";
layers = (
{
layerId = master02;
shapes = (
{
closed = 1;
nodes = (
(230,233,l),
(355,109,l),
(420,174,l),
(295,298,l),
(420,423,l),
(355,488,l),
(230,364,l),
(105,489,l),
(40,424,l),
(165,298,l),
(40,173,l),
(105,108,l)
);
}
);
vertWidth = 1130;
width = 460;
},
{
layerId = master03;
shapes = (
{
closed = 1;
nodes = (
(200,272,l),
(326,146,l),
(357,177,l),
(231,303,l),
(357,429,l),
(326,460,l),
(200,334,l),
(74,460,l),
(43,429,l),
(169,303,l),
(43,177,l),
(74,146,l)
);
}
);
vertWidth = 814;
width = 400;
}
);
unicode = 215;
},
{
glyphname = divide;
lastChange = "2022-07-27 21:30:10 +0000";
layers = (
{
layerId = master02;
shapes = (
{
closed = 1;
nodes = (
(487,214,l),
(487,291,l),
(38,291,l),
(38,214,l)
);
},
{
closed = 1;
nodes = (
(299,20,o),
(331,50,o),
(331,90,cs),
(331,126,o),
(299,160,o),
(261,160,cs),
(223,160,o),
(191,126,o),
(191,90,cs),
(191,50,o),
(223,20,o),
(261,20,cs)
);
},
{
closed = 1;
nodes = (
(299,345,o),
(331,375,o),
(331,415,cs),
(331,451,o),
(299,485,o),
(261,485,cs),
(223,485,o),
(191,451,o),
(191,415,cs),
(191,375,o),
(223,345,o),
(261,345,cs)
);
}
);
vertWidth = 1130;
width = 525;
},
{
layerId = master03;
shapes = (
{
closed = 1;
nodes = (
(458,236,l),
(458,276,l),
(36,276,l),
(36,236,l)
);
},
{
closed = 1;
nodes = (
(265,60,o),
(283,76,o),
(283,103,cs),
(283,128,o),
(265,145,o),
(244,145,cs),
(222,145,o),
(205,128,o),
(205,103,cs),
(205,76,o),
(222,60,o),
(244,60,cs)
);
},
{
closed = 1;
nodes = (
(265,368,o),
(283,383,o),
(283,410,cs),
(283,435,o),
(265,452,o),
(244,452,cs),
(222,452,o),
(205,435,o),
(205,410,cs),
(205,383,o),
(222,368,o),
(244,368,cs)
);
}
);
vertWidth = 814;
width = 496;
}
);
unicode = 247;
},
{
glyphname = equal;
lastChange = "2022-07-31 13:51:39 +0000";
layers = (
{
layerId = master02;
shapes = (
{
closed = 1;
nodes = (
(392,124,l),
(392,212,l),
(29,212,l),
(29,124,l)
);
},
{
closed = 1;
nodes = (
(392,322,l),
(392,410,l),
(29,410,l),
(29,322,l)
);
}
);
vertWidth = 1130;
width = 421;
},
{
layerId = master03;
shapes = (
{
closed = 1;
nodes = (
(393,186,l),
(393,227,l),
(36,227,l),
(36,186,l)
);
},
{
closed = 1;
nodes = (
(393,343,l),
(393,383,l),
(36,383,l),
(36,343,l)
);
}
);
vertWidth = 814;
width = 431;
}
);
unicode = 61;
},
{
glyphname = greater;
lastChange = "2022-07-27 21:30:10 +0000";
layers = (
{
layerId = master02;
shapes = (
{
closed = 1;
nodes = (
(420,215,l),
(420,293,l),
(56,493,l),
(56,381,l),
(305,254,l),
(56,127,l),
(56,15,l)
);
}
);
vertWidth = 1130;
width = 476;
},
{
layerId = master03;
shapes = (
{
closed = 1;
nodes = (
(430,235,l),
(430,273,l),
(66,483,l),
(66,431,l),
(375,254,l),
(66,77,l),
(66,25,l)
);
}
);
vertWidth = 814;
width = 496;
}
);
unicode = 62;
},
{
glyphname = less;
lastChange = "2022-07-27 21:30:10 +0000";
layers = (
{
layerId = master02;
shapes = (
{
closed = 1;
nodes = (
(420,127,l),
(171,254,l),
(420,381,l),
(420,493,l),
(56,293,l),
(56,215,l),
(420,15,l)
);
}
);
vertWidth = 1130;
width = 476;
},
{
layerId = master03;
shapes = (
{
closed = 1;
nodes = (
(430,77,l),
(121,254,l),
(430,431,l),
(430,483,l),
(66,273,l),
(66,235,l),
(430,25,l)
);
}
);
vertWidth = 814;
width = 496;
}
);
unicode = 60;
},
{
glyphname = asciitilde;
lastChange = "2022-07-27 21:31:02 +0000";
layers = (
{
layerId = master02;
shapes = (
{
closed = 1;
nodes = (
(141,200,l),
(141,236,o),
(158,265,o),
(189,265,cs),
(249,265,o),
(318,199,o),
(401,199,cs),
(488,199,o),
(532,264,o),
(532,361,c),
(433,361,l),
(433,320,o),
(417,298,o),
(386,298,cs),
(328,298,o),
(273,362,o),
(190,362,cs),
(105,362,o),
(42,307,o),
(42,200,c)
);
}
);
vertWidth = 1130;
width = 574;
},
{
layerId = master03;
shapes = (
{
closed = 1;
nodes = (
(87,210,l),
(87,265,o),
(120,305,o),
(182,305,cs),
(263,305,o),
(326,219,o),
(420,219,cs),
(480,219,o),
(538,256,o),
(538,361,c),
(499,361,l),
(499,299,o),
(472,261,o),
(415,261,cs),
(335,261,o),
(274,345,o),
(183,345,cs),
(104,345,o),
(48,296,o),
(48,210,c)
);
}
);
vertWidth = 814;
width = 586;
}
);
unicode = 126;
},
{
glyphname = asciicircum;
lastChange = "2022-07-27 21:30:10 +0000";
layers = (
{
layerId = master02;
shapes = (
{
closed = 1;
nodes = (
(142,406,l),
(252,639,l),
(364,406,l),
(460,406,l),
(291,720,l),
(212,720,l),
(45,406,l)
);
}
);
vertWidth = 1130;
width = 505;
},
{
layerId = master03;
shapes = (
{
closed = 1;
nodes = (
(108,416,l),
(238,679,l),
(370,416,l),
(416,416,l),
(257,720,l),
(218,720,l),
(61,416,l)
);
}
);
vertWidth = 814;
width = 476;
}
);
unicode = 94;
},
{
glyphname = percent;
lastChange = "2022-07-27 21:30:10 +0000";
layers = (
{
layerId = master02;
shapes = (
{
closed = 1;
nodes = (
(206,0,l),
(600,674,l),
(518,674,l),
(124,0,l)
);
},
{
closed = 1;
nodes = (
(283,329,o),
(338,410,o),
(338,502,cs),
(338,594,o),
(281,674,o),
(182,674,cs),
(83,674,o),
(24,594,o),
(24,502,cs),
(24,410,o),
(80,329,o),
(180,329,cs)
);
},
{
closed = 1;
nodes = (
(141,407,o),
(127,451,o),
(127,502,cs),
(127,547,o),
(143,589,o),
(182,589,cs),
(222,589,o),
(235,545,o),
(235,502,cs),
(235,447,o),
(218,407,o),
(180,407,cs)
);
},
{
closed = 1;
nodes = (
(638,-10,o),
(693,71,o),
(693,164,cs),
(693,256,o),
(637,336,o),
(538,336,cs),
(439,336,o),
(379,256,o),
(379,164,cs),
(379,71,o),
(435,-10,o),
(535,-10,cs)
);
},
{
closed = 1;
nodes = (
(496,67,o),
(483,113,o),
(483,164,cs),
(483,214,o),
(499,259,o),
(538,259,cs),
(577,259,o),
(590,211,o),
(590,164,cs),
(590,109,o),
(573,67,o),
(535,67,cs)
);
}
);
vertWidth = 1130;
width = 721;
},
{
layerId = master03;
shapes = (
{
closed = 1;
nodes = (
(187,0,l),
(565,646,l),
(521,646,l),
(143,0,l)
);
},
{
closed = 1;
nodes = (
(255,323,o),
(301,398,o),
(301,486,cs),
(301,573,o),
(254,646,o),
(165,646,cs),
(74,646,o),
(25,573,o),
(25,486,cs),
(25,398,o),
(71,323,o),
(162,323,cs)
);
},
{
closed = 1;
nodes = (
(100,358,o),
(69,411,o),
(69,486,cs),
(69,557,o),
(101,613,o),
(163,613,cs),
(234,613,o),
(257,544,o),
(257,486,cs),
(257,405,o),
(225,358,o),
(162,358,cs)
);
},
{
closed = 1;
nodes = (
(626,-7,o),
(671,67,o),
(671,155,cs),
(671,243,o),
(625,316,o),
(535,316,cs),
(445,316,o),
(396,243,o),
(396,155,cs),
(396,67,o),
(442,-7,o),
(533,-7,cs)
);
},
{
closed = 1;
nodes = (
(470,28,o),
(439,81,o),
(439,155,cs),
(439,228,o),
(471,283,o),
(533,283,cs),
(601,283,o),
(628,227,o),
(628,155,cs),
(628,74,o),
(594,28,o),
(533,28,cs)
);
}
);
vertWidth = 814;
width = 700;
}
);
unicode = 37;
},
{
glyphname = dottedCircle;
lastChange = "2023-01-22 03:35:11 +0000";
layers = (
{
layerId = master02;
shapes = (
{
closed = 1;
nodes = (
(554,470,o),
(567,482,o),
(567,498,cs),
(567,514,o),
(554,527,o),
(538,527,cs),
(522,527,o),
(510,514,o),
(510,498,cs),
(510,482,o),
(522,470,o),
(538,470,cs)
);
},
{
closed = 1;
nodes = (
(154,70,o),
(167,82,o),
(167,98,cs),
(167,114,o),
(154,127,o),
(138,127,cs),
(122,127,o),
(110,114,o),
(110,98,cs),
(110,82,o),
(122,70,o),
(138,70,cs)
);
},
{
closed = 1;
nodes = (
(354,-30,o),
(367,-18,o),
(367,-2,cs),
(367,14,o),
(354,27,o),
(338,27,cs),
(322,27,o),
(310,14,o),
(310,-2,cs),
(310,-18,o),
(322,-30,o),
(338,-30,cs)
);
},
{
closed = 1;
nodes = (
(54,270,o),
(67,282,o),
(67,298,cs),
(67,314,o),
(54,327,o),
(38,327,cs),
(22,327,o),
(10,314,o),
(10,298,cs),
(10,282,o),
(22,270,o),
(38,270,cs)
);
},
{
closed = 1;
nodes = (
(154,470,o),
(167,482,o),
(167,498,cs),
(167,514,o),
(154,527,o),
(138,527,cs),
(122,527,o),
(110,514,o),
(110,498,cs),
(110,482,o),
(122,470,o),
(138,470,cs)
);
},
{
closed = 1;
nodes = (
(554,70,o),
(567,82,o),
(567,98,cs),
(567,114,o),
(554,127,o),
(538,127,cs),
(522,127,o),
(510,114,o),
(510,98,cs),
(510,82,o),
(522,70,o),
(538,70,cs)
);
},
{
closed = 1;
nodes = (
(354,570,o),
(367,582,o),
(367,598,cs),
(367,614,o),
(354,627,o),
(338,627,cs),
(322,627,o),
(310,614,o),
(310,598,cs),
(310,582,o),
(322,570,o),
(338,570,cs)
);
},
{
closed = 1;
nodes = (
(654,270,o),
(667,282,o),
(667,298,cs),
(667,314,o),
(654,327,o),
(638,327,cs),
(622,327,o),
(610,314,o),
(610,298,cs),
(610,282,o),
(622,270,o),
(638,270,cs)
);
}
);
vertWidth = 1130;
width = 677;
},
{
layerId = master03;
shapes = (
{
closed = 1;
nodes = (
(554,470,o),
(567,482,o),
(567,498,cs),
(567,514,o),
(554,527,o),
(538,527,cs),
(522,527,o),
(510,514,o),
(510,498,cs),
(510,482,o),
(522,470,o),
(538,470,cs)
);
},
{
closed = 1;
nodes = (
(154,70,o),
(167,82,o),
(167,98,cs),
(167,114,o),
(154,127,o),
(138,127,cs),
(122,127,o),
(110,114,o),
(110,98,cs),
(110,82,o),
(122,70,o),
(138,70,cs)
);
},
{
closed = 1;
nodes = (
(354,-30,o),
(367,-18,o),
(367,-2,cs),
(367,14,o),
(354,27,o),
(338,27,cs),
(322,27,o),
(310,14,o),
(310,-2,cs),
(310,-18,o),
(322,-30,o),
(338,-30,cs)
);
},
{
closed = 1;
nodes = (
(54,270,o),
(67,282,o),
(67,298,cs),
(67,314,o),
(54,327,o),
(38,327,cs),
(22,327,o),
(10,314,o),
(10,298,cs),
(10,282,o),
(22,270,o),
(38,270,cs)
);
},
{
closed = 1;
nodes = (
(154,470,o),
(167,482,o),
(167,498,cs),
(167,514,o),
(154,527,o),
(138,527,cs),
(122,527,o),
(110,514,o),
(110,498,cs),
(110,482,o),
(122,470,o),
(138,470,cs)
);
},
{
closed = 1;
nodes = (
(554,70,o),
(567,82,o),
(567,98,cs),
(567,114,o),
(554,127,o),
(538,127,cs),
(522,127,o),
(510,114,o),
(510,98,cs),
(510,82,o),
(522,70,o),
(538,70,cs)
);
},
{
closed = 1;
nodes = (
(354,570,o),
(367,582,o),
(367,598,cs),
(367,614,o),
(354,627,o),
(338,627,cs),
(322,627,o),
(310,614,o),
(310,598,cs),
(310,582,o),
(322,570,o),
(338,570,cs)
);
},
{
closed = 1;
nodes = (
(654,270,o),
(667,282,o),
(667,298,cs),
(667,314,o),
(654,327,o),
(638,327,cs),
(622,327,o),
(610,314,o),
(610,298,cs),
(610,282,o),
(622,270,o),
(638,270,cs)
);
}
);
vertWidth = 814;
width = 677;
}
);
unicode = 9676;
},
{
category = Mark;
glyphname = "caBelow-gurmukhi";
lastChange = "2025-02-09 16:08:27 +0000";
layers = (
{
anchors = (
{
name = _joint;
pos = (-198,8);
},
{
name = belowvowel;
pos = (-371,-359);
}
);
layerId = master02;
shapes = (
{
closed = 1;
nodes = (
(-133,-359,o),
(-65,-312,o),
(-65,-215,c),
(-65,10,l),
(-198,10,l),
(-198,-75,l),
(-316,-75,l),
(-316,-22,l),
(-325,-16,o),
(-344,-6,o),
(-375,-6,cs),
(-427,-6,o),
(-478,-42,o),
(-478,-107,cs),
(-478,-146,o),
(-452,-168,o),
(-425,-173,c),
(-421,-297,o),
(-337,-359,o),
(-223,-359,cs)
);
},
{
closed = 1;
nodes = (
(-296,-271,o),
(-316,-234,o),
(-316,-161,c),
(-198,-161,l),
(-198,-211,l),
(-198,-246,o),
(-205,-271,o),
(-239,-271,cs)
);
}
);
vertWidth = 1130;
width = 0;
},
{
anchors = (
{
name = _joint;
pos = (-145,18);
},
{
name = belowvowel;
pos = (-311,-272);
}
);
layerId = master03;
shapes = (
{
closed = 1;
nodes = (
(-131,-272,o),
(-98,-236,o),
(-98,-176,c),
(-98,20,l),
(-145,20,l),
(-145,-84,l),
(-287,-84,l),
(-287,-52,l),
(-292,-49,o),
(-303,-46,o),
(-315,-46,cs),
(-338,-46,o),
(-367,-62,o),
(-367,-96,cs),
(-367,-119,o),
(-352,-129,o),
(-330,-130,c),
(-330,-220,o),
(-281,-272,o),
(-199,-272,cs)
);
},
{
closed = 1;
nodes = (
(-246,-234,o),
(-287,-206,o),
(-287,-124,c),
(-144,-124,l),
(-144,-173,l),
(-144,-217,o),
(-162,-234,o),
(-198,-234,cs)
);
}
);
vertWidth = 814;
width = 0;
}
);
script = gurmukhi;
subCategory = Nonspacing;
},
{
category = Mark;
glyphname = "daBelow-gurmukhi";
lastChange = "2025-02-09 16:08:38 +0000";
layers = (
{
anchors = (
{
name = _joint;
pos = (-198,8);
},
{
name = belowvowel;
pos = (-372,-359);
}
);
layerId = master02;
shapes = (
{
closed = 1;
nodes = (
(-116,-359,o),
(-72,-341,o),
(-42,-318,c),
(-83,-248,l),
(-104,-260,o),
(-134,-273,o),
(-174,-273,cs),
(-227,-273,o),
(-283,-250,o),
(-291,-190,c),
(-65,-190,l),
(-65,10,l),
(-198,10,l),
(-198,-104,l),
(-292,-104,l),
(-292,-63,l),
(-303,-55,o),
(-322,-46,o),
(-348,-46,cs),
(-411,-46,o),
(-453,-90,o),
(-453,-135,cs),
(-453,-167,o),
(-431,-187,o),
(-400,-190,c),
(-386,-320,o),
(-282,-359,o),
(-183,-359,cs)
);
}
);
vertWidth = 1130;
width = 0;
},
{
anchors = (
{
name = _joint;
pos = (-145,18);
},
{
name = belowvowel;
pos = (-311,-273);
}
);
layerId = master03;
shapes = (
{
closed = 1;
nodes = (
(-132,-273,o),
(-100,-262,o),
(-82,-249,c),
(-100,-217,l),
(-113,-225,o),
(-140,-235,o),
(-169,-235,cs),
(-227,-235,o),
(-265,-204,o),
(-267,-138,c),
(-98,-138,l),
(-98,20,l),
(-145,20,l),
(-145,-100,l),
(-267,-100,l),
(-267,-71,l),
(-272,-68,o),
(-283,-65,o),
(-295,-65,cs),
(-318,-65,o),
(-347,-81,o),
(-347,-115,cs),
(-347,-140,o),
(-331,-148,o),
(-311,-149,c),
(-305,-230,o),
(-252,-273,o),
(-171,-273,cs)
);
}
);
vertWidth = 814;
width = 0;
}
);
script = gurmukhi;
subCategory = Nonspacing;
},
{
category = Mark;
glyphname = "gaBelow-gurmukhi";
lastChange = "2025-02-09 16:08:45 +0000";
layers = (
{
anchors = (
{
name = _joint;
pos = (-198,8);
},
{
name = belowvowel;
pos = (-372,-355);
}
);
layerId = master02;
shapes = (
{
closed = 1;
nodes = (
(-339,-355,o),
(-278,-316,o),
(-278,-236,cs),
(-278,10,l),
(-387,10,l),
(-387,-77,l),
(-457,-77,ls),
(-548,-77,o),
(-595,-120,o),
(-595,-195,cs),
(-595,-293,o),
(-516,-355,o),
(-422,-355,cs)
);
},
{
closed = 1;
nodes = (
(-455,-267,o),
(-486,-240,o),
(-486,-200,cs),
(-486,-178,o),
(-471,-163,o),
(-448,-163,cs),
(-387,-163,l),
(-387,-237,ls),
(-387,-254,o),
(-399,-267,o),
(-422,-267,cs)
);
},
{
closed = 1;
nodes = (
(-65,-359,l),
(-65,10,l),
(-198,10,l),
(-198,-359,l)
);
}
);
vertWidth = 1130;
width = 0;
},
{
anchors = (
{
name = _joint;
pos = (-145,18);
},
{
name = belowvowel;
pos = (-311,-273);
}
);
layerId = master03;
shapes = (
{
closed = 1;
nodes = (
(-271,-273,o),
(-237,-245,o),
(-237,-193,cs),
(-237,10,l),
(-283,10,l),
(-283,-70,l),
(-359,-70,ls),
(-411,-70,o),
(-448,-99,o),
(-448,-150,cs),
(-448,-211,o),
(-405,-273,o),
(-327,-273,cs)
);
},
{
closed = 1;
nodes = (
(-365,-235,o),
(-404,-202,o),
(-404,-149,cs),
(-404,-121,o),
(-385,-108,o),
(-359,-108,cs),
(-283,-108,l),
(-283,-194,ls),
(-283,-220,o),
(-297,-235,o),
(-327,-235,cs)
);
},
{
closed = 1;
nodes = (
(-98,-275,l),
(-98,20,l),
(-145,20,l),
(-145,-275,l)
);
}
);
vertWidth = 814;
width = 0;
}
);
script = gurmukhi;
subCategory = Nonspacing;
},
{
glyphname = "bindi-gurmukhi";
lastChange = "2025-02-09 15:57:08 +0000";
layers = (
{
anchors = (
{
name = _nasal;
pos = (-132,753);
}
);
layerId = master02;
shapes = (
{
closed = 1;
nodes = (
(-83,670,o),
(-47,706,o),
(-47,753,cs),
(-47,799,o),
(-83,836,o),
(-132,836,cs),
(-181,836,o),
(-218,799,o),
(-218,753,cs),
(-218,706,o),
(-181,670,o),
(-132,670,cs)
);
}
);
vertWidth = 1130;
width = 0;
},
{
anchors = (
{
name = _nasal;
pos = (-122,710);
}
);
layerId = master03;
shapes = (
{
closed = 1;
nodes = (
(-101,675,o),
(-86,691,o),
(-86,710,cs),
(-86,729,o),
(-101,746,o),
(-122,746,cs),
(-143,746,o),
(-158,729,o),
(-158,710,cs),
(-158,691,o),
(-143,675,o),
(-122,675,cs)
);
}
);
vertWidth = 814;
width = 0;
}
);
unicode = 2562;
},
{
glyphname = "bindi-gurmukhi.000";
lastChange = "2025-02-11 05:04:44 +0000";
layers = (
{
anchors = (
{
name = _nasal;
pos = (-157,748);
}
);
layerId = master02;
shapes = (
{
closed = 1;
nodes = (
(-289,691,o),
(-261,720,o),
(-261,756,cs),
(-261,791,o),
(-289,821,o),
(-326,821,cs),
(-364,821,o),
(-391,791,o),
(-391,756,cs),
(-391,720,o),
(-364,691,o),
(-326,691,cs)
);
}
);
vertWidth = 1130;
width = 0;
},
{
anchors = (
{
name = _nasal;
pos = (-124,702);
}
);
layerId = master03;
shapes = (
{
closed = 1;
nodes = (
(-266,679,o),
(-253,693,o),
(-253,710,cs),
(-253,727,o),
(-266,742,o),
(-285,742,cs),
(-304,742,o),
(-317,727,o),
(-317,710,cs),
(-317,693,o),
(-304,679,o),
(-285,679,cs)
);
}
);
vertWidth = 814;
width = 0;
}
);
},
{
glyphname = "bindi-gurmukhi.000.alt";
lastChange = "2025-02-11 05:04:30 +0000";
layers = (
{
anchors = (
{
name = _nasal;
pos = (-157,748);
}
);
layerId = master02;
shapes = (
{
closed = 1;
nodes = (
(-247,691,o),
(-219,720,o),
(-219,756,cs),
(-219,791,o),
(-247,821,o),
(-284,821,cs),
(-322,821,o),
(-349,791,o),
(-349,756,cs),
(-349,720,o),
(-322,691,o),
(-284,691,cs)
);
}
);
vertWidth = 1130;
width = 0;
},
{
anchors = (
{
name = _nasal;
pos = (-124,702);
}
);
layerId = master03;
shapes = (
{
closed = 1;
nodes = (
(-249,679,o),
(-236,693,o),
(-236,710,cs),
(-236,727,o),
(-249,742,o),
(-268,742,cs),
(-287,742,o),
(-300,727,o),
(-300,710,cs),
(-300,693,o),
(-287,679,o),
(-268,679,cs)
);
}
);
vertWidth = 814;
width = 0;
}
);
},
{
glyphname = "bindi-gurmukhi.alt";
lastChange = "2025-02-09 15:57:42 +0000";
layers = (
{
anchors = (
{
name = _nasal;
pos = (-157,756);
}
);
layerId = master02;
shapes = (
{
closed = 1;
nodes = (
(-120,691,o),
(-92,720,o),
(-92,756,cs),
(-92,791,o),
(-120,821,o),
(-157,821,cs),
(-195,821,o),
(-222,791,o),
(-222,756,cs),
(-222,720,o),
(-195,691,o),
(-157,691,cs)
);
}
);
vertWidth = 1130;
width = 0;
},
{
anchors = (
{
name = _nasal;
pos = (-124,710);
}
);
layerId = master03;
shapes = (
{
closed = 1;
nodes = (
(-105,679,o),
(-92,693,o),
(-92,710,cs),
(-92,727,o),
(-105,742,o),
(-124,742,cs),
(-143,742,o),
(-156,727,o),
(-156,710,cs),
(-156,693,o),
(-143,679,o),
(-124,679,cs)
);
}
);
vertWidth = 814;
width = 0;
}
);
},
{
glyphname = "nukta-gurmukhi";
lastChange = "2023-01-29 16:09:33 +0000";
layers = (
{
anchors = (
{
name = _nukta;
pos = (3,-26);
}
);
layerId = master02;
shapes = (
{
closed = 1;
nodes = (
(39,-86,o),
(64,-60,o),
(64,-26,cs),
(64,8,o),
(39,38,o),
(3,38,cs),
(-31,38,o),
(-58,11,o),
(-58,-26,cs),
(-58,-62,o),
(-31,-86,o),
(3,-86,cs)
);
}
);
vertWidth = 1130;
width = 0;
},
{
anchors = (
{
name = _nukta;
pos = (-107,-13);
}
);
layerId = master03;
shapes = (
{
closed = 1;
nodes = (
(-83,-53,o),
(-65,-35,o),
(-65,-13,cs),
(-65,9,o),
(-83,29,o),
(-107,29,cs),
(-131,29,o),
(-149,9,o),
(-149,-13,cs),
(-149,-35,o),
(-131,-53,o),
(-107,-53,cs)
);
}
);
vertWidth = 814;
width = 0;
}
);
unicode = 2620;
},
{
glyphname = "uMatra-gurmukhi";
lastChange = "2025-02-10 20:56:22 +0000";
layers = (
{
anchors = (
{
name = _belowvowel;
pos = (-296,22);
}
);
layerId = master02;
shapes = (
{
closed = 1;
nodes = (
(-193,-190,o),
(-119,-160,o),
(-78,-131,c),
(-121,-48,l),
(-160,-68,o),
(-228,-87,o),
(-294,-87,cs),
(-368,-87,o),
(-429,-69,o),
(-470,-48,c),
(-511,-130,l),
(-473,-160,o),
(-395,-190,o),
(-296,-190,cs)
);
}
);
vertWidth = 1130;
width = 0;
},
{
anchors = (
{
name = _belowvowel;
pos = (-289,22);
}
);
layerId = master03;
shapes = (
{
closed = 1;
nodes = (
(-216,-148,o),
(-149,-127,o),
(-108,-96,c),
(-124,-68,l),
(-176,-96,o),
(-231,-109,o),
(-289,-109,cs),
(-345,-109,o),
(-408,-95,o),
(-456,-68,c),
(-473,-96,l),
(-434,-127,o),
(-362,-148,o),
(-293,-148,cs)
);
}
);
vertWidth = 814;
width = 0;
}
);
unicode = 2625;
},
{
glyphname = "uuMatra-gurmukhi";
lastChange = "2025-02-10 20:57:13 +0000";
layers = (
{
anchors = (
{
name = _belowvowel;
pos = (-290,27);
}
);
layerId = master02;
shapes = (
{
closed = 1;
nodes = (
(-202,-163,o),
(-122,-135,o),
(-76,-103,c),
(-111,-33,l),
(-157,-56,o),
(-225,-73,o),
(-289,-73,cs),
(-366,-73,o),
(-427,-58,o),
(-480,-33,c),
(-515,-103,l),
(-470,-135,o),
(-387,-163,o),
(-291,-163,cs)
);
},
{
closed = 1;
nodes = (
(-202,-307,o),
(-124,-279,o),
(-76,-247,c),
(-111,-177,l),
(-160,-200,o),
(-221,-217,o),
(-289,-217,cs),
(-370,-217,o),
(-424,-202,o),
(-480,-177,c),
(-515,-247,l),
(-476,-277,o),
(-391,-307,o),
(-291,-307,cs)
);
}
);
vertWidth = 1130;
width = 0;
},
{
anchors = (
{
name = _belowvowel;
pos = (-286,39);
}
);
layerId = master03;
shapes = (
{
closed = 1;
nodes = (
(-279,-117,o),
(-158,-100,o),
(-118,-69,c),
(-135,-41,l),
(-179,-65,o),
(-223,-78,o),
(-285,-78,cs),
(-347,-78,o),
(-397,-68,o),
(-446,-41,c),
(-463,-70,l),
(-422,-98,o),
(-312,-117,o),
(-287,-117,cs)
);
},
{
closed = 1;
nodes = (
(-218,-233,o),
(-152,-212,o),
(-118,-185,c),
(-135,-157,l),
(-187,-185,o),
(-231,-194,o),
(-285,-194,cs),
(-353,-194,o),
(-401,-182,o),
(-446,-157,c),
(-463,-186,l),
(-422,-216,o),
(-364,-233,o),
(-287,-233,cs)
);
}
);
vertWidth = 814;
width = 0;
}
);
unicode = 2626;
},
{
glyphname = "eeMatra-gurmukhi";
lastChange = "2025-06-16 23:51:35 +0000";
layers = (
{
anchors = (
{
name = _abovevowel;
pos = (-195,580);
},
{
name = nasal;
pos = (16,732);
}
);
layerId = master02;
shapes = (
{
closed = 1;
nodes = (
(-62,578,l),
(-62,718,o),
(-144,823,o),
(-393,823,c),
(-393,710,l),
(-251,710,o),
(-195,658,o),
(-195,578,c)
);
}
);
vertWidth = 1130;
width = 0;
},
{
anchors = (
{
name = _abovevowel;
pos = (-145,573);
},
{
name = nasal;
pos = (-24,722);
}
);
layerId = master03;
shapes = (
{
closed = 1;
nodes = (
(-98,571,l),
(-98,711,o),
(-187,831,o),
(-436,831,c),
(-436,793,l),
(-232,793,o),
(-145,686,o),
(-145,571,c)
);
}
);
vertWidth = 814;
width = 0;
}
);
unicode = 2631;
},
{
glyphname = "eeMatra-gurmukhi.alt";
lastChange = "2025-02-11 05:33:37 +0000";
layers = (
{
anchors = (
{
name = _abovevowel;
pos = (-365,580);
},
{
name = nasal;
pos = (-132,738);
}
);
layerId = master02;
shapes = (
{
closed = 1;
nodes = (
(-232,578,l),
(-232,757,o),
(-371,826,o),
(-511,826,c),
(-511,713,l),
(-423,713,o),
(-365,666,o),
(-365,578,c)
);
}
);
vertWidth = 1130;
width = 0;
},
{
anchors = (
{
name = _abovevowel;
pos = (-306,573);
},
{
name = nasal;
pos = (-159,722);
}
);
layerId = master03;
shapes = (
{
closed = 1;
nodes = (
(-259,571,l),
(-259,672,o),
(-352,799,o),
(-480,799,c),
(-480,761,l),
(-390,761,o),
(-306,661,o),
(-306,571,c)
);
}
);
vertWidth = 814;
width = 0;
}
);
},
{
glyphname = "eeMatra-gurmukhi.alt.001";
lastChange = "2025-02-09 16:09:34 +0000";
layers = (
{
anchors = (
{
name = _abovevowel;
pos = (-363,562);
}
);
layerId = master02;
shapes = (
{
closed = 1;
nodes = (
(-232,560,l),
(-132,660,o),
(-161,844,o),
(-365,844,c),
(-365,731,l),
(-288,731,o),
(-280,645,o),
(-365,560,c)
);
}
);
vertWidth = 1130;
width = 0;
},
{
anchors = (
{
name = _abovevowel;
pos = (-304,573);
}
);
layerId = master03;
shapes = (
{
closed = 1;
nodes = (
(-259,571,l),
(-169,661,o),
(-210,799,o),
(-306,799,c),
(-306,761,l),
(-252,761,o),
(-221,656,o),
(-306,571,c)
);
}
);
vertWidth = 814;
width = 0;
}
);
},
{
glyphname = "aiMatra-gurmukhi";
lastChange = "2025-04-24 12:38:56 +0000";
layers = (
{
anchors = (
{
name = _abovevowel;
pos = (-195,579);
},
{
name = nasal;
pos = (20,732);
}
);
layerId = master02;
shapes = (
{
closed = 1;
nodes = (
(-62,577,l),
(-62,857,o),
(-244,909,o),
(-384,909,c),
(-384,807,l),
(-245,807,o),
(-185,728,o),
(-185,700,c),
(-185,700,o),
(-244,751,o),
(-384,751,c),
(-384,649,l),
(-307,649,o),
(-195,628,o),
(-195,577,c)
);
}
);
vertWidth = 1130;
width = 0;
},
{
anchors = (
{
name = _abovevowel;
pos = (-145,579);
},
{
name = nasal;
pos = (-24,728);
}
);
layerId = master03;
shapes = (
{
closed = 1;
nodes = (
(-98,577,l),
(-98,777,o),
(-271,869,o),
(-411,869,c),
(-411,831,l),
(-271,831,o),
(-151,720,o),
(-151,660,c),
(-151,660,o),
(-279,735,o),
(-411,735,c),
(-411,697,l),
(-291,697,o),
(-145,641,o),
(-145,577,c)
);
}
);
vertWidth = 814;
width = 0;
}
);
unicode = 2632;
},
{
glyphname = "aiMatra-gurmukhi.alt";
lastChange = "2025-04-24 12:39:54 +0000";
layers = (
{
anchors = (
{
name = _abovevowel;
pos = (-365,554);
},
{
name = nasal;
pos = (-132,712);
}
);
layerId = master02;
shapes = (
{
closed = 1;
nodes = (
(-232,552,l),
(-232,880,o),
(-381,907,o),
(-511,907,c),
(-511,805,l),
(-381,805,o),
(-365,730,o),
(-365,697,c),
(-365,705,o),
(-399,738,o),
(-511,738,c),
(-511,636,l),
(-425,636,o),
(-365,629,o),
(-365,552,c)
);
}
);
vertWidth = 1130;
width = 0;
},
{
anchors = (
{
name = _abovevowel;
pos = (-296,559);
},
{
name = nasal;
pos = (-149,708);
}
);
layerId = master03;
shapes = (
{
closed = 1;
nodes = (
(-249,557,l),
(-249,770,o),
(-347,849,o),
(-470,849,c),
(-470,811,l),
(-357,811,o),
(-296,686,o),
(-296,645,c),
(-296,645,o),
(-363,715,o),
(-470,715,c),
(-470,677,l),
(-363,677,o),
(-296,590,o),
(-296,557,c)
);
}
);
vertWidth = 814;
width = 0;
}
);
},
{
glyphname = "aiMatra-gurmukhi.alt.001";
lastChange = "2025-02-09 16:10:40 +0000";
layers = (
{
anchors = (
{
name = _abovevowel;
pos = (-341,554);
}
);
layerId = master02;
shapes = (
{
closed = 1;
nodes = (
(-210,552,l),
(-137,652,o),
(25,907,o),
(-352,907,c),
(-353,808,l),
(-155,808,o),
(-223,710,o),
(-223,710,c),
(-223,710,o),
(-228,758,o),
(-353,758,c),
(-353,662,l),
(-258,662,o),
(-259,636,o),
(-343,552,c)
);
}
);
vertWidth = 1130;
width = 0;
},
{
anchors = (
{
name = _abovevowel;
pos = (-294,559);
}
);
layerId = master03;
shapes = (
{
closed = 1;
nodes = (
(-249,557,l),
(-149,657,o),
(-68,849,o),
(-305,849,c),
(-305,811,l),
(-127,811,o),
(-208,680,o),
(-208,680,c),
(-208,680,o),
(-176,751,o),
(-305,751,c),
(-305,713,l),
(-203,713,o),
(-222,631,o),
(-296,557,c)
);
}
);
vertWidth = 814;
width = 0;
}
);
},
{
glyphname = "ooMatra-gurmukhi";
lastChange = "2025-06-16 22:59:48 +0000";
layers = (
{
anchors = (
{
name = _abovevowel;
pos = (-181,577);
},
{
name = nasal;
pos = (32,732);
}
);
layerId = master02;
shapes = (
{
closed = 1;
nodes = (
(-48,575,l),
(-48,892,o),
(-315,680,o),
(-315,892,c),
(-448,892,l),
(-448,575,o),
(-181,787,o),
(-181,575,c)
);
}
);
vertWidth = 1130;
width = 0;
},
{
anchors = (
{
name = _abovevowel;
pos = (-138,579);
},
{
name = nasal;
pos = (0,728);
}
);
layerId = master03;
shapes = (
{
closed = 1;
nodes = (
(-91,577,l),
(-91,827,o),
(-381,626,o),
(-381,827,c),
(-428,827,l),
(-428,577,o),
(-138,778,o),
(-138,577,c)
);
}
);
vertWidth = 814;
width = 0;
}
);
unicode = 2635;
},
{
glyphname = "ooMatra-gurmukhi.alt";
lastChange = "2025-02-11 05:55:41 +0000";
layers = (
{
anchors = (
{
name = _abovevowel;
pos = (-355,577);
},
{
name = nasal;
pos = (-125,732);
}
);
layerId = master02;
shapes = (
{
closed = 1;
nodes = (
(-222,575,l),
(-222,872,o),
(-431,682,o),
(-431,892,c),
(-544,892,l),
(-544,595,o),
(-355,784,o),
(-355,575,c)
);
}
);
vertWidth = 1130;
width = 0;
},
{
anchors = (
{
name = _abovevowel;
pos = (-301,569);
},
{
name = nasal;
pos = (-168,728);
}
);
layerId = master03;
shapes = (
{
closed = 1;
nodes = (
(-254,567,l),
(-254,817,o),
(-455,610,o),
(-455,817,c),
(-493,817,l),
(-493,567,o),
(-301,763,o),
(-301,567,c)
);
}
);
vertWidth = 814;
width = 0;
}
);
},
{
glyphname = "ooMatra-gurmukhi.alt.001";
lastChange = "2025-02-09 16:12:15 +0000";
layers = (
{
anchors = (
{
name = _abovevowel;
pos = (-354,577);
}
);
layerId = master02;
shapes = (
{
closed = 1;
nodes = (
(-222,575,l),
(-192,872,o),
(-360,682,o),
(-330,892,c),
(-443,892,l),
(-473,595,o),
(-325,784,o),
(-355,575,c)
);
}
);
vertWidth = 1130;
width = 0;
},
{
anchors = (
{
name = _abovevowel;
pos = (-300,569);
}
);
layerId = master03;
shapes = (
{
closed = 1;
nodes = (
(-254,567,l),
(-224,817,o),
(-389,618,o),
(-359,817,c),
(-397,817,l),
(-427,567,o),
(-271,755,o),
(-301,567,c)
);
}
);
vertWidth = 814;
width = 0;
}
);
},
{
glyphname = "auMatra-gurmukhi";
lastChange = "2025-02-11 05:15:19 +0000";
layers = (
{
anchors = (
{
name = _abovevowel;
pos = (-200,577);
},
{
name = nasal;
pos = (38,861);
}
);
layerId = master02;
shapes = (
{
closed = 1;
nodes = (
(-162,652,l),
(-170,668,o),
(-176,682,o),
(-176,699,cs),
(-176,727,o),
(-158,746,o),
(-132,746,cs),
(-110,746,o),
(-92,729,o),
(-90,698,cs),
(-90,682,o),
(-96,665,o),
(-103,652,c),
(-23,625,l),
(-3,639,o),
(21,670,o),
(21,709,cs),
(21,765,o),
(-29,834,o),
(-144,834,cs),
(-276,834,o),
(-342,803,o),
(-342,902,c),
(-455,902,l),
(-455,758,o),
(-389,731,o),
(-267,741,c),
(-266,739,l),
(-276,731,o),
(-283,713,o),
(-283,697,cs),
(-283,664,o),
(-260,638,o),
(-242,625,c)
);
}
);
vertWidth = 1130;
width = 0;
},
{
anchors = (
{
name = _abovevowel;
pos = (-144,577);
},
{
name = nasal;
pos = (40,728);
}
);
layerId = master03;
shapes = (
{
closed = 1;
nodes = (
(-171,637,l),
(-177,650,o),
(-181,660,o),
(-181,674,cs),
(-181,706,o),
(-162,735,o),
(-122,735,cs),
(-79,735,o),
(-63,706,o),
(-63,678,cs),
(-63,658,o),
(-68,647,o),
(-73,637,c),
(-44,622,l),
(-34,633,o),
(-24,653,o),
(-24,681,cs),
(-24,733,o),
(-58,771,o),
(-135,771,cs),
(-247,771,o),
(-312,751,o),
(-312,847,c),
(-350,847,l),
(-350,720,o),
(-247,739,o),
(-191,739,c),
(-190,737,l),
(-204,728,o),
(-220,707,o),
(-220,676,cs),
(-220,651,o),
(-210,632,o),
(-200,622,c)
);
}
);
vertWidth = 814;
width = 0;
}
);
unicode = 2636;
},
{
glyphname = "auMatra-gurmukhi.alt";
lastChange = "2024-12-08 16:31:34 +0000";
layers = (
{
anchors = (
{
name = _abovevowel;
pos = (-372,577);
}
);
layerId = master02;
shapes = (
{
closed = 1;
nodes = (
(-336,652,l),
(-344,668,o),
(-350,682,o),
(-350,699,cs),
(-350,727,o),
(-332,746,o),
(-306,746,cs),
(-284,746,o),
(-266,729,o),
(-264,698,cs),
(-264,682,o),
(-270,665,o),
(-277,652,c),
(-197,625,l),
(-177,639,o),
(-153,670,o),
(-153,709,cs),
(-153,765,o),
(-203,834,o),
(-318,834,cs),
(-364,834,o),
(-411,829,o),
(-439,829,cs),
(-486,829,o),
(-492,847,o),
(-501,902,c),
(-614,902,l),
(-614,765,o),
(-532,733,o),
(-467,733,cs),
(-459,733,o),
(-452,733,o),
(-445,734,c),
(-452,724,o),
(-457,710,o),
(-457,697,cs),
(-457,664,o),
(-434,638,o),
(-416,625,c)
);
}
);
vertWidth = 1130;
width = 0;
},
{
anchors = (
{
name = _abovevowel;
pos = (-302,577);
}
);
layerId = master03;
shapes = (
{
closed = 1;
nodes = (
(-333,637,l),
(-339,650,o),
(-343,660,o),
(-343,674,cs),
(-343,706,o),
(-324,735,o),
(-284,735,cs),
(-243,735,o),
(-226,709,o),
(-225,677,cs),
(-225,659,o),
(-230,648,o),
(-235,637,c),
(-206,622,l),
(-196,633,o),
(-186,653,o),
(-186,681,cs),
(-186,733,o),
(-220,771,o),
(-297,771,cs),
(-332,771,o),
(-344,767,o),
(-383,767,cs),
(-433,767,o),
(-457,785,o),
(-464,847,c),
(-502,847,l),
(-500,756,o),
(-447,732,o),
(-392,732,cs),
(-379,732,o),
(-365,732,o),
(-352,735,c),
(-368,725,o),
(-382,706,o),
(-382,676,cs),
(-382,651,o),
(-372,632,o),
(-362,622,c)
);
}
);
vertWidth = 814;
width = 0;
}
);
},
{
glyphname = "auMatra-gurmukhi.alt.001";
lastChange = "2024-12-08 16:31:39 +0000";
layers = (
{
anchors = (
{
name = _abovevowel;
pos = (-372,577);
}
);
layerId = master02;
shapes = (
{
closed = 1;
nodes = (
(-336,652,l),
(-344,668,o),
(-350,682,o),
(-350,699,cs),
(-350,727,o),
(-332,746,o),
(-306,746,cs),
(-284,746,o),
(-266,729,o),
(-264,698,cs),
(-264,682,o),
(-270,665,o),
(-277,652,c),
(-197,625,l),
(-177,639,o),
(-153,670,o),
(-153,709,cs),
(-153,765,o),
(-203,834,o),
(-318,834,cs),
(-381,834,o),
(-410,852,o),
(-410,902,c),
(-523,902,l),
(-523,815,o),
(-460,780,o),
(-435,769,c),
(-469,734,o),
(-460,652,o),
(-416,625,c)
);
}
);
vertWidth = 1130;
width = 0;
},
{
anchors = (
{
name = _abovevowel;
pos = (-302,577);
}
);
layerId = master03;
shapes = (
{
closed = 1;
nodes = (
(-333,637,l),
(-339,650,o),
(-343,660,o),
(-343,674,cs),
(-343,706,o),
(-324,735,o),
(-284,735,cs),
(-243,735,o),
(-226,709,o),
(-225,677,cs),
(-225,659,o),
(-230,648,o),
(-235,637,c),
(-206,622,l),
(-196,633,o),
(-186,653,o),
(-186,681,cs),
(-186,733,o),
(-220,771,o),
(-297,771,cs),
(-361,771,o),
(-371,813,o),
(-372,847,c),
(-410,847,l),
(-410,766,o),
(-356,748,o),
(-350,748,c),
(-385,726,o),
(-394,654,o),
(-362,622,c)
);
}
);
vertWidth = 814;
width = 0;
}
);
},
{
glyphname = "halant-gurmukhi";
lastChange = "2025-02-10 16:52:32 +0000";
layers = (
{
anchors = (
{
name = _joint;
pos = (-116,-30);
},
{
name = belowvowel;
pos = (-377,-256);
}
);
layerId = master02;
shapes = (
{
closed = 1;
nodes = (
(76,-245,l),
(76,-245,o),
(-116,-96,o),
(-116,-96,c),
(-203,-153,l),
(-203,-153,o),
(-1,-306,o),
(-1,-306,c)
);
}
);
vertWidth = 1130;
width = 0;
},
{
anchors = (
{
name = _joint;
pos = (-113,-20);
},
{
name = belowvowel;
pos = (-316,-172);
}
);
layerId = master03;
shapes = (
{
closed = 1;
nodes = (
(32,-212,l),
(32,-212,o),
(-113,-93,o),
(-113,-93,c),
(-150,-122,l),
(-150,-122,o),
(1,-243,o),
(1,-243,c)
);
}
);
vertWidth = 814;
width = 0;
}
);
unicode = 2637;
},
{
glyphname = "halant-gurmukhi.alt";
lastChange = "2025-02-10 16:47:07 +0000";
layers = (
{
anchors = (
{
name = _joint;
pos = (-267,0);
},
{
name = belowvowel;
pos = (-443,-590);
}
);
layerId = master02;
shapes = (
{
closed = 1;
nodes = (
(-3,-554,l),
(-194,-404,l),
(-269,-504,l),
(-64,-638,l)
);
}
);
vertWidth = 1130;
width = 0;
},
{
anchors = (
{
name = _joint;
pos = (-209,0);
},
{
name = belowvowel;
pos = (-377,-386);
}
);
layerId = master03;
shapes = (
{
closed = 1;
nodes = (
(-61,-398,l),
(-183,-307,l),
(-211,-344,l),
(-81,-428,l)
);
}
);
vertWidth = 814;
width = 0;
}
);
},
